<?xml version="1.0" standalone="yes"?>
<svg xmlns="http://www.w3.org/2000/svg" width="256" height="256">
<path style="fill:#0b3d44; stroke:none;" d="M0 0C2.3156 4.661 3.30221 8.17236 9 9L9 12L4 12C8.46558 14.8424 12.2544 20.5076 17 22L16 27C13.6017 25.9729 11.5842 25.322 9 25C9.98023 26.7833 9.9076 26.5943 12 27C10.2575 28.1113 9.88068 28.2705 9 30C6.03829 29.9183 5.43937 30.3928 4 33C9.55351 37.2403 9.33982 46.8913 7 53C4.89411 52.3562 3.20488 52.0941 1 52C1.95732 50.4833 2.38721 49.6615 3 48C-0.720066 48.7972 0 51.6097 0 55L0 76L0 154L0 173C0 175.915 -0.60419 178.5 2 180C1.30553 183.227 0.441978 186.6 3 189C1.96443 190.186 1.66135 190.604 1 192L6 191C6.40625 193.924 6.67672 196.125 9 198L9 200L4 205L5 211C0.36419 211.918 -2.78672 219.76 3 221C1.99748 224.759 2.86147 227.346 4 231C-2.90653 234.808 0 249.029 0 256L30 256C30.7818 251.007 33.482 247.848 31 243L35 242C35.2206 238.993 35.4547 237.635 38 236L36 231L41 233C44.9101 230.776 45.3845 234.362 43 237C47.6415 239.209 53.5638 246.7 46 249C47.2484 249.685 47.5484 249.749 49 250L48 253C50.1236 253.899 50.1007 253.876 51 256L75 256C72.9208 250.267 70.7891 245.11 70 239C66.8909 238.556 64.116 238.67 61 239C60.4152 231.517 60.7456 225.399 70 228C68.7243 222.861 67.2873 216.752 65 212C59.5622 214.134 59.807 218.93 61 224L57 223L58 227C54.13 224.491 55.074 220.229 54.9954 216.004C54.9308 212.537 53.5165 210.168 52.7909 206.91C51.5289 201.245 53.7717 193.152 47 191C47.0774 194.649 47.5779 197.63 49 201C46.6134 202.772 45.358 205.355 44 208C41.1529 206.025 33.5425 206.348 35 203L33 199C35.2974 199.674 35.7741 199.965 37 202C41.845 199.448 38.5445 196.515 40.6235 192.594C43.9584 186.304 44.4119 180.137 46.206 173.09C47.2655 168.928 49.7384 165.215 50.6096 161C51.8688 154.907 50.3336 146.078 49 140C51.6132 138.025 52.6326 135.816 56 135C55.6074 130.2 53.0215 126.456 52.3133 121.91C51.6997 117.972 52.7176 114.046 52 110C58.0578 108.702 53.103 100.897 53.2222 96.9722C53.3188 93.7924 55.925 91.5101 56 88L60 88C60.5302 92.1951 60.6948 96.7934 61.9745 100.83C63.1874 104.656 66.0588 108.907 66.0849 113C66.1122 117.289 62.5111 119.933 60.8534 123.464C59.7642 125.783 60.0086 128.508 60 131C69.1755 133.811 61.442 146.925 67 152L67 154C65.2167 154.98 65.4057 154.908 65 157L64 153L62 153L62 160L70 160C68.7415 164.147 70.4645 168.481 69 172C69.7453 173.823 69.9537 175.023 70 177L74 177C77.8113 170.548 82.3514 167.64 81 159C82.3141 158.232 82.2321 158.314 83 157C84.4785 157.986 84.2032 158 86 158C87.2228 156.805 87.42 156.684 89 156C89.2649 152.522 89.6733 149.449 89 146C91.4089 145.728 93.5813 145.799 96 146C97.6286 141.598 100.504 137.779 100 133C101.803 131.46 101.832 130.402 102 128C106.357 129.184 109.175 131.894 111 136C115.061 135.367 116.85 133.966 118 130L112 130L112 127C107.595 126.671 105.921 125.516 106 121C107.478 121.986 107.203 122 109 122C112.135 116.563 115.809 110.336 116 104C120.049 106.357 120.635 110.732 122 115L128 113L128 117C129.393 114.787 129.374 113.609 129 111L132 112C132.9 108.959 132.992 106.169 133 103L135 103C135.178 105.597 135.499 106.887 137 109L130 116C130.687 119.7 130.99 123.237 131 127L128 126C128.017 130.899 127.975 135.371 134 134L133 131C137.288 130.255 137.987 128.051 137 124C139.678 122.042 137.366 119.493 136 117L137 116C139.671 118.101 141.619 119.487 145 120L147 114C140.59 107.717 148.094 99.9002 150 93L152 93C153.963 97.8022 157.518 98.6423 161 102C162.236 97.8208 160.038 92.4938 160 88L163 88L163 79L158 77C158.154 81.0954 156.703 82.4593 153 84C152.204 78.8529 155.249 76.731 155.817 71.9853C157.051 61.6716 153.251 50.784 157 41C155.018 41.4646 154.594 41.7035 153 43L152 39C154.814 37.9044 157.196 35.657 160 37C163.54 36.1682 166.028 35.7591 169 38L172 37C171.105 39.9109 170.851 42.5715 169 45C171.332 45.9845 173.457 45.9813 176 46C176.939 43.3626 177.58 42.3818 180 41C179.339 39.6037 179.036 39.1863 178 38C180.806 36.2347 181.296 34.2007 182 31L177 31C178.92 27.6496 179.82 24.87 180 21L183 21L183 13L186 13C186.11 10.558 186.428 8.37718 187 6C189.158 13.3021 185.691 18.8599 185.59 26C185.51 31.6 187.385 37.4142 187.946 43C188.438 47.905 187.646 52.1774 187 57L192 57C190.446 59.2102 190.726 59.5858 193 61L193 56C194.768 57.3485 195.983 58.1219 198 59L193 51C195.277 51.1672 195.685 51.1988 197 53C198.645 53.1773 198.647 53.1411 200 54L203 53C201.803 51.0849 201.609 49.2523 201 47C198.581 46.8307 197.882 46.5327 196 45L200 46C200.644 43.8941 200.906 42.2048 201 40L204 40C204.048 43.9857 204.06 46.4162 208 48C208.282 44.256 209.211 42.5101 212 40C208.442 36.5265 208.669 33.7441 209 29L206 32L207 28C205.466 25.6521 206.015 22.899 204 21C206.496 17.401 204.881 14.9556 204 11C200.743 13.8824 199.62 16.6708 200 21C197.792 22.9255 198.032 25.125 198 28L196 28C196.027 18.5159 199 9.6519 199 0L170 0C168.715 2.40074 167.306 3.54082 165 5C166.834 10.5697 165.647 15.6004 167 21C159.316 21.3583 151.016 29.5972 149 37L145 37L145 33L141 33C140.999 39.5182 138.202 44.7403 138 51C145.824 53.4755 139.164 60.2573 137.545 65.2855C136.663 68.0255 137 71.1596 137 74L132 74C131.5 77.2313 131.729 80.039 129 82C129.768 83.3142 129.686 83.2321 131 84C130.278 86.4181 130.052 88.4716 130 91C123.795 84.994 126.967 78.2793 128.242 71C129.166 65.7272 129.328 60.3155 130 55L127 56C127.899 53.8764 127.876 53.8993 130 53C129.013 47.7185 130.984 42.4053 131 37C129.424 39.1474 128.325 40.6877 126 42C126.452 39.5888 126.773 38.6514 125 37C128.043 33.2488 132.806 30.055 135 26C128.484 17.4093 135.969 8.91982 136 0L71 0C70.8096 3.77719 68.228 8.97742 73 10C68.0268 16.2634 66.1092 9.94891 65 5C66.9511 3.27879 66.6567 1.3255 63.8511 0.432861C60.2865 -0.701294 55.6985 0 52 0L0 0z"/>
<path style="fill:#194752; stroke:none;" d="M65 0C66.103 2.24562 66.3217 2.9084 65 5C65.3907 10.097 68.9212 17.774 73 10C69.425 7.61383 70.8357 3.8974 71 0L65 0z"/>
<path style="fill:#3a6370; stroke:none;" d="M136 0L136 15C140.181 10.9525 141.076 3.73874 136 0z"/>
<path style="fill:#0b3d44; stroke:none;" d="M138 0L139 5L143 4L142 0L138 0z"/>
<path style="fill:#2c5561; stroke:none;" d="M142 0C143.196 3.64287 145.393 4.20464 149 5L148 9C152.058 7.81207 151.58 4.70067 151 1C149.203 1 149.479 1.01431 148 2C146.266 -0.00335693 144.645 0.0769501 142 0z"/>
<path style="fill:#194752; stroke:none;" d="M148 2L151 1C151.131 4.63168 151.207 6.98404 148 9L149 5C133.382 1.33414 144.869 20.8044 138 28L139 18C135.382 19.0582 135.356 22.398 133 25C133.765 28.888 127.653 33.0941 125 36C126.009 38.1983 126.16 39.5796 126 42C128.853 41.0127 129.373 39.9361 130 37C131.6 42.5822 128.495 47.4695 130 53C127.636 53.4825 127.482 53.636 127 56L134 54L135 62C137.087 62.1888 137.486 62.546 139 64C140.775 59.2081 145.648 52.3272 138 51C138.46 44.7323 141 39.6016 141 33L145 33L145 37L149 37C151.997 30.246 159.444 21.6879 167 21C166.383 16.9118 167.617 13.0882 167 9L163 11L162 7C165.56 5.40358 168.733 3.8277 170 0C164.439 0 151.804 -2.35364 148 2M199 0L199 13C201.167 12.7233 202.009 12.8896 203 11L204 15L206 15L206 9C207.58 9.68358 207.777 9.80486 209 11C210.005 8.85001 210.53 6.88194 212 5L211 0L199 0z"/>
<path style="fill:#2c5561; stroke:none;" d="M211 0L211 4C213.567 4.54172 214.26 5.01941 216 7L213 6L215 11C215.685 9.75154 215.749 9.45163 216 8C216.986 9.47856 217 9.20312 217 11L221 10C220.014 11.4785 220 11.2032 220 13C221.28 14.3372 222.03 15.3997 223 17C225.061 15.012 225.579 13.843 226 11C224.604 11.6614 224.186 11.9644 223 13C221.18 8.41653 218.321 4.84552 217 0C215.686 0.767914 215.768 0.685837 215 2L213 2C212.232 0.685898 212.314 0.767868 211 0z"/>
<path style="fill:#0b3d44; stroke:none;" d="M213 0L213 2L215 2L215 0L213 0z"/>
<path style="fill:#194752; stroke:none;" d="M217 0C218.023 5.13945 220.425 8.53239 223 13L226 11L226 15C227.312 12.4989 227.455 10.776 227 8L231 9C229.457 7.73332 228.952 7.51077 227 7L227 3C226.033 4.8084 225.302 6.41757 224 8C224.02 4.71361 220.384 4.03052 224 1C221.668 0.0154724 219.543 0.0187378 217 0z"/>
<path style="fill:#0b3d44; stroke:none;" d="M224 8C226.417 6.03209 227.289 3.01355 228 0C225.758 0 218.219 0.828949 221 5C222.112 6.66872 223.595 5.59479 225 7L224 8z"/>
<path style="fill:#486c7a; stroke:none;" d="M228 0L227 5C228.635 5.54506 228.455 5.36479 229 7C230.393 4.6889 230.765 2.69145 231 0L228 0z"/>
<path style="fill:#2c5561; stroke:none;" d="M231 0L231 4C231.71 2.24046 231.71 1.75949 231 0z"/>
<path style="fill:#0b3d44; stroke:none;" d="M232 0C231.259 3.33099 230.177 5.6048 231 9L227 8C227.076 11.5972 226.498 13.401 224 16C224.738 21.202 222.954 24.9839 222.039 30C221.121 35.034 221.3 39.9334 221 45L226 48L225 53L229 53L228 58C233.5 56.8214 229.677 43.9211 231 39C231.562 40.8006 231.824 42.1218 232 44L237 44C236.503 40.9339 235.964 39.9683 233 39C233.019 33.4983 234.584 28.4433 235 23C231.205 23 234.122 9.87663 233 6C235.719 4.42671 236.373 3.07509 237 0L232 0z"/>
<path style="fill:#2c5561; stroke:none;" d="M237 0C236.069 2.74068 235.181 4.10396 233 6C234.021 10.0959 235.727 13.7442 236 18C238.367 13.943 236.529 10.3635 236 6C238.358 6.65913 239.243 7.26665 241 9C242.124 6.16554 241.961 3.04567 242 0C240.804 0.597763 241.023 0.466019 240 2L239 0L237 0z"/>
<path style="fill:#597c8b; stroke:none;" d="M239 0L239 2L241 2L241 0L239 0z"/>
<path style="fill:#0b3d44; stroke:none;" d="M242 0C241.794 5.49515 236.456 18.854 241 22C244.001 14.7105 247.81 8.11011 248 0L242 0z"/>
<path style="fill:#194752; stroke:none;" d="M248 0L248 4L251 2C252.289 8.2487 248.564 10.6865 246.14 16C244.54 19.506 243.888 24.2196 243 28L239 28C239.464 25.8278 240.105 24.0417 241 22C239.543 20.8966 239.103 20.4566 238 19L235 21L234 15C232.574 17.6999 231.159 22.4595 235 23C234.049 28.4288 233.004 33.4593 233 39C235.547 40.3726 236.188 41.2184 237 44L232 44L232 39C227.681 44.7005 234.11 54.0355 228 58L229 53L225 53L226 48L223 45L220 47L219 41C218.153 42.8645 217.853 44.9969 216.843 46.7955C214.372 51.1926 206.349 57.6676 213 62C213 59.649 213.652 60.0652 216 60C214.794 63.24 214.274 65.6129 215 69C217.095 64.1429 216.997 58.2423 217 53C216.315 54.2483 216.251 54.5485 216 56C215.936 52.2585 217.934 50.9843 221 49L220 53C221.195 54.2228 221.316 54.42 222 56L227 55C226.174 59.9702 228.68 64.0778 229 69L236 67L235 71C237.061 72.988 237.579 74.1571 238 77C239.522 74.704 240.557 73.3023 243 72C242.99 75.4552 242.802 78.6321 242 82C241.014 80.5215 241 80.7968 241 79C239.923 81.7564 240.468 84.1068 241 87C243.078 83.4928 243.883 80.0601 244 76C246.403 75.3715 247.958 74.4381 250 73C249.974 76.1217 249.724 78.9605 249 82L255 82C256.59 77.0649 255.821 70.785 251 68C251.183 65.5049 250.96 64.3168 250 62C248.745 63.7505 248.386 64.8573 248 67C245.882 65.7824 245.155 65.133 244 63C242.115 65.2148 240.618 66.7226 238 68C237.346 64.9461 235.993 65.0642 233 65L238 63L238 61C236.199 60.4382 234.878 60.1759 233 60C232.807 55.5001 232.204 51.4877 233 47C234.479 47.9857 234.203 48 236 48C237.957 46.6804 238.608 46.7005 241 47C241 45.2032 240.986 45.4785 240 44L244 44L244 47L249 47C248.976 40.0685 245.165 34.8166 245 28C252.206 27.4385 252.189 18.1299 253 12L256 12L256 0L248 0M0 1L0 37C0 40.8797 -1.58282 47.0179 3 48L1 52L7 53C9.90282 47.4212 10.188 36.1556 4 33C5.74024 31.0194 6.43339 30.5417 9 30C10.2228 28.8048 10.42 28.6836 12 28L9 25L16 27L17 22C11.7675 19.2695 10.4775 13.8825 4 13C5.8006 12.4382 7.12183 12.1759 9 12L9 9C4.63578 7.87489 2.1343 5.61732 2 1L0 1z"/>
<path style="fill:#2c5561; stroke:none;" d="M125 1C124.106 3.04163 123.464 4.82777 123 7C126.331 6.2861 126.591 3.76221 125 1z"/>
<path style="fill:#194752; stroke:none;" d="M173 1C173.406 3.09239 173.217 3.01974 175 4C173.964 5.18631 173.661 5.60367 173 7L178 5L176 1L173 1z"/>
<path style="fill:#486c7a; stroke:none;" d="M249 2C246.655 7.75557 244.087 13.8778 243 20C247.887 15.3011 252.983 8.98653 251 2L249 2z"/>
<path style="fill:#3a6370; stroke:none;" d="M212 3C211.318 8.244 208.52 11.3042 207 16C209.67 15.466 209.443 16.7849 210 14L214 16C214.671 12.1569 214.503 9.61752 213 6C214.479 6.98567 214.203 7 216 7C214.846 4.75113 214.249 4.15353 212 3z"/>
<path style="fill:#2c5561; stroke:none;" d="M210 5L210 11C208.406 9.70348 207.982 9.4646 206 9C206 12.99 206.474 16.7341 204 20C205.124 22.4691 205.174 24.2955 205 27L211 25C211.651 22.5657 212.16 21.7173 214 20L214 26C217.814 25.3387 218.57 23.7406 219 20C217.267 21.2224 216.849 22.0088 216 24C215.411 20.7577 216.574 18.2315 217 15C214.48 15.0123 212.418 14.6958 210 14L211 18L207 18C207.746 13.3058 211.033 9.85251 212 5L210 5z"/>
<path style="fill:#658d9a; stroke:none;" d="M227 5L227 7L229 7L229 5L227 5z"/>
<path style="fill:#2c5561; stroke:none;" d="M136 6C131.251 12.7149 132.838 17.1529 133 25L135 25C135.53 21.6838 136.102 19.7698 139 18L138 28C144.131 23.7955 140.052 14.2987 140 8C138.712 10.4602 137.662 12.7399 136 15C136.244 11.8934 137.056 8.94429 136 6M162 7C162.97 9.49168 163.475 10.1456 166 11L166 6L162 7M187 6C186.147 8.60536 185.669 10.8397 184 13C184.339 16.0308 184.105 18.9545 184 22C179.828 23.35 178.586 27.1268 177 31L182 31C181.198 34.3678 181.01 37.5448 181 41L185 41C184.598 44.4926 183.883 46.9203 187 49C186.798 50.8499 186.798 52.1501 187 54C188.618 50.9354 188.657 48.3746 188 45C187.315 46.2483 187.251 46.5484 187 48C186.19 45.271 186.021 42.8495 186 40L182 40C182.114 36.4133 182.276 33.2383 186 32C185.817 23.7605 190.264 13.7776 187 6z"/>
<path style="fill:#597c8b; stroke:none;" d="M236 6L236 11C237.968 9.53618 238.352 8.39355 239 6L236 6z"/>
<path style="fill:#3a6370; stroke:none;" d="M239 6C237.81 9.97913 237.379 13.876 237 18L235 11C233.597 14.3499 234.172 17.5211 235 21C240.27 18.2682 242.366 10.9548 239 6z"/>
<path style="fill:#2c5561; stroke:none;" d="M105 8L107 21L111 21L110 12C111.801 12.5618 113.122 12.8241 115 13C112.554 11.3986 110.535 10.5358 109 8L105 8z"/>
<path style="fill:#194752; stroke:none;" d="M216 8L214 15L218 15C217.765 12.3086 217.393 10.311 216 8z"/>
<path style="fill:#3a6370; stroke:none;" d="M155 10C155.253 14.0176 155.815 17.0008 155 21C159.288 18.3743 158.533 14.5157 158 10L155 10M218 10C217.597 14.8873 215.323 19.153 215 24L219 20L218 33L222 34L222 28L220 29L220 25L223 27C224.126 23.9971 224.739 21.1974 225 18L222 19C222.279 15.8046 221.33 13.1368 221 10L218 10z"/>
<path style="fill:#2c5561; stroke:none;" d="M245.333 11.6667C245.278 11.7222 245.222 12.7778 245.667 12.3333C245.722 12.2777 245.778 11.2222 245.333 11.6667z"/>
<path style="fill:#3a6370; stroke:none;" d="M110 12C111.942 15.8428 113.758 18.5683 114 23C112.818 20.5703 112.27 18.6873 112 16C110.141 19.5393 109.118 22.9942 109 27C111.432 26.1167 112.751 24.4184 114 27C114.685 25.7516 114.749 25.4516 115 24L119 25C117.774 22.9653 117.297 22.6736 115 22C114.899 17.2749 114.573 14.0713 110 12z"/>
<path style="fill:#486c7a; stroke:none;" d="M200 12C197.138 15.7296 196.377 19.3666 197 24L200 21C199.864 17.9272 200.884 14.913 200 12z"/>
<path style="fill:#2c5561; stroke:none;" d="M253 12C251.912 16.8794 251.001 20.9169 251 26C252.005 23.85 252.53 21.8819 254 20C252.933 23.5774 252.684 27.3176 252 31L250 31C248.461 28.821 247.645 28.4266 245 28C245.026 31.1217 245.276 33.9605 246 37C246.779 35.2309 246.912 33.9641 247 32L249 37L251 37C254.097 28.91 255.994 20.6635 256 12L253 12z"/>
<path style="fill:#194752; stroke:none;" d="M183 13C183 17.5528 181.835 19.2404 180 23L184 22C184.259 18.5759 185.009 15.8836 183 13z"/>
<path style="fill:#486c7a; stroke:none;" d="M110 14L113 23C114.556 19.175 113.531 16.063 110 14z"/>
<path style="fill:#597c8b; stroke:none;" d="M218 17C220.124 16.1007 220.101 16.1236 221 14C218.876 14.8993 218.899 14.8764 218 17z"/>
<path style="fill:#194752; stroke:none;" d="M75 15C71.8281 21.5926 73.6582 32.5776 77 39C75.0159 41.6031 77.6196 43.6492 80 45C80.658 40.9444 80.029 37.9304 79 34C83.5197 31.0242 79.803 24.7585 80 20C78.4875 18.3473 77.8192 17.106 77 15L75 15z"/>
<path style="fill:#597c8b; stroke:none;" d="M155 15L155 18L157 18L157 15L155 15z"/>
<path style="fill:#7896a3; stroke:none;" d="M208 15L207 17L209 17C209 15.1467 209.3 15.6499 208 15z"/>
<path style="fill:#486c7a; stroke:none;" d="M207 17C209.046 17.7511 209.596 17.6556 211 16L207 17z"/>
<path style="fill:#194752; stroke:none;" d="M115 17L115 22C120.775 25.1842 120.553 35.6026 115 39C115.308 35.9814 115.407 33.9718 113 32C114.008 38.6374 112.617 43.0075 110 49L107 48C105.751 49.9167 104.64 51.4278 103 53C103.901 47.8805 101.584 43.9792 102 39L104 39C104.758 41.2332 105.747 42.9971 107 45C107.698 42.0296 106.511 40.5786 104 39C104.168 34.8174 101.056 32.2873 101 28L99 28C99.4025 25.4982 99.3585 23.5107 99 21C98.2211 22.769 98.0876 24.036 98 26C96.9745 23.1 96.5491 20.7907 94 19C93.9963 23.8436 92.108 28.3383 92.108 33C92.108 36.0666 93.6136 38.9651 94 42C96.9642 43.8589 96.6482 46.8155 99 49L94 51L94 45C92.2167 45.9802 92.4057 45.9076 92 48C83.9146 48.3726 88.6224 59.5019 83.2315 63.7083C80.7742 65.6257 77.0325 62.4423 75.0702 64.7986C73.5371 66.6396 75.1966 69.3041 76 71C72.3663 71.7869 71.0279 74.2191 68 76C69.1112 80.6674 68.5054 85.3367 69.375 90C70.5568 96.3376 73.468 102.554 73 109C77.6061 111.986 74.2983 118.108 80 120C81.4411 113.699 83.4718 107.466 84 101L87 101C87.5019 94.4402 93.5786 90.7591 95 84L101 85L101 81L104 82C103.906 79.7951 103.644 78.1059 103 76C105.906 73.5002 107.48 66.8453 108 63L116 65C116 57.9111 115.069 52.7163 113 46L120 45C120.056 37.6654 125.037 23.6855 116 21C115.826 19.3149 115.683 18.506 115 17z"/>
<path style="fill:#2c5561; stroke:none;" d="M158 17C157.064 18.9485 156.608 19.5502 155 21C155.776 23.1317 156.13 23.7708 158 25C158.353 22.1609 158.969 19.6978 158 17z"/>
<path style="fill:#194752; stroke:none;" d="M174 27C177.102 24.6707 177.825 20.6098 179 17C174.461 18.5063 174.79 22.7649 174 27z"/>
<path style="fill:#597c8b; stroke:none;" d="M222 17L222 19L224 19L224 17L222 17z"/>
<path style="fill:#2c5561; stroke:none;" d="M242 18C240.618 21.3095 239.437 24.433 239 28L243 28C244.109 24.8961 244.902 22.3231 245 19C243.263 19.062 243.36 19.02 242 18z"/>
<path style="fill:#194752; stroke:none;" d="M212 20C211.438 21.8005 211.176 23.1219 211 25L205 27C206.175 28.8794 206.131 29.7155 206 32C207.783 31.0198 207.594 31.0924 208 29C208.811 33.7119 207.722 36.9088 212 40C208.599 42.0853 208.127 44.0975 208 48C205.567 46.5381 204.823 45.712 204 43C201.246 44.6142 199.19 45.0974 196 45L197 48L201 47C201.321 49.4479 201.667 50.9403 203 53C201.203 53 201.479 53.0143 200 54C198.902 52.1604 199.17 52.4576 197 53C196.395 50.2325 195.711 50.4234 193 51C193.969 54.2168 196.03 56.3024 198 59L193 56L193 61C191.521 60.0143 191.797 60 190 60C190.545 58.3649 190.365 58.545 192 58C190.494 57.317 189.685 57.1741 188 57L189 63L184 63C184.569 60.0682 185.814 57.7172 187 55L184 56L187 49C184.664 46.4334 184.838 44.4163 185 41L181 41L181 37L178 38L180 41C177.147 41.9873 176.627 43.0639 176 46L169 46C170.953 43.2269 171.207 40.2743 172 37C170.203 37 170.479 37.0143 169 38C166.589 35.2416 163.278 36.0329 160 37C157.819 34.0208 154.599 37.553 152 39L153 43C162.492 39.0905 160.016 54.9583 161 60C159.428 60.8314 159.396 61.1728 159 63C163.376 62.692 165.346 61.4476 166 57C170.155 60.4099 166.767 62.38 165 66C169.727 65.3134 174.314 63.0066 177 59L178 66C183.911 67.542 184.103 71.5507 184 77L180 76C181.778 81.0793 181.259 91.3277 187 93C187.021 95.8495 187.19 98.271 188 101C185.339 98.028 184.115 95.8569 180 95C179.807 88.9485 176.308 83.8661 175 78L171 79C170.02 77.2167 170.092 77.4057 168 77C167.997 81.8087 168.287 86.2198 165 90C166.434 95.2576 168.684 100.076 171 105C167.21 104.503 164.844 103.409 163 100C161.805 100.598 162.023 100.466 161 102C158.487 98.3621 154.424 97.1325 152 93L150 93C147.99 98.0751 144.86 102.558 144 108L149 104L153 117L152 118C149.882 116.782 149.155 116.133 148 114C145.987 115.9 145.389 117.261 145 120C141.967 119.186 139.726 117.519 137 116L136 117C136.984 119.779 137.985 123.072 141 123L141 135C139.814 133.814 139.416 133.472 138 133C137.234 138.755 135.539 141.921 133 147C134.351 146.775 137.917 146.722 139 146C140.898 144.735 139.208 144.426 140 143C141.698 139.944 141.494 139.544 142 136L144 135C145.788 131.781 143.337 128.329 146 125L147 126C150.497 120.043 157.505 124.843 159 130C165.742 128.026 160.082 120.039 158 116C161.564 115.196 164.308 114.637 168 115C167.101 112.876 167.124 112.899 165 112L167 107L169 107C170.417 109.523 171.483 108.458 172 106C175.077 107.305 177.66 107.903 181 108L181 101L187 102L187 111C188.768 108.415 188.928 106.116 189 103C190.952 103.511 191.457 103.733 193 105C195.806 100.669 197.277 97.1095 198 92C196.805 90.7772 196.684 90.58 196 89L190 91C189.127 86.2999 189 81.7695 189 77C198.026 76.5055 199.348 67.9948 207 66C205.814 67.1863 205.472 67.5839 205 69L206 70C207.582 67.9434 207.826 66.6125 208 64C209.505 67.304 209.111 70.528 210 74C206.468 74 206.683 76.7304 206 74C202.453 79.42 194.727 87.4756 205 90C206.568 85.4763 209.363 81.9442 212 78L209 77C209.545 75.3649 209.365 75.545 211 75L210 71L214 71C211.934 66.3062 209.6 62.4588 205 60C208.366 55.076 210.67 51.0729 209 45C214.389 43.0361 215.901 38.5756 211 35L216 33L216 37C217.608 33.2143 218.725 28.1357 219 24C217.269 25.006 215.947 25.5465 214 26L214 20L212 20z"/>
<path style="fill:#3a6370; stroke:none;" d="M252 20C251.723 23.8674 249.82 27.1977 250 31L252 31L254 20L252 20z"/>
<path style="fill:#2c5561; stroke:none;" d="M196 21L196 28L198 28C197.765 25.3086 197.393 23.3111 196 21z"/>
<path style="fill:#0b3d44; stroke:none;" d="M255 21L253 33L256 33C256 29.0168 256.552 24.6975 255 21z"/>
<path style="fill:#194752; stroke:none;" d="M112 24L109 29C110.661 28.3872 111.483 27.9573 113 27C113.406 29.0924 113.217 29.0198 115 30L114 24L112 24z"/>
<path style="fill:#486c7a; stroke:none;" d="M115 24C114.552 27.9999 115.603 29.8556 118 33C119.625 29.1167 119.245 25.409 115 24z"/>
<path style="fill:#2c5561; stroke:none;" d="M147 25L148 31C148.874 28.9479 148.953 27.2528 149 25L147 25z"/>
<path style="fill:#658d9a; stroke:none;" d="M220 25L221 28C221.685 26.7516 221.749 26.4516 222 25L220 25z"/>
<path style="fill:#7896a3; stroke:none;" d="M220 26L220 29C220.696 27.4463 220.696 27.5537 220 26z"/>
<path style="fill:#2c5561; stroke:none;" d="M217 29L217 35C217.951 32.7147 217.951 31.2853 217 29z"/>
<path style="fill:#3a6370; stroke:none;" d="M115 30L115 39C120.205 37.4775 118.973 32.3166 115 30z"/>
<path style="fill:#597c8b; stroke:none;" d="M184 31C182.399 34.1507 181.875 35.947 185 38C184.981 35.4567 184.985 33.3315 184 31z"/>
<path style="fill:#3a6370; stroke:none;" d="M132 32L132 35L134 35L134 32L132 32M185 32L185 38L182 37C182.578 39.6974 183.261 39.7893 186 40L186 48C188.998 42.9931 187.114 37.5236 187 32L185 32z"/>
<path style="fill:#486c7a; stroke:none;" d="M247 32C247.083 34.9077 247.241 36.6921 249 39C249.069 36.1442 248.569 34.4005 247 32z"/>
<path style="fill:#194752; stroke:none;" d="M252 32L251 37C253.124 37.8993 253.101 37.8764 254 40C255.393 37.6889 255.765 35.6915 256 33L252 32z"/>
<path style="fill:#0b3d44; stroke:none;" d="M211 35C215.005 39.0371 213.75 42.3503 209 45C210.234 51.328 207.555 54.5772 205 60C208.983 63.1267 211.327 66.7683 214 71L210 71L211 75L209 75L209 77C210.479 77.9857 210.203 78 212 78C208.715 81.5971 206.053 85.1897 205 90C195.663 86.2583 202.883 82.0173 204.941 75.946C206.05 72.6747 205.811 69.2498 207 66C202.143 66.7118 201.259 69.7897 198.012 72.9606C196.282 74.6505 193.545 75.9796 192.689 78.3758C191.637 81.3202 192.974 85.8579 193 89L198 92C195.897 99.4098 194 105.181 194 113L190 113L190 117C184.709 114.054 186.996 107.313 187 102L181 101L181 108C177.799 107.796 175.051 106.953 172 106C171.022 108.158 170.812 108.501 169 107L167 107C166.066 108.723 165.465 110.106 165 112C166.457 113.103 166.897 113.543 168 115C164.12 114.317 161.675 114.699 158 116C159.674 120.609 164.319 126.617 159 130C158.364 126.007 156.993 124.636 153 124L154 133C148.689 136.265 147.397 142.736 143 147C143.215 150.203 141.89 154.585 144 157C142.694 159.625 142.472 161.113 143 164C132.197 167.764 132.705 182.957 142 188C140.521 188.986 140.797 189 139 189C138.999 193.644 139.481 197.591 136 201L137 205C135.521 204.014 135.797 204 134 204C133.125 208.101 134.034 210.379 136 214C133.997 215.734 134.077 217.355 134 220L130 220L130 224C125.674 220.401 125.829 215.888 120 214C120.986 212.521 121 212.797 121 211C114.318 210.707 114.311 204.321 113 199C119.483 194.7 118.228 179.204 115 173L110 173L112 186C110.227 187.651 110.548 188.589 111 191C107.31 192.172 104.905 195.077 101 196C100.114 200.821 99.5629 204.925 100.139 209.925C100.461 212.72 101.855 215.146 101.776 218.015C101.612 223.988 99.1967 231.951 105 236C100.775 238.781 102.31 241.658 107 242C105.777 243.195 105.58 243.316 104 244C105.289 248.067 105.964 251.729 106 256L138 256L137 250L134 251C135.593 248.665 137.046 246.663 138 244L136 245C135.557 242.785 135.987 240.688 137 239L138 240C137.275 235.606 137.678 231.42 138 227C145.382 231.111 149.548 235.075 147 244L152 242L151 238C153.798 240.244 154.045 241.62 153 245L157 245C157 241.637 157.716 238.796 154 238C155.246 235.602 155.187 234.65 153 233C153.481 230.799 153.481 230.201 153 228L147 230C148.186 228.814 148.528 228.416 149 227C145.168 224.738 146.245 222.28 145.164 218.424C143.627 212.939 140.607 209.234 146 205C144.817 200.03 145 195.081 145 190L150 189C149.953 194.222 148.648 197.535 146 202L150 202L148 206C152.902 205.21 155.768 201.476 161 201L158 203C159.943 204.567 161.579 205.403 164 206C164.731 199.673 161.812 192.422 161 186C164.072 187.661 165.202 189.625 166 193L170 193C169.232 191.686 169.314 191.768 168 191C170.486 185.673 172.268 179.853 171 174L172 173C173.479 173.986 173.203 174 175 174C175.387 168.977 177.876 167.433 182 165C182.114 168.505 182.825 170.28 185 173C182.216 173.058 179.709 173.352 177 174C177.906 178.898 178.438 183.046 175 187L176 191L174 191C174.554 195.441 173.05 199.53 173 204L177 204C176.625 207.173 176.385 209.849 177 213L171 212C172.65 213.971 173.927 215.672 175 218L181 217C182.131 211.555 186.24 209.333 191 207C189.695 211.615 189.749 215.379 191 220L188 221C190.867 221.945 193.148 220.886 196 220L195 216C198.583 215.914 202.286 215.686 204.566 212.467C207.688 208.06 206.345 201.892 201 201L201 195L205 195C204.998 198.885 206.155 200.346 210 201C210.657 205.853 212.816 211.309 217 214C215.86 216.358 214.659 218.468 214 221C219.888 221.375 225.035 223.595 229 228L225 227C225 229.351 224.348 228.935 222 229L222 232C217.121 232.839 216.843 236.584 214 240C214.805 244.315 214.548 248.21 219 250C218.014 251.479 218 251.203 218 253C222.952 250.278 224.348 242.529 221 238C223.887 235.492 226.216 233.759 230 233C230.098 236.323 230.891 238.896 232 242C230.521 241.014 230.797 241 229 241C230.225 243.271 230.491 243.591 233 244C234.714 251.294 235.733 255.902 244 256C244 250.446 244.626 245.046 242 240C241.315 241.248 241.251 241.548 241 243C239.022 236.765 237.506 231.537 238 225C232.411 221.992 232.25 214.823 232 209C233.186 210.036 233.604 210.339 235 211C234.632 206.789 233.302 203.002 232 199C238.573 202.853 238.661 210.727 247 211L247 205C248.686 205.218 249.316 205.224 251 205C251.902 206.923 252.076 206.999 254 208L250 209C249.483 213.091 249.513 217.687 247 221L249 231L245 229C245.77 233.802 247.586 235.999 252 238L249 244C251.066 247.08 250 252.324 250 256L256 256L256 190C252.895 191.794 252.178 195.335 249 197L250 200C248.072 200.186 245.363 201.568 243.529 200.539C237.627 197.229 237.569 186.599 241 182C242.736 183.382 243.834 182.703 246 182C245.829 176.476 248.016 170.815 249.173 165.424C249.821 162.402 251.32 159.379 249 157C249.986 155.521 250 155.797 250 154L247 155C249.566 152.018 253.144 149.658 254.713 145.946C256.689 141.271 255.041 135.911 255 131L252 131L253 123L256 123L256 87C253.417 90.4299 249.475 94.9077 248.197 99C247.367 101.656 248.731 104.333 248.856 107C249.013 110.317 248.143 113.679 248 117L244 116C240.754 120.515 240.357 123.55 241 129L238 129C237.563 123.989 235.367 119.088 236.265 114.001C236.835 110.764 238.75 107.987 240 105C236.262 102.814 239.716 92.2222 240 88C242.006 89.7422 243.483 91.1865 246 92L246 85L249 85C249.51 80.9633 249.989 77.08 250 73L244 76L242 87C239.795 81.7763 240.143 74.2647 235 71L236 67C233.488 67.3337 231.38 68.1456 229 69C228.856 64.1315 226.796 59.9071 227 55L222 56C221.594 53.9076 221.783 53.9803 220 53L221 49C217.417 50.5673 215.658 52.083 215 56C215.685 54.7515 215.749 54.4517 216 53C217.549 58.2901 216.045 63.5614 216 69C214.661 65.6453 215.063 63.4664 216 60C213.684 60.1594 212.972 59.8619 213 62C207.039 55.9118 215.888 51.6061 217.567 45.8958C218.893 41.3866 216.956 37.2894 216 33C214.04 33.4804 212.693 33.9377 211 35z"/>
<path style="fill:#486c7a; stroke:none;" d="M218 33C217.637 35.2318 217.637 36.7682 218 39L220 39L221 33L218 33z"/>
<path style="fill:#194752; stroke:none;" d="M52 37C50.9124 41.8794 50.0006 45.9169 50 51L53 51C53.1744 48.3875 53.4181 47.0567 55 45L54 37L52 37z"/>
<path style="fill:#3a6370; stroke:none;" d="M136 37C135.197 40.4999 134.944 42.9735 137 46C137.9 42.9592 137.992 40.1691 138 37L136 37z"/>
<path style="fill:#2c5561; stroke:none;" d="M220 37C219.455 38.6352 219.635 38.4549 218 39C218.7 42.3265 219.15 45.012 222 47C221.718 43.4805 221.654 40.157 220 37z"/>
<path style="fill:#0b3d44; stroke:none;" d="M249 47L244 47L244 44L240 44L241 47C235.706 50.0923 237.567 57.5872 238 63L233 64C235.223 65.2127 236.648 65.839 238 68C243.722 66.2848 248.228 58.3889 250.387 53C251.551 50.097 252.394 47.1764 250 45C251.847 44.7896 253.143 44.806 255 45C254.352 42.2908 254.058 39.7845 254 37C248.39 37.9363 249.004 42.1507 249 47z"/>
<path style="fill:#486c7a; stroke:none;" d="M255 37C254.471 39.9507 254.263 42.0968 255 45C256.161 42.2302 256.161 39.7699 255 37z"/>
<path style="fill:#2c5561; stroke:none;" d="M102 39C101.014 43.7558 103.488 48.0262 103 53C109.28 48.9524 106.717 44.3949 104 39L102 39z"/>
<path style="fill:#3a6370; stroke:none;" d="M201 40L201 45C203.122 43.5349 203.474 42.5431 204 40L201 40z"/>
<path style="fill:#486c7a; stroke:none;" d="M245 40L245 46C247.895 44.0733 247.82 42.0125 245 40z"/>
<path style="fill:#3a6370; stroke:none;" d="M156 57C162.917 54.9 160.738 47.4957 159 42C152.87 44.464 155.328 51.6827 156 57z"/>
<path style="fill:#2c5561; stroke:none;" d="M66 43L66 51L68 51L68 43L66 43z"/>
<path style="fill:#194752; stroke:none;" d="M250 44C251.751 45.2549 252.857 45.6137 255 46C254.635 51.6754 251.074 55.6129 250 61C255.876 57.2644 255.996 51.3989 256 45L250 44z"/>
<path style="fill:#2c5561; stroke:none;" d="M234 48L234 50C236.207 53.4893 233.903 56.3048 233 60C240.596 59.395 237.169 51.6661 240 46C237.67 46.3155 236.082 46.9022 234 48z"/>
<path style="fill:#3a6370; stroke:none;" d="M252 46L251 53C251.685 51.7515 251.749 51.4516 252 50C253.635 50.5451 253.455 50.3648 254 52C254.874 49.9479 254.953 48.2528 255 46L252 46M233 47C232.077 50.9253 231.425 54.4735 235 57C235.722 52.8968 235.657 50.3224 233 47z"/>
<path style="fill:#2c5561; stroke:none;" d="M157 48L157 53C157.83 50.9695 157.83 50.0305 157 48M180 50L180 55C181.84 53.2827 182.349 52.4344 183 50L180 50z"/>
<path style="fill:#597c8b; stroke:none;" d="M252 50L251 55C252.84 53.2827 253.349 52.4343 254 50L252 50M233 51L233 54L235 54L235 51L233 51z"/>
<path style="fill:#486c7a; stroke:none;" d="M185 52L184 56C186.035 54.7741 186.326 54.2974 187 52L185 52M250 53L249 57C251.132 56.2235 251.771 55.8698 253 54C251.263 54.062 251.36 54.02 250 53z"/>
<path style="fill:#3a6370; stroke:none;" d="M130 69C134.448 64.9075 133.999 59.652 134 54C128.214 56.3258 130 63.7017 130 69z"/>
<path style="fill:#0b3d44; stroke:none;" d="M255 54C253.826 56.9525 252.34 58.8533 250 61C250.559 63.3999 251.05 65.5377 251 68C253.235 70.1299 254.292 71.9943 255 75C257.153 69.8692 257.153 59.1308 255 54z"/>
<path style="fill:#2c5561; stroke:none;" d="M156 57C155.974 60.1217 155.724 62.9605 155 66C158.041 68.2592 159.46 70.5673 161 74C159.203 74 159.479 74.0143 158 75L157 70C154.438 74.8555 151.719 78.3876 153 84C157.125 82.8608 158.829 81.3641 158 77C159.723 77.9341 161.106 78.5354 163 79L163 85C163.779 83.2309 163.912 81.9641 164 80C166.296 82.2345 166.77 83.8017 167 87C169.005 82.2238 168.298 76.1086 168 71C166.352 74.5205 166.014 76.7821 162 78C162.725 73.7181 161.235 69.6546 164 66C164.417 68.517 167.541 68.3665 170 69C171.223 67.8048 171.42 67.6836 173 67C170.312 65.5516 168.02 65.7549 165 66C167.56 62.9141 170.145 59.7649 166 57C164.949 61.0203 163.08 62.4281 159 63C159.689 61.3121 159.676 60.9314 161 60L160 56L156 57z"/>
<path style="fill:#3a6370; stroke:none;" d="M248 56L245 62L250 62L251 57L248 56M185 57L184 63L189 63C188.737 59.5903 188.321 58.0989 185 57z"/>
<path style="fill:#2c5561; stroke:none;" d="M129 58L129 70C131.696 71.0588 134.189 72.2994 137 73C137.011 68.92 137.49 65.0367 138 61C136.203 61 136.479 61.0143 135 62L135 58L131 69C129.925 65.3633 130.453 61.4617 129 58M177 59C175.067 60.965 173.556 61.9678 171 63C172.458 64.0811 173.248 64.4361 175 65C173.816 68.8447 172.557 72.8919 170 76L171 79L175 78L175 82C175.99 79.4769 175.617 77.6417 175 75C178.207 77.211 177.142 80.3888 177 84L181 84L180 95C183.671 96.2859 185.074 98.8031 188 101C187.352 98.2908 187.058 95.7845 187 93C181.488 89.6611 182.747 81.4924 180 76L184 77L184 72L180 74L180 70L184 70C182.528 67.1855 181.122 66.4559 178 66C177.864 63.5529 177.813 61.2934 177 59M92 60C91.3562 62.1059 91.0941 63.7951 91 66L95 67C94.3521 69.7092 94.0583 72.2155 94 75L97 75L97 80C98.9252 76.3258 98.2208 72.3249 102 70C100.006 64.9779 96.1424 63.1249 92 60z"/>
<path style="fill:#486c7a; stroke:none;" d="M244 62C244.508 65.0132 245.159 65.873 248 67L249 62L244 62z"/>
<path style="fill:#3a6370; stroke:none;" d="M170 64C170.98 65.7833 170.908 65.5943 173 66C171.521 66.9857 171.797 67 170 67C171.248 67.6848 171.549 67.7488 173 68C172.014 69.4785 172 69.2032 172 71C174.08 69.3333 174.423 67.609 175 65L170 64M208 64C207.501 68.0928 206.12 71.8351 206 76L210 74C209.423 70.3926 210.195 67.0106 208 64M135 65C134.105 67.0417 133.464 68.8277 133 71C135.555 69.3502 136.098 67.8804 135 65z"/>
<path style="fill:#194752; stroke:none;" d="M44 66C43.9417 68.7844 43.6479 71.2908 43 74C47.1581 72.6063 46.4466 69.8841 46 66L44 66z"/>
<path style="fill:#3a6370; stroke:none;" d="M155 66L158 75L161 74C159.793 70.2192 158.615 67.8179 155 66z"/>
<path style="fill:#0b3d44; stroke:none;" d="M162 66L162 78C167.366 77.1046 167.342 72.5383 169 68C166.533 68 164.988 68.193 163 67L164 66L162 66z"/>
<path style="fill:#597c8b; stroke:none;" d="M169 73C171.317 71.6174 171.963 70.5134 173 68C170.036 68.9683 169.497 69.9339 169 73z"/>
<path style="fill:#194752; stroke:none;" d="M128 69C127.78 74.4848 127.685 77.427 131 82C131.951 79.4232 131.862 76.7576 132 74L137 74C134.204 71.8301 131.305 70.2607 128 69z"/>
<path style="fill:#3a6370; stroke:none;" d="M168 69C168.021 71.8495 168.19 74.271 169 77C171.179 75.4606 171.573 74.6445 172 72L169 73C168.826 71.3148 168.683 70.5061 168 69M180 70L180 74C182.68 73.2562 183.719 72.4714 185 70L180 70z"/>
<path style="fill:#2c5561; stroke:none;" d="M242 82C242.99 78.6499 242.998 75.486 243 72C237.837 73.7196 239.54 78.2713 242 82M225 84C220.077 85.4714 214.695 92.5614 219.602 97.3719C221.225 98.9632 223.906 98.8216 226 99L225 94C226.894 93.5354 228.277 92.9341 230 92C229.625 85.6656 231.277 79.007 229 73C224.111 74.9654 225.001 79.3602 225 84z"/>
<path style="fill:#3a6370; stroke:none;" d="M175 75L176 82C177.393 79.6889 177.765 77.6915 178 75L175 75z"/>
<path style="fill:#2c5561; stroke:none;" d="M80 77L81 84L85 84C84.9743 86.5173 85.3961 86.5222 88 87C87.3386 85.6036 87.0356 85.1864 86 84L89 83C87.7517 82.3152 87.4515 82.2512 86 82C85.6571 77.7032 84.327 76.4333 80 77M126 77C125.083 81.7666 125.661 88.2193 130 91C130.084 88.4066 130.712 85.9567 129 84L131 80C129.543 78.8966 129.103 78.4566 128 77L126 77M189 77L189 85L193 83L192 77L189 77z"/>
<path style="fill:#194752; stroke:none;" d="M223 77C221.812 80.7485 220.868 82.83 217 84L218 88L225 84L225 77L223 77z"/>
<path style="fill:#3a6370; stroke:none;" d="M164 80C163.669 83.6395 163.194 86.0471 160 88C160.018 94.361 160.298 99.652 167 102C166.914 97.8241 166.34 93.9574 165 90C167.927 87.442 167.02 83.45 166 80L164 80z"/>
<path style="fill:#2c5561; stroke:none;" d="M249 82L249 84C251.963 84.2888 252.876 84.0666 255 82C252.768 81.6372 251.232 81.6372 249 82z"/>
<path style="fill:#3a6370; stroke:none;" d="M255 81C252.998 83.2131 251.977 83.7406 249 84C247.829 87.9602 248 91.8871 248 96C253.7 94.1226 257.295 86.6297 255 81M86 84L88 87C84.9461 87.6544 85.0642 89.0066 85 92L89 93C91.0999 88.9639 92.157 83.3753 86 84z"/>
<path style="fill:#194752; stroke:none;" d="M111 83L109 95L114 92L111 83z"/>
<path style="fill:#3a6370; stroke:none;" d="M112 83C112.021 85.8495 112.19 88.271 113 91C114.561 88.397 114.862 86.022 115 83L112 83M190 83C189.181 86.8133 188.977 89.5842 193 91L193 83L190 83z"/>
<path style="fill:#2c5561; stroke:none;" d="M201 83C202.226 85.0347 202.703 85.3264 205 86L204 83L201 83z"/>
<path style="fill:#3a6370; stroke:none;" d="M177 84C177.437 86.8103 178.481 88.6001 180 91C180.985 88.6685 180.981 86.5434 181 84L177 84z"/>
<path style="fill:#194752; stroke:none;" d="M246 85L246 92L240 88L242 97C240.365 96.4549 240.545 96.6351 240 95C238.337 97.8872 235.855 104.129 240 105C236.941 110.113 236.005 114.056 236 120C238.469 118.876 240.295 118.826 243 119L244 116L248 117L248 112L245 112C244.968 108.439 243.672 104.487 244.139 101.015C244.928 95.1454 248.61 91.2196 246 85z"/>
<path style="fill:#2c5561; stroke:none;" d="M247 85C247 87.887 247.302 91.0191 246.526 93.8302C245.837 96.3292 243.981 98.3891 243.683 101.015C243.285 104.521 244.916 108.4 245 112L249 112C248.997 106.86 247.49 101.563 250 97C247.824 93.0868 248.657 88.9492 247 85M56 88L56 92C57.5671 91.3024 58.2858 91.1261 60 91C59.422 88.3026 58.7386 88.2107 56 88M171 89C172.103 91.2456 172.322 91.9084 171 94C174.275 95.2346 173.959 91.4989 174 89L171 89z"/>
<path style="fill:#194752; stroke:none;" d="M215 89C215.11 91.442 215.428 93.6229 216 96L211 95C209.212 96.4215 208.294 96.6974 206 97C206.791 98.761 206.962 98.5454 206 100C208.491 102.407 210.119 105.113 212 108L207 108L208 103C204.089 103.652 203.3 105.136 203 109L211 109L211 113C209.805 111.777 209.684 111.58 209 110C207.781 112.322 207.101 114.057 209 116C205.225 118.448 203.922 120.54 205 125C203.338 125.613 202.517 126.043 201 127C201.221 123.475 200.637 120.447 200 117C197.367 120.474 198.187 124.661 195 128C197.432 129.664 199.529 131.882 200 128C201.674 131.625 201.315 135.403 203 139L201 138C201.07 139.952 201.354 139.94 200 141C202.062 143.147 202.951 145.231 204 148C205.761 141.005 204.287 133.193 206 126C207.858 128.599 208.967 130.902 212 132C211.972 121.794 209.155 108.214 217 100L218 107C218.874 104.948 218.953 103.253 219 101L223 100C219.119 96.6718 218.06 94.0926 218 89L215 89z"/>
<path style="fill:#3a6370; stroke:none;" d="M57 90L54 97C55.7447 97.89 57.125 98.453 59 99C59.9709 95.6897 59.9709 93.3103 59 90L57 90M171 90L169 94L173 94L173 90L171 90M219 90C219.298 93.6506 219.246 95.7829 223 97L225 91L219 90z"/>
<path style="fill:#194752; stroke:none;" d="M31 91C30.5869 97.3522 22.6881 109.226 33 111C32.4465 104.314 33.9993 97.7325 34 91L31 91M60 91C60.0005 95.4441 61.2439 100.583 60.6327 104.91C60.2579 107.564 58.2199 109.496 57.5231 112.039C56.7458 114.877 57.3265 118.08 57 121C58.947 121.454 60.269 121.994 62 123C63.7981 120.164 66.4928 116.523 66.4807 113C66.4659 108.665 63.2327 103.995 61.9745 99.9105C61.0601 96.9415 61.2029 93.8402 60 91z"/>
<path style="fill:#3a6370; stroke:none;" d="M193 92L194 97L196 97L196 92L193 92z"/>
<path style="fill:#2c5561; stroke:none;" d="M239 92C239.526 94.5431 239.878 95.535 242 97C241.824 95.1218 241.562 93.8006 241 92L239 92M54 93C52.6902 97.5632 54.5407 101.326 54.3519 105.95C54.2442 108.584 52.7528 110.563 52 113L55 111L55 114C60.7715 109.986 61.1871 104.397 60 98C57.8024 97.9353 56.1169 97.6191 54 97L56 93L54 93M167 96L167 102L163 101C164.842 104.188 167.43 104.84 171 105C169.952 101.856 168.786 98.7899 167 96M216 100C213.958 102.806 213.445 105.577 213 109C216.102 109 215 112.367 215 115C216.774 113.226 215.344 108.761 217 106L218 107C217.652 104.428 217.222 102.283 216 100z"/>
<path style="fill:#194752; stroke:none;" d="M133 103C132.974 106.122 132.724 108.96 132 112C130.521 111.014 130.797 111 129 111C129.19 114.024 128.678 116.923 131 119L130 116C132.877 114.369 134.844 111.525 137 109C135.83 106.925 135.308 105.363 135 103L133 103z"/>
<path style="fill:#486c7a; stroke:none;" d="M189 103L187 115C188.968 113.536 189.352 112.394 190 110L193 111C193.924 106.697 193.763 103.827 189 103z"/>
<path style="fill:#194752; stroke:none;" d="M116 104C115.809 106.945 115.05 109.261 114 112C116.179 110.461 116.573 109.645 117 107L119 107C118.592 112.369 119.475 116.719 120 122L114 120C114.115 123.671 114.54 126.207 112 129C114.052 129.874 115.747 129.953 118 130C116.347 133.436 114.678 134.959 111 136C110.535 134.106 109.934 132.723 109 131C106.909 133.864 105.756 135.924 102 136L102 139C103.797 139 103.521 138.986 105 138L105 140C106.924 138.999 107.098 138.923 108 137L118 141C116.997 145.582 115.881 148.222 111 149C112.223 150.195 112.42 150.316 114 151C113.458 153.17 113.16 152.902 115 154L115 156C113.382 157.314 113.307 157.877 113 160C112.014 158.521 112 158.797 112 157C107.669 157.344 106.259 158.9 105 163C106.948 165.367 107.955 168.107 109 171C105.657 170.606 101.209 169.523 98.6782 172.515C95.9861 175.697 97.977 179.484 94 182C95.1429 186.02 98.354 189.769 98.6119 194.05C98.7706 196.686 97.3461 199.384 97 202C95.1433 201.806 93.8468 201.79 92 202C93.769 202.779 95.0359 202.912 97 203C93.9469 205.098 93.383 206.341 94 210C92.5215 209.014 92.7968 209 91 209C91 210.797 91.0143 210.521 92 212L94 212C95.2115 209.506 95.8976 207.748 96 205C96.9698 206.931 96.6486 208.668 97.3264 210.719C98.185 213.317 100.301 215.086 100.267 218.004C100.227 221.397 98.8714 224.494 99.0903 228C99.6772 237.4 101.994 246.514 102 256L106 256C105.988 251.67 105.696 248.019 104 244L107 244L107 242C103.882 241.054 101.709 239.322 105 237C100.377 230.031 102.105 224.763 101.907 217.039C101.834 214.216 100.428 211.751 100.2 208.961C99.8368 204.517 100.709 200.341 101 196C105.205 195.425 107.389 192.833 111 191C110.844 188.722 110.844 187.902 112 186L110 173C111.961 173.497 113.319 173.927 115 175C115.683 173.494 115.826 172.685 116 171L120 171C117.316 162.431 120.328 154.986 123 147L127 148L125 136C126.186 137.186 126.584 137.528 128 138C128.394 134.308 128.066 130.703 128 127C125.661 128.552 123.756 129.463 121 130C121.619 123.194 127.266 119.751 128 113L122 115L119 104L116 104z"/>
<path style="fill:#3a6370; stroke:none;" d="M147 104C143.083 110.347 144.853 115.323 152 118L153 117C152.12 112.347 150.92 108.33 149 104L147 104z"/>
<path style="fill:#2c5561; stroke:none;" d="M117 107C115.748 111.151 111.891 116.727 109 120L110 124C112.979 123.404 111.733 122.433 114 123C114 121.203 114.014 121.478 115 120C116.856 121.048 117.944 121.513 120 122C119.741 116.885 118.824 112.171 119 107L117 107z"/>
<path style="fill:#486c7a; stroke:none;" d="M214 108C211.275 111.891 212.249 116.423 212 121C216.017 118.396 215.732 112.128 214 108z"/>
<path style="fill:#2c5561; stroke:none;" d="M193 109C191.802 110.245 191.866 110.074 190 110C189.181 112.106 188.512 113.347 187 115L187 111C185.759 114.264 186.769 115.93 190 117L190 113L194 113C193.826 111.315 193.683 110.506 193 109z"/>
<path style="fill:#3a6370; stroke:none;" d="M53 111C53 117.845 52.5623 123.863 56 130C59.3108 127.755 60.1127 124.812 61 121L57 121C58.0504 116.885 56.7688 113.175 53 111z"/>
<path style="fill:#194752; stroke:none;" d="M31 119L24 124C24.6004 131.529 26.2633 137.855 34 140C34.2526 136.935 34.6891 134.149 36.2245 131.425C37.819 128.597 40.8679 125.579 40.6065 122.084C40.1166 115.535 29.6249 108.411 31 119M215 115C215.056 121.666 216.439 128.333 217 135C220.845 129.372 217.991 120.583 215 115z"/>
<path style="fill:#3a6370; stroke:none;" d="M211 116C211.052 120.706 213.211 124.459 213.606 129.004C214.003 133.566 212.661 137.459 214 142L216 142C218.056 135.044 217.165 126.831 215 120L212 121C212.156 118.722 212.156 117.902 211 116z"/>
<path style="fill:#194752; stroke:none;" d="M52 117L52 125C53.1614 122.23 53.1614 119.77 52 117z"/>
<path style="fill:#3a6370; stroke:none;" d="M127 117C124.137 121.73 121.271 124.182 121 130C127.463 129.262 126.663 125.327 130 121L129 117L127 117z"/>
<path style="fill:#2c5561; stroke:none;" d="M200 117C200.176 118.878 200.438 120.199 201 122C201.779 120.231 201.912 118.964 202 117L200 117z"/>
<path style="fill:#3a6370; stroke:none;" d="M180 118C180.524 121.175 180.524 123.825 180 127L184 128L186 120C183.958 119.105 182.172 118.464 180 118z"/>
<path style="fill:#2c5561; stroke:none;" d="M237 118C236.415 121.876 237.44 125.175 238 129L241 129C240.744 124.617 241.772 119.598 237 118M130 119C128.268 122.353 127.567 124.777 131 127C130.993 124.165 131.098 121.613 130 119M92 121L92 124L94 124L94 121L92 121z"/>
<path style="fill:#3a6370; stroke:none;" d="M106 121L105 125C108.71 125.335 111.595 126.609 115 128C114.603 125.699 114.043 124.095 113 122C111.805 122.598 112.023 122.466 111 124C109.326 122.589 108.031 121.825 106 121z"/>
<path style="fill:#2c5561; stroke:none;" d="M133 147C133.703 150.814 133.445 152.981 130 155L129 160C128.804 157.174 129.167 154.911 127 153C127.648 150.291 127.942 147.784 128 145L132 146C132.962 142.621 133.674 139.661 136 137L136 143C137.902 139.812 137.725 136.616 138 133C139.186 134.186 139.584 134.528 141 135C141.435 131.043 141.003 127 141 123L137 124C137.5 127.895 136.838 129.785 133 131C133 132.797 133.014 132.521 134 134C130.947 134.837 128.703 134.718 128 138C126.814 136.814 126.416 136.472 125 136C125.509 140.02 126.051 144.059 127 148L123 147C122.045 148.767 121.434 149.607 120 151C122.291 154.741 123.812 158.228 121 162L121 168C119.365 167.455 119.545 167.635 119 166L118 171L122 175L123 165C124.555 167.194 125.494 168.047 128 169C128.117 166.27 128.499 163.686 129 161L132 161C133.398 166.609 134.995 171.12 135 177C137.411 171.31 136.775 167.309 143 164C142.824 161.371 143.171 159.494 144 157C142.188 154.279 143.362 150.253 143 147C148.067 143.747 149.49 137.072 154 133C153.84 130.748 153.662 119.726 148.61 123.137C146.712 124.418 147.148 127.972 146.379 129.907C145.541 132.013 143.844 133.526 142.824 135.514C139.885 141.241 139.803 144.844 133 147z"/>
<path style="fill:#486c7a; stroke:none;" d="M182 122L182 125C183.195 123.777 183.316 123.58 184 122L182 122z"/>
<path style="fill:#2c5561; stroke:none;" d="M211 123C211.724 126.04 211.974 128.878 212 132C202.33 132.317 203.636 141.568 205 149C207.727 148.456 209.639 147.465 212 146C213.001 147.924 213.077 148.098 215 149L214 146C215.635 146.545 215.455 146.365 216 148C217.393 145.689 217.765 143.691 218 141L214 142C212.616 136.118 216.172 127.183 211 123z"/>
<path style="fill:#3a6370; stroke:none;" d="M253 123L252 131C255.178 128.995 255.754 126.666 256 123L253 123z"/>
<path style="fill:#2c5561; stroke:none;" d="M106 125L106 127C108.945 127.191 111.261 127.95 114 129C111.894 125.904 109.666 125.335 106 125z"/>
<path style="fill:#0b3d44; stroke:none;" d="M145 125C144.352 127.709 144.058 130.216 144 133C146.644 131.192 147.253 129.082 148 126L145 125z"/>
<path style="fill:#2c5561; stroke:none;" d="M179 125L180 134C181.797 134 181.522 133.986 183 133C183.046 131.023 183.255 129.823 184 128L179 125M59 126C57.9387 128.205 57.468 128.835 55 129C56.4658 134.784 55.7388 137.353 52 142C55.3486 144.248 56.1098 145.985 56 150C59.294 145.976 58.9967 141.002 59 136L62 136C62.4176 138.689 62.7173 139.554 65 141C64.4855 136.215 65.7006 131.952 60 131C59.9124 129.036 59.7789 127.769 59 126z"/>
<path style="fill:#3a6370; stroke:none;" d="M206 126C205.278 128.418 205.052 130.472 205 133L209 132C208.469 129.31 207.884 127.98 206 126z"/>
<path style="fill:#2c5561; stroke:none;" d="M102 128C101.697 130.294 101.422 131.211 100 133L101 140L98 139L99 144C102.538 142.001 102.364 139.848 102 136C103.85 136.202 105.15 136.202 107 136L102 128z"/>
<path style="fill:#486c7a; stroke:none;" d="M103 128C103.334 130.512 104.146 132.62 105 135C108.914 132.378 106.857 129.219 103 128z"/>
<path style="fill:#194752; stroke:none;" d="M255 128C254.384 131.638 254.97 135.293 255 139C256.431 135.59 256.431 131.41 255 128M56 133C53.3212 135.237 51.3251 137.355 49 140L50 151C51.057 148.488 50.758 145.632 51.9877 143.17C53.8323 139.475 57.4465 137.455 56 133z"/>
<path style="fill:#3a6370; stroke:none;" d="M206 134L206 141C209.086 138.941 208.913 136.227 206 134z"/>
<path style="fill:#2c5561; stroke:none;" d="M154 135C152.944 140.67 150.39 146.37 150 152C158.478 149.583 157.563 142.139 157 135L154 135z"/>
<path style="fill:#194752; stroke:none;" d="M59 136C58.9819 142.546 58.0955 150.704 54 156C55.7934 162.127 56.2236 167.243 53 173C54.6922 175.992 51.7247 177.527 49 178C49.0227 186.581 45.8299 192.488 46 201C43.7511 199.846 43.1535 199.249 42 197C40.3997 198.857 38.9565 200.515 37 202C36.422 199.303 35.7386 199.211 33 199C33.4057 201.092 33.2167 201.02 35 202C31.6431 207.33 40.2983 206.162 44 208L49 201C47.9319 197.631 47.1617 194.539 47 191C53.6039 193.535 51.2909 201.223 52.1667 206.972C52.6836 210.366 54.9565 212.253 55 216C55.0451 219.888 53.3864 226.011 58 227L57 223L61 224C60.0716 218.763 60.1192 214.923 65 212C66.5135 216.153 69.6153 224.014 68 228L69 232L74 232C74.2711 240.558 79.0934 247.108 78 256L82 256C81.5606 253.393 80.4673 250.662 80.6644 248C81.2805 239.674 85.9221 224.114 75 221C73.8966 222.457 73.4566 222.897 72 224C72.8993 218.604 78.5858 214.414 82 211L82 213C82.7206 210.284 81.3707 209.236 79 208C78.1007 210.124 78.1236 210.101 76 211C76 212.797 76.0143 212.521 77 214C74.3025 214.578 74.2107 215.261 74 218C70.936 212.619 69.4273 207.704 63 206C58.595 211.15 59 215.41 59 222C54.7773 217.493 56 210.815 56 205C57.4785 205.986 57.2032 206 59 206L60 201C62.8631 201.562 65.1234 201.476 68 201C68.8781 203.018 69.6515 204.232 71 206C73.8979 203.443 76.8687 200.22 79 197L81 197C81.7679 198.314 81.6858 198.232 83 199L82 195L78 196L78 191C81.1964 192.408 83.4573 194.484 87 195L87 202C87.8742 199.948 87.9528 198.253 88 196L92 197C92.5102 192.963 92.9887 189.08 93 185L90 188C90.6589 180.444 91.4223 174.634 90 167L96 168C96.3904 165.779 96.3354 164.246 96 162C102.577 163.773 101.809 159.137 105 155L105 153C101.402 149.508 102.489 146.601 103 142C100.753 142.468 100.426 142.688 99 141C97.2565 142.628 96.6169 143.697 96 146C93.3926 145.564 91.5706 145.437 89 146L90 150C92.3604 148.687 94.3907 147.659 97 147C97.147 153.08 94.3233 158.023 90 151C89.2211 152.769 89.0876 154.036 89 156L83 157C84.314 158.618 84.8772 158.693 87 159C87.0051 166.678 94.2877 179.418 83 181C82.3632 176.271 81.0997 171.804 81 167C78.9593 170.487 75.3 173.378 74 177L70 177C70.2926 174.867 70.4904 174.426 69 173C71.0783 169.471 69.2378 164.289 70 160C67.1944 159.598 64.8056 159.598 62 160L62 153L64 153L64 157L67 154L67 152C65.2813 149.115 66.3314 146.291 65.3318 143.17C64.5089 140.6 62.7427 138.645 62 136L59 136z"/>
<path style="fill:#486c7a; stroke:none;" d="M100 137C99.0143 138.479 99 138.203 99 140C100.766 139.021 100.955 138.778 100 137z"/>
<path style="fill:#0b3d44; stroke:none;" d="M108 137L105 140L105 138L102 139C103.238 144.228 99.4408 149.788 105 153L105 155C101.153 158.305 102.676 163.113 96 162L96 168L90 167C90.9432 174.456 90.3372 180.603 90 188C92.8094 186.379 94.0109 183.442 97 182C98.0534 173.339 99.9594 170.48 109 171C108.289 167.986 107.417 164.968 105 163C106.546 159.601 109.098 155.642 112 160L115 156L115 154L113 154L114 151L111 150C115.923 148.114 117.272 146.25 118 141C114.601 139.608 111.613 137.873 108 137z"/>
<path style="fill:#486c7a; stroke:none;" d="M134 137L132 146L128 145C127.883 147.73 127.501 150.314 127 153C128.709 155.438 128.469 157.059 128 160C129.422 158.211 129.697 157.294 130 155C134.956 153.257 135.941 141.985 136 137L134 137z"/>
<path style="fill:#194752; stroke:none;" d="M152 138L146 148C149.631 150.389 148.439 153.099 145 155C145.245 158.489 145.837 160.343 149 162C149.899 159.876 149.876 159.899 152 159C151.232 157.686 151.314 157.768 150 157L152 153C149.266 147.773 154.282 143.49 152 138M81 140C82.0089 142.198 82.1597 143.58 82 146C85.4644 145.022 86.4825 143.526 87 140L81 140z"/>
<path style="fill:#2c5561; stroke:none;" d="M8 141C6.20622 146.48 4.04308 151.177 5 157L11 156C9.77262 150.857 10.8253 146.132 10 141L8 141z"/>
<path style="fill:#3a6370; stroke:none;" d="M51 142C50.9789 149.648 50.9555 157.433 50 165C52.4034 162.237 52.8324 159.622 53 156L56 156C56.0497 149.914 58.1812 144.01 51 142z"/>
<path style="fill:#194752; stroke:none;" d="M11 144C9.68602 148.547 9.21649 151.519 11 156C8.04778 156 5.42999 157.332 5 154L2 156C5.06876 161.518 3.47123 167.029 3 173C7.75035 170.077 7.82602 165.024 11 161L10 158L14 158C11.9495 154.285 12.0789 152.106 15 149C13.7516 148.315 13.4516 148.251 12 148L13 144L11 144z"/>
<path style="fill:#2c5561; stroke:none;" d="M255 144C253.364 148.785 249.068 150.764 247 155C248.797 155 248.521 154.986 250 154L249 157C251.647 162.407 245.347 168.331 254 169C253.428 173.079 252.02 174.949 248 176C248.466 179.94 247.715 184.483 251 187C252.294 184.796 254.957 183.266 255.683 180.776C256.635 177.513 256 173.369 256 170C256 162.256 258.004 151.159 255 144M165 146C164.345 149.579 164.181 152.438 165 156C166.836 152.54 167.223 149.311 165 146M97 147C95.7055 147.202 94.2292 147.171 93.1181 148.028C86.8918 152.831 96.4965 160.064 97.3465 151.04C97.465 149.781 97.1265 148.238 97 147z"/>
<path style="fill:#7896a3; stroke:none;" d="M129.333 147.667C129.278 147.722 129.222 148.778 129.667 148.333C129.722 148.278 129.778 147.222 129.333 147.667z"/>
<path style="fill:#597c8b; stroke:none;" d="M139 147L139 151L141 151L141 147L139 147z"/>
<path style="fill:#3a6370; stroke:none;" d="M243 151C244.923 150.098 244.999 149.924 246 148C243.876 148.899 243.899 148.876 243 151z"/>
<path style="fill:#2c5561; stroke:none;" d="M42 164C43.3572 161.252 44.1077 158.391 46 156L46 150C39.7992 151.747 38.5921 159.01 42 164z"/>
<path style="fill:#3a6370; stroke:none;" d="M120 152C120.438 154.743 120.779 156.325 123 158C122.562 155.257 122.221 153.675 120 152z"/>
<path style="fill:#194752; stroke:none;" d="M24 154C24.6128 155.661 25.0427 156.483 26 158C24.0799 159.297 23.6839 159.791 23 162L28 160C27.3646 156.956 26.6139 155.684 24 154z"/>
<path style="fill:#486c7a; stroke:none;" d="M137 154C138.229 155.87 138.868 156.224 141 157C140.422 154.303 139.739 154.211 137 154M164 154C162.997 156.667 162.379 159.175 162 162C164.204 159.445 165.227 157.245 164 154M119 155C119.437 157.81 120.481 159.6 122 162C123.337 158.954 121.746 156.586 119 155z"/>
<path style="fill:#2c5561; stroke:none;" d="M53 156C52.8383 159.206 52.6729 163.465 49 164L48 168L54 167C52.0522 169.724 51.322 172.913 50 176C48.4571 173.959 47.6135 172.475 47 170C45.908 172.527 45.6515 175.302 45 178C46.2667 179.543 46.4892 180.048 47 182C45.5215 181.014 45.7968 181 44 181C44.9391 183.637 45.5797 184.618 48 186C48.5008 183.314 48.8826 180.73 49 178C50.4785 178.986 50.2032 179 52 179C53.2455 176.807 54.7421 175.049 53 173C56.7316 167.76 57.2519 161.02 53 156M162 156C160.627 161.768 160.467 168.081 160 174L162 174C163.188 168.193 163.774 161.746 162 156M240 156C240.026 159.122 240.276 161.96 241 165C246.546 163.159 245.482 156.952 240 156z"/>
<path style="fill:#3a6370; stroke:none;" d="M241 158L241 161L244 161L244 158L241 158z"/>
<path style="fill:#486c7a; stroke:none;" d="M5 159L5 165C6.59445 162.562 6.66357 161.383 5 159z"/>
<path style="fill:#3a6370; stroke:none;" d="M81 159C81.3797 165.406 81.1916 171.603 82 178C83.1954 177.402 82.9774 177.534 84 176C84.9833 178.95 85.4869 179.622 83 179C85.7484 182.136 89.4503 179.808 89.848 175.906C90.4083 170.409 87.0165 164.764 87 159L81 159M118.333 159.667C118.278 159.722 118.222 160.778 118.667 160.333C118.722 160.278 118.778 159.222 118.333 159.667z"/>
<path style="fill:#597c8b; stroke:none;" d="M119 159C119.524 162.175 119.524 164.825 119 168C122.399 165.552 122.5 161.344 119 159M138 159L138 161L140 161L140 159L138 159z"/>
<path style="fill:#194752; stroke:none;" d="M164 159C164.189 164.365 162.638 168.785 162 174L160 174C160.467 170.305 160.969 166.735 161 163C155.981 168.149 155.769 178.209 164 180C164.145 175.016 165.373 169.521 169 166C167.802 163.017 166.475 161.056 164 159z"/>
<path style="fill:#3a6370; stroke:none;" d="M163 160C162.254 162.946 161.803 164.311 165 165C164.52 163.04 164.062 161.693 163 160z"/>
<path style="fill:#486c7a; stroke:none;" d="M119.333 161.667C119.278 161.722 119.222 162.778 119.667 162.333C119.722 162.278 119.778 161.222 119.333 161.667M129 161C128.141 164.615 127.953 167.424 129 171C130.31 169.69 130.648 166.254 132 164L133 165L132 161L129 161z"/>
<path style="fill:#194752; stroke:none;" d="M20 162C17.9465 167.904 20.3273 172.18 17 178C25.4995 176.648 25.4893 167.001 20 162M40 162C38.5408 164.306 37.4007 165.715 35 167C35.6798 170.211 37.5292 172.161 39 175C40.5874 172.245 39.0334 167.581 43 167C42.1986 164.896 41.5034 163.663 40 162z"/>
<path style="fill:#658d9a; stroke:none;" d="M83 162L83 165L86 165L86 162L83 162z"/>
<path style="fill:#2c5561; stroke:none;" d="M17 163C12.0671 168.32 4.30877 183.536 15 187L16 183L11 183L11 177C12.9911 178.788 14.7463 180.539 17 182C19.0122 174.115 21.0347 170.667 17 163z"/>
<path style="fill:#597c8b; stroke:none;" d="M131 164C130.332 167.608 129.98 170.449 131 174L133 174C133.481 171.799 133.481 171.201 133 169C134.835 166.826 132.955 165.607 131 164z"/>
<path style="fill:#194752; stroke:none;" d="M123 165C120.825 170.433 122.949 175.321 123 181C135.201 182.892 127.327 169.637 123 165M180 165C178.217 166.701 176.356 167.948 175 170C177.905 170.101 178.565 170.476 180 173L185 173C184.02 171.217 184.092 171.406 182 171L182 165L180 165z"/>
<path style="fill:#3a6370; stroke:none;" d="M50 167L51 173L48 170C47.0503 172.723 47.9591 174.062 50 176C51.4674 173.315 52.1425 170.4 54 168C52.494 167.317 51.6852 167.174 50 167z"/>
<path style="fill:#194752; stroke:none;" d="M229 167C229.315 169.33 229.902 170.918 231 173C232.063 171.031 232.532 169.202 233 167L229 167z"/>
<path style="fill:#486c7a; stroke:none;" d="M48 168C48.4266 170.645 48.8209 171.461 51 173L51 168L48 168z"/>
<path style="fill:#3a6370; stroke:none;" d="M133 169C132.933 175.325 126.81 187.305 137 189C136.071 186.05 134.839 183.116 134.613 180C134.331 176.121 136.223 171.817 133 169z"/>
<path style="fill:#2c5561; stroke:none;" d="M176.603 170.157C174.87 171.314 176.664 174.001 178.397 172.843C180.13 171.686 178.336 168.999 176.603 170.157z"/>
<path style="fill:#194752; stroke:none;" d="M249 169C247.294 173.479 245.211 177.093 246 182L242 183C243.45 184.608 244.051 185.064 246 186C244.797 189.098 245.05 191.713 245 195L242 195C241.518 192.636 241.364 192.482 239 192C239.969 195.015 240.892 201.299 245.003 201.438C246.633 201.492 248.418 200.353 250 200C250 198.203 249.986 198.479 249 197C254.432 195.842 256 187.812 256 183C253.115 183.711 251.839 184.115 251 187C249.521 186.014 249.797 186 248 186C248.819 182.438 248.655 179.579 248 176C252.448 175.346 253.692 173.376 254 169L249 169z"/>
<path style="fill:#2c5561; stroke:none;" d="M128 170L130 188L132 188C131.543 182.213 132.089 174.364 128 170M66 171L66 175L68 175L68 171L66 171z"/>
<path style="fill:#3a6370; stroke:none;" d="M116 171C116.588 174.403 117.649 175.272 121 176C119.897 177.457 119.457 177.897 118 179C118.348 185.42 117.655 194.335 113 199L115 209C124.264 206.01 122.541 192.336 122.218 184.961C122.074 181.66 123.576 178.335 122.138 175.133C120.934 172.454 118.6 171.712 116 171z"/>
<path style="fill:#2c5561; stroke:none;" d="M228 171L228 176L231 176L231 171L228 171M36 172L36 177L40 177L39 172L36 172z"/>
<path style="fill:#194752; stroke:none;" d="M172 173L171 174L172 177C181.369 177.432 171.411 186.904 176 191L175 187C179.406 183.646 178.13 177.425 176 173L172 173z"/>
<path style="fill:#0b3d44; stroke:none;" d="M77 175C77.7807 177.943 78.3954 179.421 81 181L81 175L77 175z"/>
<path style="fill:#2c5561; stroke:none;" d="M102 175L101 184L109 186C108.032 183.052 106.859 182.184 104 181C105.742 178.994 107.187 177.517 108 175L102 175z"/>
<path style="fill:#194752; stroke:none;" d="M117 175L117 186C118.68 182.416 118.68 178.584 117 175M152 188C151.234 184.297 150.393 180.96 147 179L147 177C148.314 176.232 148.232 176.314 149 175C143.295 175.657 140.233 181.734 144.934 186.397C146.8 188.246 149.59 187.971 152 188z"/>
<path style="fill:#597c8b; stroke:none;" d="M83 176L84 180C84.553 177.992 84.303 177.668 83 176M118 179C120.124 178.101 120.101 178.124 121 176C118.636 176.482 118.482 176.636 118 179z"/>
<path style="fill:#486c7a; stroke:none;" d="M172 186C173.52 183.762 173.618 181.697 174 179L175 183L177 183C176.94 181.173 175.13 173.248 172.599 178.337C171.526 180.494 172.002 183.666 172 186M11 177L11 183L16 183C14.8496 180.334 13.533 178.437 11 177M44 178C44.6839 180.209 45.0799 180.703 47 182L47 178L44 178z"/>
<path style="fill:#3a6370; stroke:none;" d="M70 178L70 182C71.3508 180.598 72.2543 179.824 74 179C74 182.261 74.1434 182.536 72 182L72 189C76.2884 186.293 75.8324 182.568 75 178L70 178M104 181L109 183L109 178C106.355 178.427 105.539 178.821 104 181z"/>
<path style="fill:#2c5561; stroke:none;" d="M171 178L171 185C172.059 182.466 172.059 180.534 171 178z"/>
<path style="fill:#486c7a; stroke:none;" d="M71 179C71.6839 181.209 72.0799 181.703 74 183L74 179L71 179z"/>
<path style="fill:#3a6370; stroke:none;" d="M174 179C173.481 181.337 173.52 182.64 174 185L171 185C171.026 188.122 171.276 190.96 172 194C174.602 189.691 176.401 183.653 174 179z"/>
<path style="fill:#194752; stroke:none;" d="M217 179L217 181C220.252 181.167 222.946 181.886 226 183C224.544 178.613 221.15 179.015 217 179M0 180L0 214L5 211L4 205C7.089 204.338 6.92103 202.052 9 200L9 198C7.18312 195.794 6.60617 193.802 6 191C4.12184 191.176 2.80057 191.438 1 192C1.54505 190.365 1.36484 190.545 3 190C1.60517 186.629 1.59817 183.599 2 180L0 180z"/>
<path style="fill:#0b3d44; stroke:none;" d="M122 181C124.101 189.677 123.181 196.253 123 205C126.175 204.476 128.825 204.476 132 205C132.625 201.637 132.972 198.422 133 195L130 197C130.155 189.237 131.808 181.898 122 181z"/>
<path style="fill:#3a6370; stroke:none;" d="M217 181C217.193 186.908 219.344 188.42 225 189C224.738 186.572 224.738 184.428 225 182C222.291 181.352 219.784 181.058 217 181z"/>
<path style="fill:#2c5561; stroke:none;" d="M122 182L122 189C123.059 186.466 123.059 184.534 122 182M135 182C135.322 184.584 135.973 186.602 137 189C133.418 189.568 132.057 190.508 131 194L134 193L134 201C140.946 199.841 137.783 192.418 142 188L135 182M240 182C238.246 185.371 238.013 188.235 238 192C240.297 192.674 240.774 192.965 242 195L245 195C245.276 191.903 245.136 189.006 246 186L240 182z"/>
<path style="fill:#3a6370; stroke:none;" d="M44 183C44.6517 186.911 46.1356 187.7 50 188L49 183C48.3152 184.248 48.2512 184.548 48 186L44 183M101 184L101 189L106 189L106 184L101 184M93 185L92 197L88 196L88 201L91 200C89.965 202.314 89.0142 203.454 87 205L88 202C85.3563 203.864 85.1728 205.83 85 209C90.586 208.555 91.3132 205.067 92 200C98.1025 199.571 101.498 193.636 94 192L94 186C95.1863 187.186 95.5279 187.584 96 189C96.6147 186.346 95.4669 185.791 93 185z"/>
<path style="fill:#194752; stroke:none;" d="M170 185C169.086 188.159 168.651 189.954 170 193L166 193C165.509 189.407 164.542 187.176 161 186C161.53 192.716 163.851 199.332 164 206C161.862 205.176 159.986 204.153 158 203L161 202C155.588 199.891 152.812 204.615 148 206L150 202L146 202C148.126 199.348 149.339 197.333 150 194L146 197L146 193C144.403 196.805 144.848 201.102 146 205C142.837 206.657 142.245 208.511 142 212C144.075 210.83 145.637 210.308 148 210C147.069 212.741 146.181 214.104 144 216C145.39 220.204 144.284 225.34 149 227C147.814 228.186 147.472 228.584 147 230L153 228C153.202 229.85 153.202 231.15 153 233C154.364 234.567 155.151 235.231 154 237C156.415 239.529 156.889 241.536 157 245L153 245C154.692 241.596 154.468 239.814 151 238L152 242C150.106 242.465 148.723 243.066 147 244C150.521 235.538 145.691 230.053 138 227C137.075 231.359 136.996 235.644 138 240C135.497 240.415 135.497 243.585 138 244L134 251C135.797 251 135.521 250.986 137 250L138 256L162 256C161.628 252.619 159.89 250.14 159.158 246.91C158.501 244.012 159.069 240.944 158.708 238C158.216 233.998 156.867 230.09 157.069 226.015C157.247 222.446 159.313 219.46 160 216L154 219L153 213C154.186 214.186 154.584 214.528 156 215C157.07 211.658 157.977 209.833 161 208C161.056 212.801 163.228 216.404 163.856 221C164.653 226.824 164 233.124 164 239L168 239L167 235L170 235C169.168 231.819 167.04 229.713 165.942 226.715C164.974 224.07 165.548 220.796 165 218L169 219C170.223 217.805 170.42 217.684 172 217C172.562 220.025 172.936 222.922 173 226C173.779 224.231 173.912 222.964 174 221C175.58 221.684 175.777 221.805 177 223L180 220C179.014 221.479 179 221.203 179 223C182.946 220.19 183.387 215.532 188 213C186.701 217.382 185.6 222.463 185 227C183.814 225.814 183.416 225.472 182 225C181.333 231.352 182.683 236.436 180 242L184 241L184 237C187.368 237.802 190.545 237.99 194 238C193.151 236.009 192.733 235.222 191 234L191 232C193.382 231.082 195.461 230.324 198 230L198 226C202.252 227.123 204.293 228.552 205 233L211 232C211.309 239.172 212.148 245.779 212 253C207.629 250.3 205.06 246.055 202 242C201.089 243.377 200.596 244.44 200 246L203 246C200.136 249.559 197.303 249.137 193 249C192.654 244.813 192.298 241.413 188 240C188.555 241.804 188.834 243.127 189 245L191 245L189 256L237 256L233 244C230.789 243.416 230.354 242.896 229 241L232 242C231.275 238.918 230.208 236.2 230 233C225.93 233.454 223.585 234.837 221 238C223.488 243.39 222.631 249.167 218 253L219 250C215.027 247.563 215.035 244.281 214 240C217.34 237.341 217.466 233.419 222 232L222 229C224.316 228.841 225.028 229.138 225 227L229 228C225.89 222.781 219.793 221.168 214 221C215.181 218.076 216.35 216.173 216 213C213.704 215.584 212.161 218.533 212 222L209 221C209.986 219.521 210 219.797 210 218C207.46 215.516 207.112 213.524 207 210C203.055 213.382 200.371 215.709 195 216L196 220L188 222L191 220C190.088 215.366 190.489 211.647 191 207C185.712 208.74 181.665 211.204 181 217L175 218C174.188 215.218 173.547 214.373 171 213C173.221 212.61 174.754 212.665 177 213C176.674 209.951 176.822 207.056 177 204L173 204C173.097 200.67 173.816 198.09 175 195C169.367 196.201 172.632 203.804 166 205C166.553 197.456 173.448 193.216 170 185z"/>
<path style="fill:#486c7a; stroke:none;" d="M94 186L94 192L99 193C97.7428 190.214 96.2212 188.096 94 186z"/>
<path style="fill:#2c5561; stroke:none;" d="M44 187L41 192C43.9784 194.488 45.4147 196.612 43 200C47.3863 201.653 45.2601 194.634 46.3148 192.204C47.0338 190.547 48.5555 189.893 50 189C48.0593 188.049 46.1024 187.561 44 187M119 187L119 197C121.09 194.05 120.699 190.57 121 187L119 187z"/>
<path style="fill:#194752; stroke:none;" d="M131 188C130.276 191.04 130.026 193.878 130 197C131.314 196.232 131.232 196.314 132 195C132.965 198.51 132.45 201.423 132 205C128.731 204.249 126.269 204.249 123 205L125 189C120.445 195.405 122.842 204.795 115 209C117.15 211.166 117.989 211.472 121 211C121.027 213.379 121.06 213.683 123 215C122.626 210.81 124.883 209.323 127 206C130.942 208.21 133.467 211.697 131 216C131.776 218.132 132.13 218.771 134 220C134.174 217.388 134.418 216.057 136 214C134.601 210.393 133.514 207.924 134 204L136 205C136.585 201.337 134.045 197.062 134 193C132.203 193 132.479 193.014 131 194L133 188L131 188z"/>
<path style="fill:#2c5561; stroke:none;" d="M219 188C220.324 192.014 223.998 194.863 228 196C227.338 193.502 226.63 192 225 190C226.853 190 226.35 190.3 227 189L226 188C223.603 188.211 221.397 188.211 219 188M145 190L146 197C149.178 194.995 149.754 192.666 150 189L145 190z"/>
<path style="fill:#194752; stroke:none;" d="M183 189C181.418 193.327 178.844 204.681 185 206L184 202C185.479 202.986 185.203 203 187 203L189 198C186.649 194.975 186.085 191.597 183 189z"/>
<path style="fill:#0b3d44; stroke:none;" d="M78 191L78 196L82 195L83 199C81.3648 198.455 81.5451 198.635 81 197L79 197C76.1488 199.904 73.86 202.314 72 206L68 201C65.0063 201.954 64.2127 203.11 63 206C68.7459 208.24 70.8969 212.42 73 218C74.2654 216.187 75.1021 215.117 77 214L76 211C78.364 210.518 78.5175 210.364 79 208C84.8172 212.663 80.7471 221.51 89 224C89.3993 220.502 90.472 217.548 90 214C91.773 212.349 91.4521 211.411 91 209L94 210C93.8807 206.773 94.1904 205.616 97 204C94.9479 203.126 93.2528 203.047 91 203C90.1113 207.353 88.4353 209.299 84 210C84.6814 204.764 86.9509 200.422 87 195C83.683 194.149 81.2797 191.901 78 191z"/>
<path style="fill:#2c5561; stroke:none;" d="M173 191L173 194L172 192C169.113 196.431 166.176 199.509 166 205C172.185 203.968 170.353 197.929 175 195C174.436 193.248 174.081 192.458 173 191z"/>
<path style="fill:#194752; stroke:none;" d="M39 192L39 196C39.9114 194.623 40.4038 193.56 41 192L39 192z"/>
<path style="fill:#3a6370; stroke:none;" d="M41 192C40.044 195.953 41.0033 198.672 45 200C44.8746 196.122 44.4984 193.928 41 192M53 192C53.8949 195.773 54.1208 199.239 57 202C59.2869 197.143 58.4706 193.509 53 192z"/>
<path style="fill:#194752; stroke:none;" d="M217 192C214.367 193.737 213.212 195.088 212 198C215.398 197.083 218.267 195.882 217 192z"/>
<path style="fill:#2c5561; stroke:none;" d="M201 195L201 201C204.492 202.057 205.432 203.418 206 207C207.255 205.075 208.3 203.548 210 202C207.082 200.009 205.238 198.681 205 195L201 195z"/>
<path style="fill:#3a6370; stroke:none;" d="M202 197C202.406 199.092 202.217 199.02 204 200C203.316 198.42 203.195 198.223 202 197z"/>
<path style="fill:#486c7a; stroke:none;" d="M167 199L167 204L169 204L169 199L167 199z"/>
<path style="fill:#2c5561; stroke:none;" d="M232 199C233.049 203.522 234.702 207.719 237.098 211.715C239.172 215.174 241.889 217.813 242 222L246 221C244.401 213.704 239.098 201.9 232 199z"/>
<path style="fill:#658d9a; stroke:none;" d="M89 200C88.11 201.745 87.5471 203.125 87 205C89.4714 203.719 90.2562 202.68 91 200L89 200z"/>
<path style="fill:#2c5561; stroke:none;" d="M92 202L97 202C95.2315 199.966 93.7685 199.966 92 202M60 201C59.4382 202.801 59.1759 204.122 59 206L56 205C56 210.258 54.2488 218.643 59 222C59 218.621 58.3552 214.415 59.5849 211.209C60.9253 207.714 63.3596 205.941 64 202L60 201z"/>
<path style="fill:#486c7a; stroke:none;" d="M208 202C209.037 204.513 209.683 205.617 212 207C211.047 204.65 210.19 203.261 208 202z"/>
<path style="fill:#658d9a; stroke:none;" d="M207 203L207 209C208.225 206.987 208.645 205.341 209 203L207 203z"/>
<path style="fill:#2c5561; stroke:none;" d="M19 205C17.3317 208.386 17.1357 210.649 21 212L21 205L19 205M84 205L84 210L89 210C87.494 209.317 86.6852 209.174 85 209C84.8259 207.315 84.683 206.506 84 205M96 205C95.4703 209.065 93.2426 211.616 90 214C89.987 217.464 88.7339 220.586 89 224C83.3407 221.22 83.0633 216.703 82 211C77.3659 214.516 73.1867 218.118 72 224C74.1236 223.101 74.1007 223.124 75 221C86.2884 226.241 80.0792 239.5 80.338 248.998C80.4021 251.353 81.4026 253.741 82 256L92 256C91.1218 249.087 86.8062 238.413 94 234C93.4549 235.635 93.6352 235.455 92 236C94.214 239.615 94.9097 242.782 95 247C96.6436 245 97.7666 243.32 100 242L100 246C102.681 239.609 98.9316 232.621 99.0934 226C99.2005 221.615 101.174 218.401 100 214C99.3152 215.248 99.2512 215.548 99 217L93 217L93 213L97 214C96.5279 212.584 96.1863 212.186 95 211C97.4466 209.708 98.6704 206.573 96 205z"/>
<path style="fill:#194752; stroke:none;" d="M247 205L247 211L241 211C243.2 214.245 244.838 217.237 246 221L242 222C242.205 216.501 237.923 212.953 236 208C235.315 209.248 235.251 209.548 235 211C233.365 210.455 233.545 210.635 233 209C230.94 214.051 232.396 223.184 238 225C237.417 229.639 236.269 233.519 241 236C240.438 232.975 240.064 230.078 240 227C241.594 228.296 242.018 228.535 244 229C243.654 234.16 240.357 237.897 240 243C240.685 241.752 240.749 241.452 241 240C244.658 244.902 244 250.129 244 256L250 256C250 252.468 251.324 246.661 249 244L252 238C248.193 235.506 246.173 233.452 245 229L249 231C248.678 227.48 248.238 224.327 247 221C249.942 218.433 249.7 212.796 250 209L254 209L251 205L247 205z"/>
<path style="fill:#2c5561; stroke:none;" d="M127 206C125.678 207.441 123.211 209.233 122.735 211.221C121.872 214.818 127.093 222.399 130 224C130.511 222.048 130.733 221.543 132 220L131 216C134.756 212.43 130.911 207.437 127 206z"/>
<path style="fill:#597c8b; stroke:none;" d="M208 209L207 207C206.27 210.155 208.536 214.004 211 216C210.352 213.291 210.058 210.784 210 208L211 212C213.019 208.479 209.083 204.047 208 209z"/>
<path style="fill:#3a6370; stroke:none;" d="M159 208C158.356 210.106 158.094 211.795 158 214C160.448 212.249 160.775 210.996 161 208L159 208z"/>
<path style="fill:#7896a3; stroke:none;" d="M210 208L210 215C211.059 212.466 211.059 210.534 210 208z"/>
<path style="fill:#2c5561; stroke:none;" d="M212 208L212 216L209 216L209 211L207 211C207.105 214.285 207.182 216.177 210 218C210.027 220.379 210.06 220.683 212 222C211.808 216.624 216.656 213.391 212 208M157 209L156 215C154.814 213.814 154.416 213.472 153 213L154 219C156.305 218.333 157.965 217.297 160 216C160.482 218.364 160.636 218.518 163 219L163 224C164.702 219.895 163.035 216.699 161 213C159.203 213 159.479 213.014 158 214C157.912 212.036 157.779 210.769 157 209z"/>
<path style="fill:#194752; stroke:none;" d="M16 210L17 215C19.0924 214.594 19.0198 214.783 20 213C22.7849 214.737 23.3053 215.727 23 219C25.9482 218.032 26.8159 216.859 28 214C24.0687 211.873 20.1751 211.385 16 210z"/>
<path style="fill:#2c5561; stroke:none;" d="M143 210L143 215C143.683 213.494 143.826 212.685 144 211C146.185 212.298 146.693 212.211 148 210L143 210z"/>
<path style="fill:#194752; stroke:none;" d="M39 211L38 217C39.9519 216.93 39.94 216.646 41 218C41.9241 216.352 42.4494 214.825 43 213C41.3648 212.455 41.5451 212.635 41 211L39 211z"/>
<path style="fill:#486c7a; stroke:none;" d="M95 211C95.4721 212.416 95.8137 212.814 97 214L93 213C93.2107 215.739 93.3025 216.422 96 217C95.3502 215.7 95.8532 216 94 216C95.8006 215.438 97.1218 215.176 99 215C98.1456 212.475 97.4917 211.97 95 211M144 211L144 216C146.133 214.845 146.782 214.118 148 212C145.962 212.18 145.552 212.164 144 211M211 212L211 216C211.71 214.241 211.71 213.759 211 212z"/>
<path style="fill:#3a6370; stroke:none;" d="M20 213L20 219C24.3017 217.581 24.035 214.625 20 213z"/>
<path style="fill:#2c5561; stroke:none;" d="M184 214C185.767 217.362 185.242 219.495 184 223C183.356 220.894 183.094 219.205 183 217C181.767 219.285 180.826 221.115 179 223L180 220C178.267 221.222 177.849 222.009 177 224C181.824 229.511 178.613 232.982 176.472 238.319C175.572 240.564 175.864 242.644 178 243C177.455 244.635 177.635 244.455 176 245L177 256C179.245 251.043 178.233 242.997 183 240C182.335 234.848 181.696 230.217 182 225C183.186 226.186 183.584 226.528 185 227L188 213L184 214z"/>
<path style="fill:#597c8b; stroke:none;" d="M94 215C95.7505 216.255 96.8574 216.614 99 217C97.4602 215.197 96.4025 215.168 94 215z"/>
<path style="fill:#486c7a; stroke:none;" d="M183 215L183 223C185.351 220.494 185.816 218.412 186 215L183 215z"/>
<path style="fill:#194752; stroke:none;" d="M8 222L16 222C13.5699 216.011 10.0292 215.742 8 222z"/>
<path style="fill:#0b3d44; stroke:none;" d="M169 219L165 218C165.298 220.789 164.754 224.037 165.549 226.715C166.419 229.649 168.796 232.157 170 235L167 235L168 239L164 239C163.009 244.852 162 249.996 162 256C164.85 255.979 167.271 255.81 170 255L171 250C167.841 250 170.271 246.24 171.167 244C172.307 241.148 174.533 238.033 175 235C175.809 229.745 173.453 222.019 172 217C169.908 217.406 169.98 217.217 169 219z"/>
<path style="fill:#2c5561; stroke:none;" d="M147 218C146.82 221.372 147.115 223.13 150 225L149 218L147 218z"/>
<path style="fill:#3a6370; stroke:none;" d="M158 237L162 239C163.832 231.919 163.567 226.181 163 219C154.056 220.315 157.487 230.502 158 237z"/>
<path style="fill:#194752; stroke:none;" d="M0 221L0 233L4 231C3.27872 227.44 2.36474 224.64 3 221L0 221M29 221C27.6883 224.663 26.8091 228.273 24 231L25 235C28.1355 234.109 30.7221 232.477 34 232L32 221L29 221z"/>
<path style="fill:#486c7a; stroke:none;" d="M90 221C90.2762 224.161 91.0415 226.979 92 230C94.5669 229.051 95.5322 228.306 97 226L92 227L92 221L90 221z"/>
<path style="fill:#3a6370; stroke:none;" d="M174 221C174.012 225.2 175.241 229.788 174.701 233.91C173.858 240.353 165.231 253.957 177 256C177 251.221 176.605 247.339 178 243C172.115 243 179.906 235.16 180 233C180.14 229.774 177.438 227.148 179 225L177 221L174 221z"/>
<path style="fill:#658d9a; stroke:none;" d="M91 222L92 227C94.5431 226.474 95.535 226.122 97 224L91 222z"/>
<path style="fill:#2c5561; stroke:none;" d="M159 224C159.105 227.285 159.182 229.177 162 231L162 224L159 224z"/>
<path style="fill:#597c8b; stroke:none;" d="M177 225C177.684 226.58 177.805 226.777 179 228L179 225L177 225z"/>
<path style="fill:#2c5561; stroke:none;" d="M61 239L70 239L70 243C70.6848 241.752 70.7488 241.452 71 240C72.3223 246.026 70.6031 253.626 78 256C79.0807 250.154 77.3649 245.739 77 240C76.3152 241.248 76.2512 241.548 76 243C74.0172 241.14 73.1289 239.491 72 237C73.8031 235.46 73.832 234.403 74 232L69 232C68.1118 227.741 63.7143 223.819 60.8619 229.483C59.4287 232.329 60.6239 236.022 61 239z"/>
<path style="fill:#3a6370; stroke:none;" d="M97 226C94.872 228.122 93.9199 228.897 91 228L91 230L90 228L86 229C87.2484 229.685 87.5484 229.749 89 230L89 234C92.1769 232.876 93.6505 233.706 96 236C97.9083 232.814 98.4388 229.461 97 226z"/>
<path style="fill:#0b3d44; stroke:none;" d="M198 226L198 230C195.276 230.182 193.417 230.735 191 232L191 234C192.28 235.337 193.03 236.4 194 238C190.578 237.972 187.363 237.625 184 237L184 241C178.141 242.793 178.126 250.584 178 256C185.253 255.76 190.637 246.753 188 240C191.747 242.046 192.433 244.902 193 249C197.345 249.329 200.712 250.348 203 246L200 246C203.01 238.929 209.137 227.79 198 226z"/>
<path style="fill:#2c5561; stroke:none;" d="M240 227C240.017 230.489 240.281 233.717 239 237C240.479 237.986 240.203 238 242 238C243.305 234.923 243.903 232.34 244 229L240 227z"/>
<path style="fill:#597c8b; stroke:none;" d="M86 230C85.3164 231.58 85.1952 231.777 84 233L85 237C88.6867 235.777 88.8796 233.692 89 230L86 230z"/>
<path style="fill:#194752; stroke:none;" d="M36 231C36.4646 232.894 37.0659 234.277 38 236C34.5971 236.729 35.0135 238.806 35 242C32.7026 242.674 32.2259 242.965 31 245C34.8137 244.339 35.5703 242.741 36 239L40 239C40.1459 246.068 41.9323 250.484 34 253C33.4038 251.44 32.9114 250.377 32 249C30.6069 251.311 30.2348 253.309 30 256L51 256C50.5175 253.636 50.364 253.482 48 253C48.5746 250.604 48.4751 250.513 46 250C53.1832 246.513 49.3426 239.103 43 237C44.4785 236.014 44.2032 236 46 236C45.4918 232.942 43.773 229.942 41 233L36 231z"/>
<path style="fill:#3a6370; stroke:none;" d="M139 232C139.74 236.036 140.798 238.277 145 239C144.792 237.339 144.505 237.46 146 237L144 231L139 232z"/>
<path style="fill:#2c5561; stroke:none;" d="M163 232L162 239C160.814 237.964 160.396 237.661 159 237C158.887 242.642 158.205 246.87 161 252C163.4 246.449 165.418 237.762 163 232M205 245L205 235C206.884 237.014 207.062 238.246 207 241L212 241L211 232C204.571 232.489 198.339 240.196 205 245z"/>
<path style="fill:#0b3d44; stroke:none;" d="M92 256L98 256C97.3167 250.736 96.2858 240.263 92 237C93.0356 235.814 93.3386 235.396 94 234C86.521 237.006 90.8395 249.841 92 256z"/>
<path style="fill:#3a6370; stroke:none;" d="M205 235C205 240.342 204.885 245.008 207 250L209 250C210.403 246.997 211.49 244.28 212 241L207 241C207.233 238.132 207.327 236.742 205 235M72 237C72.9055 239.834 73.4783 241.426 76 243C75.5031 239.793 74.8496 238.556 72 237M95 237L95 240L98 240L98 237L95 237M36 239C35.5736 241.469 34.8676 243.645 34 246L41 246C40.428 243.623 40.1095 241.442 40 239L36 239z"/>
<path style="fill:#486c7a; stroke:none;" d="M71 240L71 245C71.8299 242.97 71.8299 242.03 71 240z"/>
<path style="fill:#194752; stroke:none;" d="M85 240L85 244L88 244L88 240L85 240z"/>
<path style="fill:#3a6370; stroke:none;" d="M97 242C96.1865 246.93 97.0597 251.151 98 256L102 256C101.999 250.917 101.088 246.879 100 242L97 242z"/>
<path style="fill:#2c5561; stroke:none;" d="M212 242C210.751 245.356 209.087 248.101 207 251L212 253C212.159 249.293 213.364 245.494 212 242z"/>
<path style="fill:#597c8b; stroke:none;" d="M36 243L36 245L38 245L38 243L36 243z"/>
<path style="fill:#2c5561; stroke:none;" d="M33 245C33.0209 247.85 33.1898 250.271 34 253C38.5891 251.987 40.6206 250.873 41 246C38.2155 245.942 35.7092 245.648 33 245z"/>
<path style="fill:#3a6370; stroke:none;" d="M186 251L188 251L187 256C190.807 253.559 190.597 249.221 191 245C187.661 246.078 186.897 247.662 186 251z"/>
<path style="fill:#194752; stroke:none;" d="M169 248C169.289 250.384 168.91 250.387 171 250L169 256L173 256C172.313 252.549 171.926 250.086 169 248z"/>
<path style="fill:#486c7a; stroke:none;" d="M186 251L184 256C186.885 255.161 187.289 253.885 188 251L186 251z"/>
</svg>
