<?xml version="1.0" standalone="yes"?>
<svg xmlns="http://www.w3.org/2000/svg" width="607" height="612">
<path style="fill:#fffff7; stroke:none;" d="M0 0L0 612L607 612L607 0L0 0z"/>
<path style="fill:#afc1d5; stroke:none;" d="M337 43L338 44L337 43z"/>
<path style="fill:#58708c; stroke:none;" d="M337 44L337 48C337.71 46.2405 337.71 45.7595 337 44z"/>
<path style="fill:#bbd7dd; stroke:none;" d="M338 44C338.749 48.0359 338.997 51.8994 339 56L338 54C334.361 62.6729 338.585 73.8389 337.946 82.9854C337.772 85.4776 336.615 87.7147 336.429 90.1697C335.415 103.567 336.893 117.464 335.946 130.985C335.563 136.456 334 141.355 334 147C339.831 147.464 345.275 149.345 351 150.384C367.025 153.293 382.961 156.577 399 159.463C408.701 161.208 418.128 164.214 428 165C422.929 155.092 413.153 147.945 408 138C400.089 139.469 392.019 139 384 139C384.545 137.365 384.365 137.545 386 137C383.081 128.381 378.093 120.939 374.091 112.83C367.272 99.0106 360.572 85.0945 353.169 71.5756C348.464 62.9827 345.156 50.7401 338 44M336 45L337 46L336 45z"/>
<path style="fill:#6493af; stroke:none;" d="M336 46C330.972 57.6536 321.545 67.7195 318 80C321.319 77.5461 322.224 74.4991 324.25 71.0278C326.988 66.3366 330.051 61.9904 332.361 57C333.212 55.1624 335.129 49.3816 337 51C337.651 48.7658 337.318 47.9262 336 46z"/>
<path style="fill:#fffff7; stroke:none;" d="M338 46L338 56C339.346 52.7929 339.346 49.207 338 46z"/>
<path style="fill:#afc1d5; stroke:none;" d="M334 49L335 50L334 49z"/>
<path style="fill:#77a9c9; stroke:none;" d="M336 49C330.899 57.7711 326.87 67.1584 321.356 75.6998C319.204 79.0328 316.108 81.4523 314.208 85.0108C309.15 94.4874 305.361 104.848 298 113L299 115C294.881 117.644 292.85 122.58 291 127C305.139 131.892 318.183 142.367 333 145C333.032 133.222 333.23 120.787 334.054 109.015C334.25 106.221 335.65 103.69 335.701 100.91C335.792 95.9657 334.834 91.0106 335.019 86.0038C335.215 80.6804 336.461 76.4549 336.09 71C335.825 67.1205 335.68 62.8575 336.209 59C336.741 55.1262 338.271 52.4948 336 49z"/>
<path style="fill:#98c1be; stroke:none;" d="M333 51L334 52L333 51z"/>
<path style="fill:#6493af; stroke:none;" d="M336 56L336 75C338.02 70.1871 338.02 60.8129 336 56z"/>
<path style="fill:#bbd7dd; stroke:none;" d="M326.333 62.6667C326.278 62.722 326.222 63.7779 326.667 63.3333C326.722 63.2776 326.778 62.2224 326.333 62.6667M322 70L323 71L322 70z"/>
<path style="fill:#fffff7; stroke:none;" d="M337 72L337 88C338.812 83.681 338.812 76.3189 337 72z"/>
<path style="fill:#afc1d5; stroke:none;" d="M317 79L318 80L317 79z"/>
<path style="fill:#6493af; stroke:none;" d="M335 80L335 99C337.02 94.1871 337.02 84.8129 335 80z"/>
<path style="fill:#afc1d5; stroke:none;" d="M336 80L336 88C337.161 85.2302 337.161 82.7698 336 80z"/>
<path style="fill:#bbd7dd; stroke:none;" d="M314 84L315 85L314 84M313 86L314 87L313 86z"/>
<path style="fill:#6493af; stroke:none;" d="M311 90C309.094 94.4243 306.366 98.3569 305 103C308.698 99.4144 311.022 94.7269 313 90L311 90z"/>
<path style="fill:#fffff7; stroke:none;" d="M336 92L335 136C336.986 131.267 335.976 125.092 336.001 120C336.042 111.349 339.447 100.214 336 92z"/>
<path style="fill:#afc1d5; stroke:none;" d="M308 95L309 96L308 95z"/>
<path style="fill:#bbd7dd; stroke:none;" d="M304 102L305 103L304 102z"/>
<path style="fill:#6493af; stroke:none;" d="M334 104L334 120C335.812 115.681 335.812 108.319 334 104z"/>
<path style="fill:#98c1be; stroke:none;" d="M335 104L335 112C336.161 109.23 336.161 106.77 335 104M299 111L300 112L299 111z"/>
<path style="fill:#58708c; stroke:none;" d="M299 112L300 113L299 112M298 114L299 115L298 114z"/>
<path style="fill:#bbd7dd; stroke:none;" d="M296 116L297 117L296 116z"/>
<path style="fill:#afc1d5; stroke:none;" d="M295 118L296 119L295 118z"/>
<path style="fill:#8396b5; stroke:none;" d="M334 120L334 128C335.161 125.23 335.161 122.77 334 120z"/>
<path style="fill:#bbd7dd; stroke:none;" d="M290.667 125.333C290.222 125.778 291.278 125.722 291.333 125.667C291.778 125.222 290.722 125.278 290.667 125.333M286 126C287.248 126.685 287.548 126.749 289 127C287.752 126.315 287.452 126.251 286 126z"/>
<path style="fill:#afc1d5; stroke:none;" d="M289.667 126.333C289.222 126.778 290.278 126.722 290.333 126.667C290.778 126.222 289.722 126.278 289.667 126.333M276.667 127.333C276.222 127.778 277.278 127.722 277.333 127.667C277.778 127.222 276.722 127.278 276.667 127.333z"/>
<path style="fill:#77a9c9; stroke:none;" d="M278.667 127.333C278.222 127.778 279.278 127.722 279.333 127.667C279.778 127.222 278.722 127.278 278.667 127.333z"/>
<path style="fill:#6493af; stroke:none;" d="M280 127C275.418 130.471 268.858 126.75 264.589 130.823C259.066 136.09 262.036 146.427 259.926 153C259.245 155.119 257.324 159.071 260.333 160.306C262.607 161.239 265.742 159.899 268 159.449C273.264 158.4 278.635 157.231 284 157L283 155C288.29 154.729 292.65 153.055 298 154C298 150.616 303.12 152.847 306 152.167C315.2 149.995 324.662 147 334 147L334 136C332.787 138.89 333.002 141.874 333 145C319.292 141.081 307.614 131.677 294 127.803C289.505 126.524 284.652 127.825 280 127z"/>
<path style="fill:#3d59a4; stroke:none;" d="M282 127C284.052 127.874 285.747 127.953 288 128C285.948 127.126 284.253 127.047 282 127z"/>
<path style="fill:#bbd7dd; stroke:none;" d="M264 128C265.248 128.685 265.548 128.749 267 129C265.752 128.315 265.452 128.251 264 128z"/>
<path style="fill:#77a9c9; stroke:none;" d="M267.667 128.333C267.222 128.778 268.278 128.722 268.333 128.667C268.778 128.222 267.722 128.278 267.667 128.333z"/>
<path style="fill:#3d59a4; stroke:none;" d="M270 128C271.769 128.779 273.036 128.912 275 129C273.231 128.221 271.964 128.088 270 128z"/>
<path style="fill:#58708c; stroke:none;" d="M275 128C276.769 128.779 278.036 128.912 280 129C278.231 128.221 276.964 128.088 275 128z"/>
<path style="fill:#afc1d5; stroke:none;" d="M334 128L334 136C335.161 133.23 335.161 130.77 334 128z"/>
<path style="fill:#98c1be; stroke:none;" d="M261 129L261 132C261.696 130.446 261.696 130.554 261 129z"/>
<path style="fill:#58708c; stroke:none;" d="M262 129C261.375 132.363 261.028 135.578 261 139C263.121 135.489 263.165 132.108 267 130C265.231 129.221 263.964 129.088 262 129z"/>
<path style="fill:#bbd7dd; stroke:none;" d="M260 136L260 139C260.696 137.446 260.696 137.554 260 136z"/>
<path style="fill:#98c1be; stroke:none;" d="M384 138C390.202 140.603 399.298 139 406 139C399.798 136.397 390.702 138 384 138z"/>
<path style="fill:#8396b5; stroke:none;" d="M260.333 139.667C260.278 139.722 260.222 140.778 260.667 140.333C260.722 140.278 260.778 139.222 260.333 139.667z"/>
<path style="fill:#58708c; stroke:none;" d="M260 142L260 147C260.83 144.97 260.83 144.03 260 142z"/>
<path style="fill:#5971b1; stroke:none;" d="M261 144C260.315 146.798 259.801 149.126 260 152C261.433 149.304 262.038 146.898 261 144z"/>
<path style="fill:#77a9c9; stroke:none;" d="M259.333 147.667C259.278 147.722 259.222 148.778 259.667 148.333C259.722 148.278 259.778 147.222 259.333 147.667z"/>
<path style="fill:#58708c; stroke:none;" d="M324 147C325.506 147.683 326.315 147.826 328 148C326.494 147.317 325.685 147.174 324 147z"/>
<path style="fill:#77a9c9; stroke:none;" d="M328 147C329.248 147.685 329.548 147.749 331 148C329.752 147.315 329.452 147.251 328 147z"/>
<path style="fill:#8ac2d5; stroke:none;" d="M258 161C261.244 168.016 267.488 173.99 272.335 179.961C283.907 194.215 297.214 208.472 307 224C317.915 216.161 328.746 208.554 340 201.265C345.125 197.946 351.276 192.409 357.285 190.938C360.115 190.246 363.202 191.445 366 191.866C370.99 192.616 376.005 193.04 381 193.728C400.371 196.398 420.365 201.946 440 202C438.894 189.333 431.861 177.365 429 165C428.315 166.248 428.251 166.548 428 168C424.481 163.344 419.399 163.829 414.09 162.755C406.218 161.164 397.724 160.367 390 158.53C377.37 155.527 364.818 152.711 352 150.384C346.027 149.3 340.158 146.833 334 147.104C308.311 148.234 283.564 158.98 258 161z"/>
<path style="fill:#3d59a4; stroke:none;" d="M259 150L259 155C259.83 152.969 259.83 152.03 259 150z"/>
<path style="fill:#58708c; stroke:none;" d="M297 152C298.769 152.779 300.036 152.912 302 153C300.231 152.221 298.964 152.088 297 152z"/>
<path style="fill:#77a9c9; stroke:none;" d="M274 153C275.506 153.683 276.315 153.826 278 154C276.494 153.317 275.685 153.174 274 153z"/>
<path style="fill:#58708c; stroke:none;" d="M288 154C290.698 154.969 293.161 154.353 296 154C293.194 152.854 290.929 153.308 288 154M274 154C275.506 154.683 276.315 154.826 278 155C276.494 154.317 275.685 154.174 274 154z"/>
<path style="fill:#bbd7dd; stroke:none;" d="M210 155C213.571 166.487 214.464 179.132 216.296 191C219.129 209.35 222.56 227.743 226 246L333 247C327.998 240.282 319.739 232.324 312 229L316 236C318.56 236.667 320.625 237.853 323 239C315.279 241.282 306.025 240 298 240C299.695 234.645 302.809 228.757 307 225C305.409 218.917 300.154 213.95 296.374 209.015C288.589 198.848 280.308 189.004 272.335 178.985C268.509 174.178 263.569 169.597 261 164C259.339 164.613 258.517 165.043 257 166L258 162C242.295 158.251 225.842 157.953 210 155z"/>
<path style="fill:#afc1d5; stroke:none;" d="M258.333 155.667C258.278 155.722 258.222 156.778 258.667 156.333C258.722 156.278 258.778 155.222 258.333 155.667z"/>
<path style="fill:#58708c; stroke:none;" d="M283 155C284.769 155.779 286.036 155.912 288 156C286.231 155.221 284.964 155.088 283 155z"/>
<path style="fill:#77a9c9; stroke:none;" d="M209 156L210 159C206.116 160.058 203.682 161.996 203 166C198.918 168.413 196.984 172.5 193.83 175.961C189.035 181.222 182.971 186.325 178.836 192.019C175.43 196.708 172.96 203.208 167 205C166.428 207.377 166.11 209.558 166 212C167.3 211.35 167 211.853 167 210C167.238 212.095 167.184 213.889 167 216C170.735 218.223 171.648 222.567 176 224C176.925 231.355 183.456 235.437 184 243C177.15 243 165.6 245.242 160 241C159.076 242.648 158.551 244.175 158 246L224 246C224.14 242.698 224.873 239.329 224.331 236.039C223.807 232.855 221.878 230.159 221.375 226.985C220.858 223.723 221.466 220.383 220.95 217.09C219.971 210.841 218.095 205.014 216.553 198.961C215.375 194.334 217.792 187.313 214 184C215.269 177.496 213.25 170.432 212 164C211.414 160.986 211.355 158.026 209 156z"/>
<path style="fill:#8ac2d5; stroke:none;" d="M208 157L209 158L208 157z"/>
<path style="fill:#58708c; stroke:none;" d="M209 157L208 159L210 159C210 157.147 210.3 157.65 209 157z"/>
<path style="fill:#fffff7; stroke:none;" d="M211.333 157.667C211.278 157.722 211.222 158.778 211.667 158.333C211.722 158.278 211.778 157.222 211.333 157.667z"/>
<path style="fill:#98c1be; stroke:none;" d="M220 157C221.506 157.683 222.315 157.826 224 158C222.494 157.317 221.685 157.174 220 157z"/>
<path style="fill:#afc1d5; stroke:none;" d="M207 158L208 159L207 158z"/>
<path style="fill:#77a9c9; stroke:none;" d="M388 158C389.506 158.683 390.315 158.826 392 159C390.494 158.317 389.685 158.174 388 158z"/>
<path style="fill:#bbd7dd; stroke:none;" d="M206 159L207 160L206 159z"/>
<path style="fill:#77a9c9; stroke:none;" d="M267.667 159.333C267.222 159.778 268.278 159.722 268.333 159.667C268.778 159.222 267.722 159.278 267.667 159.333z"/>
<path style="fill:#3d59a4; stroke:none;" d="M206 160L207 161L206 160z"/>
<path style="fill:#304a8c; stroke:none;" d="M258 160L259 161L258 160z"/>
<path style="fill:#fffff7; stroke:none;" d="M212 162L212 165C212.696 163.446 212.696 163.554 212 162M258.333 163.667C258.278 163.722 258.222 164.778 258.667 164.333C258.722 164.278 258.778 163.222 258.333 163.667z"/>
<path style="fill:#98c1be; stroke:none;" d="M257.333 164.667C257.278 164.722 257.222 165.778 257.667 165.333C257.722 165.278 257.778 164.222 257.333 164.667z"/>
<path style="fill:#afc1d5; stroke:none;" d="M201 165L202 166L201 165z"/>
<path style="fill:#58708c; stroke:none;" d="M202 165L203 166L202 165z"/>
<path style="fill:#77a9c9; stroke:none;" d="M427 165L427 168C427.696 166.446 427.696 166.554 427 165z"/>
<path style="fill:#3d59a4; stroke:none;" d="M201 166L202 167L201 166z"/>
<path style="fill:#bbd7dd; stroke:none;" d="M429.333 166.667C429.278 166.722 429.222 167.778 429.667 167.333C429.722 167.278 429.778 166.222 429.333 166.667z"/>
<path style="fill:#58708c; stroke:none;" d="M198 169L196 173C197.63 171.485 198.163 171.145 198 169z"/>
<path style="fill:#98c1be; stroke:none;" d="M196 171L197 172L196 171z"/>
<path style="fill:#bbd7dd; stroke:none;" d="M195 172L196 173L195 172z"/>
<path style="fill:#6493af; stroke:none;" d="M195 173C192.87 175.279 191.299 177.181 190 180C192.643 178.08 195.076 176.392 195 173z"/>
<path style="fill:#bbd7dd; stroke:none;" d="M432.333 176.667C432.278 176.722 432.222 177.778 432.667 177.333C432.722 177.278 432.778 176.222 432.333 176.667M189 179L190 180L189 179z"/>
<path style="fill:#afc1d5; stroke:none;" d="M188 180L189 181L188 180z"/>
<path style="fill:#6493af; stroke:none;" d="M187 182C185.651 183.768 184.878 184.982 184 187C186.343 185.653 187.401 184.741 187 182z"/>
<path style="fill:#58708c; stroke:none;" d="M214.333 182.667C214.278 182.722 214.222 183.778 214.667 183.333C214.722 183.278 214.778 182.222 214.333 182.667z"/>
<path style="fill:#afc1d5; stroke:none;" d="M183 186L184 187L183 186z"/>
<path style="fill:#77a9c9; stroke:none;" d="M308 222L308 225C316.05 230.775 322.988 241.023 332.039 245.062C336.113 246.88 341.644 246 346 246L374 246C373.87 241.05 371.898 237.507 370.333 233C367.037 223.507 363.867 213.722 361.167 204C360.259 200.731 355.77 191.546 360 191C355.114 189.292 348.998 194.863 345 197.38C332.66 205.148 320.904 215.374 308 222z"/>
<path style="fill:#58708c; stroke:none;" d="M357 191L358 194C359.731 192.994 361.053 192.454 363 192C360.948 191.126 359.253 191.047 357 191z"/>
<path style="fill:#6493af; stroke:none;" d="M359 192L364 201C365.797 201 365.521 200.986 367 200C368.292 204.786 371.102 208.638 376 210C376.776 214.922 380.143 217.118 383.292 220.728C389.469 227.81 396.025 234.741 402 242L375 242C381.584 244.763 390.906 242.757 397.996 243.019C401.506 243.148 404.575 244.699 408.039 244.946C419.573 245.77 431.436 245 443 245C448.373 245 460.298 247.237 464 243C465.186 244.036 465.604 244.339 467 245C466.391 238.364 462.483 234.321 459.246 228.715C455.715 222.6 451.419 218.322 446.899 213.035C444.672 210.431 442.883 206.783 439.87 205.008C432.186 200.483 422.567 200.3 414 199.274C404.96 198.191 396.078 195.946 387 194.845C377.647 193.711 368.474 191.209 359 192z"/>
<path style="fill:#98c1be; stroke:none;" d="M178 192L179 193L178 192z"/>
<path style="fill:#6493af; stroke:none;" d="M216 192C216.01 195.763 216.313 199.299 217 203C218.359 199.519 217.51 195.364 216 192z"/>
<path style="fill:#afc1d5; stroke:none;" d="M177 193L178 194L177 193z"/>
<path style="fill:#77a9c9; stroke:none;" d="M378.667 193.333C378.222 193.778 379.278 193.722 379.333 193.667C379.778 193.222 378.722 193.278 378.667 193.333z"/>
<path style="fill:#afc1d5; stroke:none;" d="M176 194L177 195L176 194z"/>
<path style="fill:#5971b1; stroke:none;" d="M359 194C359.325 207.877 367.994 220.417 370 234C370.685 232.752 370.749 232.452 371 231C372.111 232.742 372.27 233.119 374 234L374 230C375.119 235.169 373.553 240.648 374 246L471 246C470.536 243.828 469.895 242.042 469 240L466 241L467 245C465.365 244.455 465.545 244.635 465 243C457.844 246.98 446.993 245 439 245C417.411 245 396.542 243 375 243C383.285 240.551 393.386 242 402 242C397.36 234.101 389.331 226.858 383.292 219.87C380.399 216.522 377.248 214.356 376 210C371.567 208.001 368.794 204.467 367 200L364 201C362.757 197.937 361.757 195.853 359 194z"/>
<path style="fill:#77a9c9; stroke:none;" d="M384 194C385.248 194.685 385.548 194.749 387 195C385.752 194.315 385.452 194.251 384 194z"/>
<path style="fill:#bbd7dd; stroke:none;" d="M388 194C389.506 194.683 390.315 194.826 392 195C390.494 194.317 389.685 194.174 388 194z"/>
<path style="fill:#6493af; stroke:none;" d="M176 195C172.857 198.415 169.896 201.746 168 206C171.547 203.448 176.236 199.675 176 195z"/>
<path style="fill:#77a9c9; stroke:none;" d="M217.333 196.667C217.278 196.722 217.222 197.778 217.667 197.333C217.722 197.278 217.778 196.222 217.333 196.667z"/>
<path style="fill:#58708c; stroke:none;" d="M412 199C413.506 199.683 414.315 199.826 416 200C414.494 199.317 413.685 199.174 412 199z"/>
<path style="fill:#afc1d5; stroke:none;" d="M171 200L172 201L171 200z"/>
<path style="fill:#77a9c9; stroke:none;" d="M424 200C425.248 200.685 425.548 200.749 427 201C425.752 200.315 425.452 200.251 424 200z"/>
<path style="fill:#bbd7dd; stroke:none;" d="M170 201L171 202L170 201z"/>
<path style="fill:#5971b1; stroke:none;" d="M432 202C434.725 203.875 438.179 204.072 440.737 206.278C444.64 209.644 446.309 214.475 451 217C446.383 208.897 441.829 202.43 432 202z"/>
<path style="fill:#6493af; stroke:none;" d="M437 202C438.506 202.683 439.315 202.826 441 203C439.494 202.317 438.685 202.174 437 202z"/>
<path style="fill:#98c1be; stroke:none;" d="M441 203L442 204L441 203M166 206L167 207L166 206z"/>
<path style="fill:#afc1d5; stroke:none;" d="M443 206L444 207L443 206M165 207L166 208L165 207z"/>
<path style="fill:#bbd7dd; stroke:none;" d="M164 208C156.364 214.185 147.542 220.139 139 225L141 228C130.916 231.315 120.042 235.02 120 247C131.903 244.166 145.795 246 158 246C159.733 237.057 161.331 228.105 162.455 219.09C162.938 215.217 164.941 211.933 164 208z"/>
<path style="fill:#58708c; stroke:none;" d="M165 208L165 211C165.696 209.446 165.696 209.554 165 208z"/>
<path style="fill:#8ac2d5; stroke:none;" d="M219.333 208.667C219.278 208.722 219.222 209.778 219.667 209.333C219.722 209.278 219.778 208.222 219.333 208.667M164 210L164 213C164.696 211.446 164.696 211.554 164 210z"/>
<path style="fill:#6493af; stroke:none;" d="M167 210C166.274 212.179 166.561 211.78 165 211C163.101 218.417 161.224 226.417 160.171 234C159.867 236.183 158.954 240.263 160.832 241.972C162.53 243.517 165.911 242.996 168 243L184 243C183.753 235.195 177.583 231.271 176 224C171.842 222.289 171.201 216.896 167 216C167.387 213.732 167.676 212.164 167 210z"/>
<path style="fill:#98c1be; stroke:none;" d="M446 210L447 211L446 210z"/>
<path style="fill:#58708c; stroke:none;" d="M219 211L219 214C219.696 212.446 219.696 212.554 219 211z"/>
<path style="fill:#bbd7dd; stroke:none;" d="M447 211L448 212L447 211z"/>
<path style="fill:#98c1be; stroke:none;" d="M449 214L450 215L449 214z"/>
<path style="fill:#bbd7dd; stroke:none;" d="M450 215L451 216L450 215z"/>
<path style="fill:#fffff7; stroke:none;" d="M162 216L162 221C162.83 218.97 162.83 218.03 162 216z"/>
<path style="fill:#77a9c9; stroke:none;" d="M163.333 216.667C163.278 216.722 163.222 217.778 163.667 217.333C163.722 217.278 163.778 216.222 163.333 216.667z"/>
<path style="fill:#98c1be; stroke:none;" d="M452 218L453 219L452 218z"/>
<path style="fill:#58708c; stroke:none;" d="M163 219L163 222C163.696 220.446 163.696 220.554 163 219z"/>
<path style="fill:#98c1be; stroke:none;" d="M221.333 219.667C221.278 219.722 221.222 220.778 221.667 220.333C221.722 220.278 221.778 219.222 221.333 219.667z"/>
<path style="fill:#77a9c9; stroke:none;" d="M449.333 221.667C449.278 221.722 449.222 222.778 449.667 222.333C449.722 222.278 449.778 221.222 449.333 221.667z"/>
<path style="fill:#98c1be; stroke:none;" d="M454 221L455 222L454 221z"/>
<path style="fill:#6493af; stroke:none;" d="M221 222C221.028 225.422 221.375 228.637 222 232C223.163 228.758 222.398 225.114 221 222z"/>
<path style="fill:#8ac2d5; stroke:none;" d="M455 222L456 223L455 222z"/>
<path style="fill:#98c1be; stroke:none;" d="M298 240L323 240C320.891 237.492 319.243 236.493 316 236C315.071 232.695 311.474 224.611 307.11 225.176C302.37 225.789 298.761 236.055 298 240z"/>
<path style="fill:#afc1d5; stroke:none;" d="M131 233C134.971 231.477 138.68 229.641 141 226C136.639 226.879 133.166 229.086 131 233z"/>
<path style="fill:#77a9c9; stroke:none;" d="M222.333 226.667C222.278 226.722 222.222 227.778 222.667 227.333C222.722 227.278 222.778 226.222 222.333 226.667z"/>
<path style="fill:#bbd7dd; stroke:none;" d="M458 226L459 227L458 226z"/>
<path style="fill:#77a9c9; stroke:none;" d="M161.333 227.667C161.278 227.722 161.222 228.778 161.667 228.333C161.722 228.278 161.778 227.222 161.333 227.667z"/>
<path style="fill:#58708c; stroke:none;" d="M458 227C458.684 228.58 458.805 228.777 460 230C459.316 228.42 459.195 228.223 458 227z"/>
<path style="fill:#bbd7dd; stroke:none;" d="M134.667 228.333C134.222 228.778 135.278 228.722 135.333 228.667C135.778 228.222 134.722 228.278 134.667 228.333z"/>
<path style="fill:#77a9c9; stroke:none;" d="M460 229L461 230L460 229z"/>
<path style="fill:#58708c; stroke:none;" d="M374 230L374 234C372.805 232.777 372.684 232.58 372 231C370.668 234.447 372.084 237.536 373 241C374.51 237.636 375.359 233.48 374 230M461 231C461.932 234.334 463.243 235.913 466 238C464.758 235.072 463.37 233.122 461 231z"/>
<path style="fill:#fffff7; stroke:none;" d="M159 232L159 236C159.71 234.24 159.71 233.76 159 232z"/>
<path style="fill:#8ac2d5; stroke:none;" d="M463 233L464 234L463 233z"/>
<path style="fill:#bbd7dd; stroke:none;" d="M464 234L465 235L464 234z"/>
<path style="fill:#98c1be; stroke:none;" d="M466 237L467 238L466 237z"/>
<path style="fill:#8396b5; stroke:none;" d="M159.333 238.667C159.278 238.722 159.222 239.778 159.667 239.333C159.722 239.278 159.778 238.222 159.333 238.667z"/>
<path style="fill:#304a8c; stroke:none;" d="M466 238L467 239L466 238z"/>
<path style="fill:#3d59a4; stroke:none;" d="M467.333 239.667C467.278 239.722 467.222 240.778 467.667 240.333C467.722 240.278 467.778 239.222 467.333 239.667z"/>
<path style="fill:#6493af; stroke:none;" d="M224 240C224.077 242.645 223.997 244.266 226 246C225.439 243.898 224.951 241.941 224 240z"/>
<path style="fill:#98c1be; stroke:none;" d="M469 241L470 242L469 241M158.333 243.667C158.278 243.722 158.222 244.778 158.667 244.333C158.722 244.278 158.778 243.222 158.333 243.667z"/>
<path style="fill:#77a9c9; stroke:none;" d="M225.333 243.667C225.278 243.722 225.222 244.778 225.667 244.333C225.722 244.278 225.778 243.222 225.333 243.667z"/>
<path style="fill:#8ac2d5; stroke:none;" d="M471 244L472 245L471 244z"/>
<path style="fill:#98c1be; stroke:none;" d="M294 245C297.699 246.552 302.017 246 306 246L328 246C324.301 244.448 319.983 245 316 245L294 245z"/>
<path style="fill:#3d59a4; stroke:none;" d="M471 245L472 246L471 245z"/>
<path style="fill:#afc1d5; stroke:none;" d="M472 245L473 246L472 245z"/>
<path style="fill:#fffff7; stroke:none;" d="M121 246C124.959 247.661 129.74 247 134 247L158 247C154.041 245.339 149.26 246 145 246L121 246z"/>
<path style="fill:#8ac2d5; stroke:none;" d="M158 246C163.951 248.497 172.58 247 179 247L226 247C220.049 244.503 211.42 246 205 246L158 246z"/>
<path style="fill:#fffff7; stroke:none;" d="M226 246C231.951 248.497 240.58 247 247 247L293 247C287.049 244.503 278.42 246 272 246L226 246z"/>
<path style="fill:#8ac2d5; stroke:none;" d="M333 246C337.215 247.769 342.465 247 347 247L375 247C370.785 245.231 365.536 246 361 246L333 246z"/>
<path style="fill:#6493af; stroke:none;" d="M375 246C383.367 249.511 396.924 247 406 247C397.633 243.489 384.076 246 375 246z"/>
<path style="fill:#77a9c9; stroke:none;" d="M406 246C411.951 248.497 420.58 247 427 247L471 247C465.049 244.503 456.42 246 450 246L406 246z"/>
<path style="fill:#58708c; stroke:none;" d="M471.667 246.333C471.222 246.778 472.278 246.722 472.333 246.667C472.778 246.222 471.722 246.278 471.667 246.333z"/>
<path style="fill:#3d59a4; stroke:none;" d="M120 247L120 299C121.769 294.785 121 289.536 121 285L121 260C121 255.74 121.661 250.959 120 247z"/>
<path style="fill:#6493af; stroke:none;" d="M121 247C121 261.666 121.077 276.334 120.999 291C120.97 296.63 120.053 304.836 115 308C114.354 310.8 111.919 311.894 110 314C113.942 314.296 118.092 313.705 122 313C123.645 307.669 131.249 307.643 136 308C135.35 306.7 135.853 307 134 307L147 304C144.893 290.008 135.458 276.248 130.412 263.06C128.379 257.745 126.132 249.962 121 247z"/>
<path style="fill:#5971b1; stroke:none;" d="M123 247C124.166 251.708 127.074 255.952 128.996 260.424C132.805 269.285 136.272 278.236 140.316 287C142.437 291.597 143.713 298.075 148 301C149.415 283.215 153.732 264.323 158 247L123 247z"/>
<path style="fill:#304a8c; stroke:none;" d="M147 304C157.619 306.28 167.924 311.556 178 315.55C190.895 320.662 204.086 325.05 217 330.133C222.585 332.332 228.231 334.782 233.999 336.465C235.781 336.985 238.495 337.811 239.968 336.167C241.39 334.583 240.674 331.855 240.42 329.999C239.776 325.304 238.603 320.698 238.051 316C235.623 295.329 228.896 274.87 228 254L224 256C224.722 253.582 224.948 251.528 225 249L189 249C199.806 245.806 213.744 248 225 248C220.031 245.915 213.35 247 208 247L174 247C170.126 247 160.763 245.293 158.013 248.603C154.797 252.475 154.565 263.08 153.946 268C152.429 280.064 148.564 291.889 147 304z"/>
<path style="fill:#26375d; stroke:none;" d="M225 247C214.194 250.194 200.256 248 189 248C192.959 249.661 197.74 249 202 249L225 249C224.89 251.442 224.572 253.623 224 256C227.303 253.637 226.773 250.361 225 247z"/>
<path style="fill:#5971b1; stroke:none;" d="M226 247C226.299 250.292 227.709 252.986 228.284 256.17C230.42 267.993 231.473 280.131 233.614 292C236.279 306.773 240.355 321.974 241 337C248.691 332.657 252.626 320.621 256.449 313.06C264.378 297.377 273.639 282.357 282.282 267.06C285.71 260.994 290.628 254.903 292 248L334 248C330.301 246.448 325.983 247 322 247L301 247L226 247z"/>
<path style="fill:#304a8c; stroke:none;" d="M296 248C307.658 252.892 322.846 246.008 334.985 249.573C341.462 251.475 347.063 259.23 352.039 263.565C364.257 274.208 378.01 284.128 389 296C391.455 289.696 386.133 282.082 384.475 276C382.53 268.864 380.056 261.921 377.463 255C376.654 252.841 376.365 249.513 374.411 248.028C370.293 244.896 359 247 354 247C334.651 247 315.387 248 296 248z"/>
<path style="fill:#26375d; stroke:none;" d="M375 247C378.305 259.74 382.685 272.684 387.343 285C388.491 288.034 388.988 294.938 392.314 296.357C394.334 297.219 396.925 296.385 399 296.166C405.79 295.45 412.249 293.492 419 292.41C421.908 291.945 425.867 290.596 428.451 292.603C433.182 296.28 435.849 307.568 437.847 313C443.792 329.163 451.052 344.812 457 361L460 358C458.718 351.429 459.664 341.292 464 336C463.672 333.375 463.569 332.183 465 330C463.836 324.015 465.558 319.133 470 315C470.69 316.537 470.328 316.338 472 316C472.606 321.576 475.62 323.922 479 328C480.632 324.075 479.201 320.129 479.04 316C478.719 307.77 477.492 299.121 479 291C476.105 287.179 477.599 283.477 477.505 279C477.392 273.608 475.974 269.529 477 264C473.742 264 474.329 251.186 475 248C465.037 245.055 452.369 247 442 247L375 247z"/>
<path style="fill:#3d59a4; stroke:none;" d="M128 248C135.438 251.121 145.039 248.105 153 250C150.897 247.593 148.106 248.006 145 248L128 248M231 250C238.12 248.305 245.719 249 253 249L291 249C286.531 247.125 280.809 248 276 248L246 248C241.589 248 234.086 246.469 231 250M292 248C286.83 262.203 276.806 275.113 269.323 288.17C262.065 300.835 255.91 314.278 248.691 326.999C246.101 331.564 242.2 335.274 240 340C245.842 341.499 250.393 346.216 255.09 349.796C263.335 356.08 272.203 361.633 280.424 367.874C284.502 370.97 288.834 377.117 294.17 378.077C300.284 379.178 308.445 374.162 314.171 372.421C323.882 369.467 333.972 368.267 344 367L344 364L360 363L360 360C365.657 360 374.621 361.06 379.276 357.066C382.527 354.278 382.878 348.896 383.424 344.999C384.731 335.662 385.87 326.308 387.208 317C388.012 311.41 393.251 300.914 389.697 295.839C386.902 291.849 381.608 288.905 377.961 285.737C369.257 278.177 360.686 270.37 352.039 262.725C347.397 258.621 342.021 251.388 335.961 249.573C331.091 248.114 325.034 249 320 249C310.567 249 301.379 248.74 292 248z"/>
<path style="fill:#020318; stroke:none;" d="M474.333 249.667C474.278 249.722 474.222 250.778 474.667 250.333C474.722 250.278 474.778 249.222 474.333 249.667z"/>
<path style="fill:#98c1be; stroke:none;" d="M475 249L476 250L475 249z"/>
<path style="fill:#091652; stroke:none;" d="M475 250C475.031 251.832 474.921 251.559 476 253C475.749 251.548 475.685 251.248 475 250z"/>
<path style="fill:#020318; stroke:none;" d="M475 253L475 259C475.951 256.715 475.951 255.285 475 253z"/>
<path style="fill:#6493af; stroke:none;" d="M228 254L228 258C228.71 256.24 228.71 255.759 228 254z"/>
<path style="fill:#3d59a4; stroke:none;" d="M155.333 258.667C155.278 258.722 155.222 259.778 155.667 259.333C155.722 259.278 155.778 258.222 155.333 258.667z"/>
<path style="fill:#091652; stroke:none;" d="M475 259L475 265C475.951 262.715 475.951 261.285 475 259z"/>
<path style="fill:#8396b5; stroke:none;" d="M476.333 259.667C476.278 259.722 476.222 260.778 476.667 260.333C476.722 260.278 476.778 259.222 476.333 259.667z"/>
<path style="fill:#58708c; stroke:none;" d="M476 261L476 264C476.696 262.446 476.696 262.554 476 261z"/>
<path style="fill:#020318; stroke:none;" d="M476 266L476 275C477.256 272.006 477.256 268.994 476 266z"/>
<path style="fill:#3d59a4; stroke:none;" d="M153 268L153 272C153.71 270.24 153.71 269.759 153 268z"/>
<path style="fill:#afc1d5; stroke:none;" d="M477 272L477 275C477.696 273.446 477.696 273.554 477 272z"/>
<path style="fill:#58708c; stroke:none;" d="M477.333 275.667C477.278 275.722 477.222 276.778 477.667 276.333C477.722 276.278 477.778 275.222 477.333 275.667z"/>
<path style="fill:#020318; stroke:none;" d="M477 280L477 291C478.431 287.59 478.431 283.41 477 280z"/>
<path style="fill:#bbd7dd; stroke:none;" d="M478 285L478 288C478.696 286.446 478.696 286.554 478 285z"/>
<path style="fill:#8396b5; stroke:none;" d="M478 288L478 291C478.696 289.446 478.696 289.554 478 288z"/>
<path style="fill:#304a8c; stroke:none;" d="M391 297C390.136 310.584 385.788 324.36 384.155 338C383.469 343.727 383.699 352.043 379.276 356.451C374.844 360.868 365.7 360 360 360L360 363L344 364L344 367C331.493 367.987 319.226 370.368 307.561 374.946C304.459 376.163 298.023 375.328 296.737 379.255C295.935 381.701 298.566 384.294 299.889 386.035C303.722 391.081 307.664 396.019 311.434 401.116C315.607 406.756 319.886 412.252 324.219 417.745C326.051 420.068 327.184 423.64 330.099 424.882C333.137 426.177 336.039 423.033 338.174 421.31C343.776 416.79 351.727 412.589 355 406L357 406C359.28 415.85 363.878 425.115 366 435C366.685 433.752 366.749 433.452 367 432C372.539 436.616 378.061 430.265 381 431L381 429L383 430L383 428L385 429C386.675 425.65 389.071 425.709 392 424C395.677 421.855 398.61 419.825 402 417L403 418C406.276 417.017 409.938 415.062 412 413L413 414L413 412L415 413C419.927 407.132 425.267 402.018 429.469 395.626C431.13 393.1 433.394 391.964 434 389C438.772 386.577 443.955 380.978 446 376L448 377C449.221 375.169 451.304 372.089 452 370C452.52 368.44 450.528 368.573 451 367L453 366C454.442 364.197 455.289 363.711 457 362L458 363C452.285 344.932 443.759 327.721 437.116 310C435.509 305.714 432.29 293.467 427.701 291.639C424.652 290.424 420.105 292.093 417 292.576C408.231 293.939 399.906 296.297 391 297z"/>
<path style="fill:#1b317a; stroke:none;" d="M233 293L233 296C233.696 294.446 233.696 294.554 233 293z"/>
<path style="fill:#020318; stroke:none;" d="M478 293L478 304C479.431 300.59 479.431 296.41 478 293z"/>
<path style="fill:#8396b5; stroke:none;" d="M119 300L120 301L119 300z"/>
<path style="fill:#afc1d5; stroke:none;" d="M479.333 300.667C479.278 300.722 479.222 301.778 479.667 301.333C479.722 301.278 479.778 300.222 479.333 300.667z"/>
<path style="fill:#98c1be; stroke:none;" d="M118 301L119 302L118 301z"/>
<path style="fill:#8396b5; stroke:none;" d="M236.333 302.667C236.278 302.722 236.222 303.778 236.667 303.333C236.722 303.278 236.778 302.222 236.333 302.667M479.333 302.667C479.278 302.722 479.222 303.778 479.667 303.333C479.722 303.278 479.778 302.222 479.333 302.667z"/>
<path style="fill:#3d59a4; stroke:none;" d="M117 303L117 305C118.635 304.455 118.455 304.635 119 303L117 303z"/>
<path style="fill:#77a9c9; stroke:none;" d="M116 304L117 305L116 304M118 304L119 305L118 304z"/>
<path style="fill:#5971b1; stroke:none;" d="M144 304C142.73 306.612 141.277 308.191 139 310C141.345 316.098 145.91 320.515 149.949 325.514C154.995 331.759 159.406 338.523 164.515 344.711C166.984 347.702 170.285 354.426 174.329 355.302C179.738 356.473 188.681 352.456 194 351.127C209.312 347.299 224.627 343.514 240 340C237.75 336.779 234.748 336.615 231 337C230.621 334.448 228.469 334.134 226 333.208L211 327.588C195.67 321.804 180.503 315.466 165 310.167C157.977 307.766 151.563 304.098 144 304z"/>
<path style="fill:#304a8c; stroke:none;" d="M479.333 304.667C479.278 304.722 479.222 305.778 479.667 305.333C479.722 305.278 479.778 304.222 479.333 304.667z"/>
<path style="fill:#5971b1; stroke:none;" d="M112 312C114.157 310.696 114.583 310.422 115 308C117.132 307.224 117.771 306.87 119 305C115.067 306.157 113.477 308.229 112 312z"/>
<path style="fill:#304a8c; stroke:none;" d="M120 313C120.65 314.3 120.147 314 122 314C117.29 315.68 111.958 316.284 107 317C108.775 318.387 109.77 318.895 112 319C114.627 324.376 119.236 327.462 125 325L124 322L125 321L128 322C128.458 320.627 128.737 317.982 130 317C131.637 315.727 134.401 316.041 136 317L135 318C138.229 318 137.271 320.441 138.333 323C139.906 326.786 142.65 328.562 143 333C147.387 335.535 148.36 340.677 150.63 345C155.473 354.223 159.751 363.49 164 373C167.403 373.961 169.727 377 172.25 379.449C177.516 384.562 182.198 390.494 188 395L189 392C181.97 383.087 180.475 369.054 175 359C186.556 356.281 199.706 361.158 211 363.487C225.209 366.417 239.709 368.833 254 371.321C266.463 373.49 279.293 376.965 292 377C280.843 366.934 268.107 358.755 256.039 349.796C251.59 346.492 245.926 340.113 239.96 340.148C233.835 340.185 226.901 342.712 221 344.265C211.717 346.709 202.316 348.798 193 351.127C188.05 352.364 179.347 356.263 174.329 354.818C170.938 353.842 168.597 348.993 166.561 346.385C161.17 339.48 156.081 332.339 150.586 325.514C147.724 321.958 143.781 316.488 139 319L137 314C138.186 315.186 138.584 315.528 140 316C140.077 313.646 139.791 312.232 139 310C141.437 308.694 142.694 307.437 144 305C135.745 306.236 127.92 310.418 120 313z"/>
<path style="fill:#3d59a4; stroke:none;" d="M152.667 305.333C152.222 305.778 153.278 305.722 153.333 305.667C153.778 305.222 152.722 305.278 152.667 305.333z"/>
<path style="fill:#77a9c9; stroke:none;" d="M134 306C135.248 306.685 135.548 306.749 137 307C135.752 306.315 135.452 306.251 134 306z"/>
<path style="fill:#8396b5; stroke:none;" d="M121 312C125.399 311.613 130.283 310.693 133 307C128.579 307.749 124.155 308.738 121 312z"/>
<path style="fill:#bbd7dd; stroke:none;" d="M113 308L114 309L113 308z"/>
<path style="fill:#3d59a4; stroke:none;" d="M160.667 308.333C160.222 308.778 161.278 308.722 161.333 308.667C161.778 308.222 160.722 308.278 160.667 308.333z"/>
<path style="fill:#020318; stroke:none;" d="M479 308L479 315C480.059 312.466 480.059 310.534 479 308z"/>
<path style="fill:#bbd7dd; stroke:none;" d="M110.333 311.667C110.278 311.722 110.222 312.778 110.667 312.333C110.722 312.278 110.778 311.222 110.333 311.667z"/>
<path style="fill:#afc1d5; stroke:none;" d="M111 311L112 312L111 311z"/>
<path style="fill:#8396b5; stroke:none;" d="M109 314C109.208 315.661 109.495 315.54 108 316C111.5 317.035 114.744 315.441 118 314C115.097 313.13 112.057 314.031 109 314z"/>
<path style="fill:#304a8c; stroke:none;" d="M465.333 313.667C465.278 313.722 465.222 314.778 465.667 314.333C465.722 314.278 465.778 313.222 465.333 313.667M110 314L111 315L110 314z"/>
<path style="fill:#1b317a; stroke:none;" d="M115 315C117.393 315.741 119.493 315.302 122 315C119.477 314.01 117.642 314.383 115 315z"/>
<path style="fill:#26375d; stroke:none;" d="M137 314L139 319C141.032 318.394 141.915 318.489 144 319C142.896 316.643 142.044 315.624 140 314L140 316C138.814 314.814 138.416 314.472 137 314z"/>
<path style="fill:#afc1d5; stroke:none;" d="M480 314L480 317C480.696 315.446 480.696 315.554 480 314M108 315L109 316L108 315z"/>
<path style="fill:#3d59a4; stroke:none;" d="M109 315L110 316L109 315z"/>
<path style="fill:#1b317a; stroke:none;" d="M469 315C469.104 317.861 469.523 318.549 472 320L472 316C470.263 316.062 470.36 316.02 469 315z"/>
<path style="fill:#091652; stroke:none;" d="M479 315C479.052 317.528 479.278 319.582 480 322C480.613 319.422 480.145 317.39 479 315M132 316L130 317C131.453 317.555 132.076 317.605 132 316z"/>
<path style="fill:#8396b5; stroke:none;" d="M133 316L134 317L133 316z"/>
<path style="fill:#020318; stroke:none;" d="M135 316L136 317L135 316z"/>
<path style="fill:#8396b5; stroke:none;" d="M467 316L468 317L467 316z"/>
<path style="fill:#5971b1; stroke:none;" d="M129 317L130 318L129 317z"/>
<path style="fill:#8396b5; stroke:none;" d="M132 317L133 318L132 317z"/>
<path style="fill:#1b317a; stroke:none;" d="M136 317C136.406 319.092 136.217 319.02 138 320C137.309 318.612 137.015 318.139 136 317z"/>
<path style="fill:#3d59a4; stroke:none;" d="M468 317L469 318L468 317z"/>
<path style="fill:#58708c; stroke:none;" d="M480 317L480 320C480.696 318.446 480.696 318.554 480 317z"/>
<path style="fill:#bbd7dd; stroke:none;" d="M105.667 318.333C105.222 318.778 106.278 318.722 106.333 318.667C106.778 318.222 105.722 318.278 105.667 318.333z"/>
<path style="fill:#091652; stroke:none;" d="M107 318C108.248 318.685 108.548 318.749 110 319C108.752 318.315 108.452 318.251 107 318z"/>
<path style="fill:#1b317a; stroke:none;" d="M129 318L129 320C130.635 319.455 130.455 319.635 131 318L129 318z"/>
<path style="fill:#afc1d5; stroke:none;" d="M131 318L132 319L131 318z"/>
<path style="fill:#6493af; stroke:none;" d="M466.333 318.667C466.278 318.722 466.222 319.778 466.667 319.333C466.722 319.278 466.778 318.222 466.333 318.667z"/>
<path style="fill:#1b317a; stroke:none;" d="M108 319C109.904 320.884 111.534 321.953 114 323L112 319L108 319z"/>
<path style="fill:#afc1d5; stroke:none;" d="M130 319L131 320L130 319z"/>
<path style="fill:#5971b1; stroke:none;" d="M109 320L110 321L109 320z"/>
<path style="fill:#091652; stroke:none;" d="M128 320L129 321L128 320z"/>
<path style="fill:#020318; stroke:none;" d="M137 320L138 321L137 320M465 320L464 329C465.404 326.078 466.104 323.08 465 320z"/>
<path style="fill:#afc1d5; stroke:none;" d="M466 320L467 321L466 320z"/>
<path style="fill:#091652; stroke:none;" d="M471 320C471.545 321.635 471.365 321.455 473 322L473 320L471 320z"/>
<path style="fill:#afc1d5; stroke:none;" d="M110 321L111 322L110 321z"/>
<path style="fill:#1b317a; stroke:none;" d="M125 321C124.014 322.479 124 322.203 124 324C125.766 323.021 125.955 322.778 125 321z"/>
<path style="fill:#091652; stroke:none;" d="M126.333 321.667C126.278 321.722 126.222 322.778 126.667 322.333C126.722 322.278 126.778 321.222 126.333 321.667z"/>
<path style="fill:#58708c; stroke:none;" d="M137 321L138 322L137 321z"/>
<path style="fill:#020318; stroke:none;" d="M473 322L474 323L473 322M480 322C479.903 324.717 479.702 327.305 480 330C481.161 327.23 481.161 324.77 480 322z"/>
<path style="fill:#8396b5; stroke:none;" d="M113 323L114 324L113 323z"/>
<path style="fill:#020318; stroke:none;" d="M114 323L115 324L114 323z"/>
<path style="fill:#58708c; stroke:none;" d="M138 323L139 324L138 323z"/>
<path style="fill:#020318; stroke:none;" d="M474 323L475 324L474 323z"/>
<path style="fill:#1b317a; stroke:none;" d="M115.667 324.333C115.222 324.778 116.278 324.722 116.333 324.667C116.778 324.222 115.722 324.278 115.667 324.333z"/>
<path style="fill:#3d59a4; stroke:none;" d="M202.667 324.333C202.222 324.778 203.278 324.722 203.333 324.667C203.778 324.222 202.722 324.278 202.667 324.333z"/>
<path style="fill:#58708c; stroke:none;" d="M465 324L466 325L465 324z"/>
<path style="fill:#3d59a4; stroke:none;" d="M116 325L117 326L116 325z"/>
<path style="fill:#091652; stroke:none;" d="M117 325L118 326L117 325z"/>
<path style="fill:#5971b1; stroke:none;" d="M139 325L140 326L139 325z"/>
<path style="fill:#091652; stroke:none;" d="M140 325L142 331C142.444 328.417 141.631 327.043 140 325z"/>
<path style="fill:#8396b5; stroke:none;" d="M465 325L466 326L465 325z"/>
<path style="fill:#091652; stroke:none;" d="M476 325C477.103 326.457 477.543 326.897 479 328C478.101 325.876 478.124 325.899 476 325z"/>
<path style="fill:#98c1be; stroke:none;" d="M117 326L118 327L117 326z"/>
<path style="fill:#1b317a; stroke:none;" d="M118 326C119.223 327.195 119.42 327.316 121 328C119.777 326.805 119.58 326.684 118 326z"/>
<path style="fill:#5971b1; stroke:none;" d="M122 326L123 327L122 326z"/>
<path style="fill:#bbd7dd; stroke:none;" d="M476 326L477 327L476 326z"/>
<path style="fill:#5971b1; stroke:none;" d="M121 327L122 328L121 327z"/>
<path style="fill:#8396b5; stroke:none;" d="M140 327L141 328L140 327z"/>
<path style="fill:#98c1be; stroke:none;" d="M477 327L478 328L477 327z"/>
<path style="fill:#afc1d5; stroke:none;" d="M120 328L121 329L120 328z"/>
<path style="fill:#8396b5; stroke:none;" d="M478 328L479 329L478 328M141 329L142 330L141 329M479 329L480 330L479 329M481 329L482 330L481 329z"/>
<path style="fill:#020318; stroke:none;" d="M463 330L463 334C463.71 332.24 463.71 331.76 463 330z"/>
<path style="fill:#58708c; stroke:none;" d="M464 330L465 331L464 330M480.667 330.333C480.222 330.778 481.278 330.722 481.333 330.667C481.778 330.222 480.722 330.278 480.667 330.333z"/>
<path style="fill:#afc1d5; stroke:none;" d="M142 331L143 332L142 331M464 331L465 332L464 331z"/>
<path style="fill:#8396b5; stroke:none;" d="M481 331L482 332L481 331z"/>
<path style="fill:#afc1d5; stroke:none;" d="M143 333L144 334L143 333z"/>
<path style="fill:#1b317a; stroke:none;" d="M144 333C144.739 335.567 145.682 337.673 147 340C147.647 336.877 146.598 334.778 144 333z"/>
<path style="fill:#afc1d5; stroke:none;" d="M144 335L145 336L144 335z"/>
<path style="fill:#6493af; stroke:none;" d="M231.667 336.333C231.222 336.778 232.278 336.722 232.333 336.667C232.778 336.222 231.722 336.278 231.667 336.333z"/>
<path style="fill:#020318; stroke:none;" d="M462 336C461.11 343.005 459.303 349.934 459 357C461.409 351.987 464.044 341.237 462 336z"/>
<path style="fill:#8396b5; stroke:none;" d="M463 336L464 337L463 336z"/>
<path style="fill:#1b317a; stroke:none;" d="M239.667 337.333C239.222 337.778 240.278 337.722 240.333 337.667C240.778 337.222 239.722 337.278 239.667 337.333z"/>
<path style="fill:#bbd7dd; stroke:none;" d="M463 337L464 338L463 337z"/>
<path style="fill:#58708c; stroke:none;" d="M147 340L148 341L147 340z"/>
<path style="fill:#020318; stroke:none;" d="M148.333 340.667C148.278 340.722 148.222 341.778 148.667 341.333C148.722 341.278 148.778 340.222 148.333 340.667z"/>
<path style="fill:#58708c; stroke:none;" d="M462 341L463 342L462 341M148 342L149 343L148 342z"/>
<path style="fill:#091652; stroke:none;" d="M149.333 342.667C149.278 342.722 149.222 343.778 149.667 343.333C149.722 343.278 149.778 342.222 149.333 342.667z"/>
<path style="fill:#afc1d5; stroke:none;" d="M462 342L463 343L462 342z"/>
<path style="fill:#58708c; stroke:none;" d="M149 344L150 345L149 344z"/>
<path style="fill:#091652; stroke:none;" d="M460.333 344.667C460.278 344.722 460.222 345.778 460.667 345.333C460.722 345.278 460.778 344.222 460.333 344.667z"/>
<path style="fill:#020318; stroke:none;" d="M150 345L151 348C151.401 346.234 151.289 346.443 150 345z"/>
<path style="fill:#6493af; stroke:none;" d="M150 346L151 347L150 346z"/>
<path style="fill:#3d59a4; stroke:none;" d="M461 346L462 347L461 346z"/>
<path style="fill:#8396b5; stroke:none;" d="M461 347L462 348L461 347M151 348L152 349L151 348z"/>
<path style="fill:#1b317a; stroke:none;" d="M152 348L155 356C155.687 352.674 154.298 350.378 152 348z"/>
<path style="fill:#8396b5; stroke:none;" d="M152 350L153 351L152 350z"/>
<path style="fill:#afc1d5; stroke:none;" d="M153 352L154 353L153 352z"/>
<path style="fill:#58708c; stroke:none;" d="M460 352L461 353L460 352z"/>
<path style="fill:#98c1be; stroke:none;" d="M460 353L461 354L460 353z"/>
<path style="fill:#afc1d5; stroke:none;" d="M154 354L155 355L154 354M155 356L156 357L155 356z"/>
<path style="fill:#020318; stroke:none;" d="M156 356L157 357L156 356z"/>
<path style="fill:#091652; stroke:none;" d="M156 357L158 361C158.369 358.777 157.86 358.265 156 357z"/>
<path style="fill:#26375d; stroke:none;" d="M175 359C177.616 365.693 180.62 372.308 183.044 379.075C184.478 383.08 185.759 389.278 189 392C188.668 394.995 189.427 396.427 191 399C197.816 397.377 204.144 398.441 211 398.91C219.856 399.517 229.145 399.891 238 399.996C244.851 400.078 254.688 398.166 261 401.164C271.069 405.948 280.209 416.373 288.514 423.721C304.548 437.906 321.146 451.408 337.614 465.093C344.588 470.889 351.897 478.984 360 483C359.151 480.454 358.51 479.484 360 477L361 478C359.9 473.369 359.608 469.62 363 466C361.46 461.381 362.417 452.305 365 448L366 449C365.516 446.294 365.431 445.224 367 443C366.342 439.675 366.703 436.299 365.942 433C363.986 424.516 360.011 416.487 358 408C350.824 408.796 344.539 415.372 339.09 419.8C337.009 421.492 333.99 425.302 330.921 424.537C327.143 423.595 322.92 415.888 320.579 412.848C314.525 404.982 308.973 396.732 302.848 388.911C300.328 385.694 297.882 381.396 294.53 378.97C291.728 376.942 288.257 377.124 285 376.537C278.029 375.28 270.963 374.648 264 373.384C252.944 371.377 242.059 368.246 231 366.321C224.389 365.17 217.536 364.776 211 363.254C200.278 360.756 185.877 355.792 175 359z"/>
<path style="fill:#020318; stroke:none;" d="M458 358L458 363C458.83 360.97 458.83 360.03 458 358z"/>
<path style="fill:#8396b5; stroke:none;" d="M459 358L460 359L459 358z"/>
<path style="fill:#afc1d5; stroke:none;" d="M459 359L460 360L459 359z"/>
<path style="fill:#5971b1; stroke:none;" d="M158 361L159 362L158 361z"/>
<path style="fill:#3d59a4; stroke:none;" d="M456 362C453.832 364.357 451.885 365.847 451 369C453.605 367.529 456.457 365.052 456 362z"/>
<path style="fill:#58708c; stroke:none;" d="M159 363L160 364L159 363z"/>
<path style="fill:#091652; stroke:none;" d="M457 363C456.014 364.479 456 364.203 456 366C457.289 364.557 457.401 364.766 457 363z"/>
<path style="fill:#58708c; stroke:none;" d="M458 363L459 364L458 363z"/>
<path style="fill:#020318; stroke:none;" d="M160 364L161 365L160 364z"/>
<path style="fill:#58708c; stroke:none;" d="M160 365L161 366L160 365z"/>
<path style="fill:#1b317a; stroke:none;" d="M166.333 365.667C166.278 365.722 166.222 366.778 166.667 366.333C166.722 366.278 166.778 365.222 166.333 365.667M455 365C453.077 367.223 451.969 369.224 451 372C453.42 369.978 455.272 368.241 455 365z"/>
<path style="fill:#afc1d5; stroke:none;" d="M456 366L457 367L456 366z"/>
<path style="fill:#5971b1; stroke:none;" d="M455 367L456 368L455 367z"/>
<path style="fill:#58708c; stroke:none;" d="M454 368L455 369L454 368z"/>
<path style="fill:#8396b5; stroke:none;" d="M162 369L163 370L162 369z"/>
<path style="fill:#afc1d5; stroke:none;" d="M163 371L164 372L163 371z"/>
<path style="fill:#5971b1; stroke:none;" d="M165 372C166.187 379.472 173.072 384.691 173 393C177.496 396.227 178.16 400.197 180.25 405C182.046 409.126 184.894 412.825 186.528 417C187.735 420.086 187.301 426.086 191 426L190 429C193.905 432.863 196.922 438.455 197 444C199.928 444 200.321 447.427 201.5 450C204.844 457.295 206.838 464.209 211 471C212.442 464.572 207.568 457.505 207 451L203 451C206.38 444.169 201.675 435.905 200 429C198.678 423.549 196.453 418.411 195.025 413C193.726 408.077 193.032 401.887 190.33 397.518C188.264 394.176 184.74 391.551 182.035 388.735C176.533 383.005 171.151 377.043 165 372z"/>
<path style="fill:#020318; stroke:none;" d="M450 372L449 374C450.263 373.029 450.392 373.306 450 372z"/>
<path style="fill:#8396b5; stroke:none;" d="M164 373L165 374L164 373z"/>
<path style="fill:#afc1d5; stroke:none;" d="M450 373L451 374L450 373z"/>
<path style="fill:#5971b1; stroke:none;" d="M449 374L450 375L449 374z"/>
<path style="fill:#1b317a; stroke:none;" d="M166 376L167 377L166 376z"/>
<path style="fill:#091652; stroke:none;" d="M446.333 376.667C446.278 376.722 446.222 377.778 446.667 377.333C446.722 377.278 446.778 376.222 446.333 376.667z"/>
<path style="fill:#6493af; stroke:none;" d="M166 377L167 378L166 377z"/>
<path style="fill:#26375d; stroke:none;" d="M167.333 377.667C167.278 377.722 167.222 378.778 167.667 378.333C167.722 378.278 167.778 377.222 167.333 377.667z"/>
<path style="fill:#5971b1; stroke:none;" d="M442 377L441 379C442.263 378.029 442.392 378.306 442 377z"/>
<path style="fill:#020318; stroke:none;" d="M445 378L446 379L445 378z"/>
<path style="fill:#3d59a4; stroke:none;" d="M167 379L171 388C171.842 384.976 170.521 382.083 170 379L167 379z"/>
<path style="fill:#091652; stroke:none;" d="M444 379L445 380L444 379z"/>
<path style="fill:#bbd7dd; stroke:none;" d="M167 380L168 381L167 380z"/>
<path style="fill:#afc1d5; stroke:none;" d="M444 380L445 381L444 380z"/>
<path style="fill:#1b317a; stroke:none;" d="M441 381L439 386C441.044 384.376 441.896 383.357 443 381L441 381z"/>
<path style="fill:#5971b1; stroke:none;" d="M443 381L444 382L443 381z"/>
<path style="fill:#afc1d5; stroke:none;" d="M168 382L169 383L168 382z"/>
<path style="fill:#020318; stroke:none;" d="M438 385L437 388C438.289 386.557 438.401 386.766 438 385z"/>
<path style="fill:#afc1d5; stroke:none;" d="M170 386L171 387L170 386M439 386L440 387L439 386z"/>
<path style="fill:#8396b5; stroke:none;" d="M438 387L439 388L438 387z"/>
<path style="fill:#98c1be; stroke:none;" d="M171 388L172 389L171 388z"/>
<path style="fill:#26375d; stroke:none;" d="M172.333 388.667C172.278 388.722 172.222 389.778 172.667 389.333C172.722 389.278 172.778 388.222 172.333 388.667z"/>
<path style="fill:#091652; stroke:none;" d="M434 390C436.33 390.048 436.006 390.203 437 388C435.612 388.691 435.139 388.985 434 390z"/>
<path style="fill:#58708c; stroke:none;" d="M437 388L438 389L437 388z"/>
<path style="fill:#8396b5; stroke:none;" d="M172 390L173 391L172 390z"/>
<path style="fill:#1b317a; stroke:none;" d="M173 391L174 392L173 391z"/>
<path style="fill:#091652; stroke:none;" d="M434 391L435 392L434 391z"/>
<path style="fill:#1b317a; stroke:none;" d="M431 392L428 397C430.994 396.046 431.787 394.89 433 392L431 392z"/>
<path style="fill:#091652; stroke:none;" d="M433 392L432 394C433.263 393.029 433.392 393.306 433 392z"/>
<path style="fill:#3d59a4; stroke:none;" d="M174 393C175.004 396.484 176.61 399.658 178 403C179.589 398.915 176.929 395.768 174 393z"/>
<path style="fill:#afc1d5; stroke:none;" d="M433 393L434 394L433 393z"/>
<path style="fill:#5971b1; stroke:none;" d="M432 394L433 395L432 394z"/>
<path style="fill:#020318; stroke:none;" d="M429 397L430 398L429 397z"/>
<path style="fill:#304a8c; stroke:none;" d="M191 399C194.2 410.361 197.593 421.64 200.745 433C202.427 439.062 204.664 444.617 204 451C205.195 450.402 204.977 450.534 206 449C207.45 456.472 209.736 463.738 212 471L211 469C210.211 472.087 211.779 475.576 215 476L214 480L219 477C218.792 475.339 218.505 475.46 220 475L221 468C224.926 478.469 220.531 489.605 223.649 500C227.417 512.563 239.635 522.676 241 536L245 535C244.014 536.479 244 536.203 244 538C245.797 538 245.521 537.986 247 537C245.897 538.457 245.457 538.897 244 540C245.139 541.015 245.612 541.309 247 542L246 545C248.675 547.158 249.662 548.571 250 552C256.365 557.47 260.33 567.537 264 575C265.343 570.633 264 564.668 264 560C264 547.278 263.325 534.66 263.015 522C262.035 482.015 262 442.04 262 402C263.983 408.705 263.427 416.076 264.769 422.961C268.751 443.398 272.161 464.268 274.715 485C276.922 502.912 278.077 521.964 284 539L287 539L288 466C304.624 472.977 320.936 484.172 336.166 493.785C341.43 497.108 350.955 500.733 354 506L349 506C349.65 507.3 349.147 507 351 507C348.266 508.08 346.642 508.002 346 511C355.429 507.043 355.135 501.982 356.619 493C357.307 488.834 358.918 484.353 356.427 480.468C353.85 476.447 348.868 474.009 345.196 471.123C337.963 465.439 330.899 459.188 324 453.081C309.431 440.185 294.466 427.153 279.196 415.123C273.521 410.653 268.64 404.319 262 401.164C255.949 398.289 246.565 400.031 240 399.999C230.825 399.955 221.175 399.539 212 398.91C204.978 398.43 197.901 396.96 191 399z"/>
<path style="fill:#020318; stroke:none;" d="M428 398L429 399L428 398z"/>
<path style="fill:#8ac2d5; stroke:none;" d="M176 399L177 400L176 399z"/>
<path style="fill:#091652; stroke:none;" d="M427 399L428 400L427 399z"/>
<path style="fill:#8396b5; stroke:none;" d="M427 400L428 401L427 400M177 401L178 402L177 401z"/>
<path style="fill:#020318; stroke:none;" d="M425 401L426 402L425 401z"/>
<path style="fill:#5971b1; stroke:none;" d="M426 401L427 402L426 401z"/>
<path style="fill:#3d59a4; stroke:none;" d="M262 402C262 458.758 264 515.305 264 572C269.104 564.312 268.729 552.61 275 546L273 539L277 540C277.177 538.355 277.141 538.353 278 537C277.565 531.787 280.333 527.383 279.83 522C277.334 495.271 272.388 468.506 268.296 442C267.064 434.02 265.035 425.968 264.166 418C263.611 412.918 263.968 406.689 262 402z"/>
<path style="fill:#26375d; stroke:none;" d="M424 402C422.652 403.768 421.878 404.983 421 407C423.015 405.356 424.098 404.587 424 402z"/>
<path style="fill:#3d59a4; stroke:none;" d="M425 402L426 403L425 402z"/>
<path style="fill:#77a9c9; stroke:none;" d="M178 403L179 404L178 403z"/>
<path style="fill:#26375d; stroke:none;" d="M179.333 403.667C179.278 403.722 179.222 404.778 179.667 404.333C179.722 404.278 179.778 403.222 179.333 403.667z"/>
<path style="fill:#8396b5; stroke:none;" d="M179 405L180 406L179 405z"/>
<path style="fill:#304a8c; stroke:none;" d="M180.333 405.667C180.278 405.722 180.222 406.778 180.667 406.333C180.722 406.278 180.778 405.222 180.333 405.667z"/>
<path style="fill:#afc1d5; stroke:none;" d="M423 405L424 406L423 405z"/>
<path style="fill:#1b317a; stroke:none;" d="M355 406L355 408L357 408L357 406L355 406z"/>
<path style="fill:#091652; stroke:none;" d="M420.333 406.667C420.278 406.722 420.222 407.778 420.667 407.333C420.722 407.278 420.778 406.222 420.333 406.667z"/>
<path style="fill:#98c1be; stroke:none;" d="M422 406L423 407L422 406z"/>
<path style="fill:#8396b5; stroke:none;" d="M180 407L181 408L180 407z"/>
<path style="fill:#26375d; stroke:none;" d="M181.333 407.667C181.278 407.722 181.222 408.778 181.667 408.333C181.722 408.278 181.778 407.222 181.333 407.667z"/>
<path style="fill:#8396b5; stroke:none;" d="M421 407L422 408L421 407z"/>
<path style="fill:#26375d; stroke:none;" d="M419 408L418 410L420 410C420 408.147 420.3 408.65 419 408z"/>
<path style="fill:#3d59a4; stroke:none;" d="M420 408L421 409L420 408z"/>
<path style="fill:#8396b5; stroke:none;" d="M181 409L182 410L181 409z"/>
<path style="fill:#304a8c; stroke:none;" d="M182.333 409.667C182.278 409.722 182.222 410.778 182.667 410.333C182.722 410.278 182.778 409.222 182.333 409.667z"/>
<path style="fill:#091652; stroke:none;" d="M417 410L418 411L417 410z"/>
<path style="fill:#58708c; stroke:none;" d="M418 410L419 411L418 410z"/>
<path style="fill:#3d59a4; stroke:none;" d="M182 411C183.256 413.967 184.288 416.226 187 418C185.966 414.791 184.893 412.772 182 411z"/>
<path style="fill:#26375d; stroke:none;" d="M415.667 411.333C415.222 411.778 416.278 411.722 416.333 411.667C416.778 411.222 415.722 411.278 415.667 411.333z"/>
<path style="fill:#bbd7dd; stroke:none;" d="M182 412L183 413L182 412z"/>
<path style="fill:#091652; stroke:none;" d="M413 412L414 413L413 412z"/>
<path style="fill:#bbd7dd; stroke:none;" d="M415 412L416 413L415 412z"/>
<path style="fill:#091652; stroke:none;" d="M411 413L412 414L411 413z"/>
<path style="fill:#bbd7dd; stroke:none;" d="M413 413L414 414L413 413M183 414L184 415L183 414z"/>
<path style="fill:#afc1d5; stroke:none;" d="M411 414L412 415L411 414z"/>
<path style="fill:#091652; stroke:none;" d="M408 415L409 416L408 415z"/>
<path style="fill:#8396b5; stroke:none;" d="M409 415L410 416L409 415z"/>
<path style="fill:#1b317a; stroke:none;" d="M405.667 416.333C405.222 416.778 406.278 416.722 406.333 416.667C406.778 416.222 405.722 416.278 405.667 416.333z"/>
<path style="fill:#6493af; stroke:none;" d="M407 416L408 417L407 416z"/>
<path style="fill:#1b317a; stroke:none;" d="M401 417C398.227 419.288 394.962 420.993 393 424C396.725 422.448 400.149 420.881 403 418L401 417z"/>
<path style="fill:#020318; stroke:none;" d="M403.667 417.333C403.222 417.778 404.278 417.722 404.333 417.667C404.778 417.222 403.722 417.278 403.667 417.333z"/>
<path style="fill:#8396b5; stroke:none;" d="M405 417L406 418L405 417z"/>
<path style="fill:#afc1d5; stroke:none;" d="M185 418L186 419L185 418z"/>
<path style="fill:#26375d; stroke:none;" d="M186.333 418.667C186.278 418.722 186.222 419.778 186.667 419.333C186.722 419.278 186.778 418.222 186.333 418.667z"/>
<path style="fill:#58708c; stroke:none;" d="M403 418L404 419L403 418z"/>
<path style="fill:#8396b5; stroke:none;" d="M186 420L187 421L186 420z"/>
<path style="fill:#304a8c; stroke:none;" d="M187.333 420.667C187.278 420.722 187.222 421.778 187.667 421.333C187.722 421.278 187.778 420.222 187.333 420.667z"/>
<path style="fill:#bbd7dd; stroke:none;" d="M400 420L401 421L400 420z"/>
<path style="fill:#afc1d5; stroke:none;" d="M398 421L399 422L398 421z"/>
<path style="fill:#8396b5; stroke:none;" d="M187 422L188 423L187 422z"/>
<path style="fill:#afc1d5; stroke:none;" d="M396 422L397 423L396 422z"/>
<path style="fill:#304a8c; stroke:none;" d="M188 423L189 424L188 423z"/>
<path style="fill:#020318; stroke:none;" d="M392 423L393 424L392 423z"/>
<path style="fill:#8ac2d5; stroke:none;" d="M394 423L395 424L394 423z"/>
<path style="fill:#091652; stroke:none;" d="M390.667 424.333C390.222 424.778 391.278 424.722 391.333 424.667C391.778 424.222 390.722 424.278 390.667 424.333z"/>
<path style="fill:#afc1d5; stroke:none;" d="M392 424L393 425L392 424z"/>
<path style="fill:#020318; stroke:none;" d="M386 426C387.659 426.406 388.242 426.309 390 426C388.341 425.594 387.758 425.691 386 426z"/>
<path style="fill:#8396b5; stroke:none;" d="M390 425L391 426L390 425z"/>
<path style="fill:#26375d; stroke:none;" d="M190.333 426.667C190.278 426.722 190.222 427.778 190.667 427.333C190.722 427.278 190.778 426.222 190.333 426.667z"/>
<path style="fill:#8396b5; stroke:none;" d="M388 426L389 427L388 426z"/>
<path style="fill:#091652; stroke:none;" d="M385 427L386 428L385 427z"/>
<path style="fill:#58708c; stroke:none;" d="M386 427L387 428L386 427z"/>
<path style="fill:#091652; stroke:none;" d="M383 428L384 429L383 428z"/>
<path style="fill:#58708c; stroke:none;" d="M191.333 429.667C191.278 429.722 191.222 430.778 191.667 430.333C191.722 430.278 191.778 429.222 191.333 429.667z"/>
<path style="fill:#020318; stroke:none;" d="M381 429L382 430L381 429z"/>
<path style="fill:#091652; stroke:none;" d="M379 430L380 431L379 430z"/>
<path style="fill:#bbd7dd; stroke:none;" d="M191 431L192 432L191 431z"/>
<path style="fill:#304a8c; stroke:none;" d="M192.333 431.667C192.278 431.722 192.222 432.778 192.667 432.333C192.722 432.278 192.778 431.222 192.333 431.667z"/>
<path style="fill:#afc1d5; stroke:none;" d="M379 431L380 432L379 431z"/>
<path style="fill:#3d59a4; stroke:none;" d="M367 432L367 436L371 435C369.659 433.726 368.597 432.959 367 432z"/>
<path style="fill:#091652; stroke:none;" d="M376 432L377 433L376 432z"/>
<path style="fill:#8396b5; stroke:none;" d="M377 432L378 433L377 432z"/>
<path style="fill:#afc1d5; stroke:none;" d="M192 433L193 434L192 433z"/>
<path style="fill:#3d59a4; stroke:none;" d="M193.333 433.667C193.278 433.722 193.222 434.778 193.667 434.333C193.722 434.278 193.778 433.222 193.333 433.667z"/>
<path style="fill:#1b317a; stroke:none;" d="M373.667 433.333C373.222 433.778 374.278 433.722 374.333 433.667C374.778 433.222 373.722 433.278 373.667 433.333z"/>
<path style="fill:#8396b5; stroke:none;" d="M375 433L376 434L375 433z"/>
<path style="fill:#091652; stroke:none;" d="M369 435C370.659 435.406 371.242 435.309 373 435C371.341 434.594 370.758 434.691 369 435z"/>
<path style="fill:#8396b5; stroke:none;" d="M373 434L374 435L373 434z"/>
<path style="fill:#afc1d5; stroke:none;" d="M193 435L194 436L193 435z"/>
<path style="fill:#304a8c; stroke:none;" d="M194.333 435.667C194.278 435.722 194.222 436.778 194.667 436.333C194.722 436.278 194.778 435.222 194.333 435.667z"/>
<path style="fill:#5971b1; stroke:none;" d="M371 435L372 436L371 435z"/>
<path style="fill:#1b317a; stroke:none;" d="M367 436L367 438C368.635 437.455 368.455 437.635 369 436L367 436z"/>
<path style="fill:#5971b1; stroke:none;" d="M369 436L370 437L369 436z"/>
<path style="fill:#afc1d5; stroke:none;" d="M194 437L195 438L194 437z"/>
<path style="fill:#3d59a4; stroke:none;" d="M195 437L196 441C196.553 438.992 196.303 438.668 195 437z"/>
<path style="fill:#020318; stroke:none;" d="M366 437L366 442C366.83 439.97 366.83 439.03 366 437z"/>
<path style="fill:#8396b5; stroke:none;" d="M367 438L368 439L367 438M195 439L196 440L195 439M196 441L197 442L196 441z"/>
<path style="fill:#304a8c; stroke:none;" d="M197.333 441.667C197.278 441.722 197.222 442.778 197.667 442.333C197.722 442.278 197.778 441.222 197.333 441.667M198 443L199 448C199.651 445.766 199.318 444.926 198 443z"/>
<path style="fill:#020318; stroke:none;" d="M365 443L365 448C365.83 445.97 365.83 445.03 365 443z"/>
<path style="fill:#58708c; stroke:none;" d="M366 443L367 444L366 443z"/>
<path style="fill:#98c1be; stroke:none;" d="M366 444L367 445L366 444z"/>
<path style="fill:#1b317a; stroke:none;" d="M200 448L201 449L200 448z"/>
<path style="fill:#020318; stroke:none;" d="M364 448L364 453C364.83 450.97 364.83 450.03 364 448z"/>
<path style="fill:#3d59a4; stroke:none;" d="M200 449L201 452C201.685 450.752 201.749 450.452 202 449L200 449z"/>
<path style="fill:#6493af; stroke:none;" d="M203.333 449.667C203.278 449.722 203.222 450.778 203.667 450.333C203.722 450.278 203.778 449.222 203.333 449.667z"/>
<path style="fill:#8396b5; stroke:none;" d="M205.333 449.667C205.278 449.722 205.222 450.778 205.667 450.333C205.722 450.278 205.778 449.222 205.333 449.667z"/>
<path style="fill:#58708c; stroke:none;" d="M365 449L366 450L365 449z"/>
<path style="fill:#afc1d5; stroke:none;" d="M200 450L201 451L200 450M365 450L366 451L365 450M201 452L202 453L201 452z"/>
<path style="fill:#26375d; stroke:none;" d="M202.333 452.667C202.278 452.722 202.222 453.778 202.667 453.333C202.722 453.278 202.778 452.222 202.333 452.667z"/>
<path style="fill:#091652; stroke:none;" d="M363 453L363 456C364.015 454.861 364.309 454.388 365 453L363 453z"/>
<path style="fill:#8396b5; stroke:none;" d="M202 454L203 455L202 454z"/>
<path style="fill:#304a8c; stroke:none;" d="M364 454L365 455L364 454z"/>
<path style="fill:#1b317a; stroke:none;" d="M203 455L204 456L203 455z"/>
<path style="fill:#58708c; stroke:none;" d="M364 455L365 456L364 455z"/>
<path style="fill:#8396b5; stroke:none;" d="M203 456L204 457L203 456z"/>
<path style="fill:#3d59a4; stroke:none;" d="M204.333 456.667C204.278 456.722 204.222 457.778 204.667 457.333C204.722 457.278 204.778 456.222 204.333 456.667z"/>
<path style="fill:#020318; stroke:none;" d="M363 456C362.438 459.025 362.064 461.922 362 465C363.404 462.078 364.104 459.08 363 456z"/>
<path style="fill:#8396b5; stroke:none;" d="M204 458L205 459L204 458z"/>
<path style="fill:#1b317a; stroke:none;" d="M205 459L206 460L205 459z"/>
<path style="fill:#304a8c; stroke:none;" d="M363 460L364 461L363 460z"/>
<path style="fill:#8396b5; stroke:none;" d="M363 461L364 462L363 461z"/>
<path style="fill:#afc1d5; stroke:none;" d="M207 465L208 466L207 465z"/>
<path style="fill:#3d59a4; stroke:none;" d="M288 466C288 479.908 288.861 494.126 287.91 508C287.024 520.938 284.667 536.246 287 549C293.552 547.631 297.698 542.502 304 541C304 538.615 304.732 538.664 307 539L308 538L307 536C310.98 534.249 314.599 531.418 319 531C320.371 529.226 320.89 528.599 323 528C323 525.887 324.331 525.066 325 523C332.158 522.347 336.593 514.708 344 514C345.043 511.905 345.603 510.301 346 508L351 508C350.35 506.7 350.853 507 349 507L354 505L354 503C346.118 500.409 339.723 495.326 332.715 491.001C323.93 485.58 314.826 480.716 306 475.35C300.374 471.93 294.33 467.832 288 466z"/>
<path style="fill:#020318; stroke:none;" d="M361 466L361 470C361.71 468.241 361.71 467.759 361 466z"/>
<path style="fill:#58708c; stroke:none;" d="M362 466L363 467L362 466z"/>
<path style="fill:#afc1d5; stroke:none;" d="M208 467L209 468L208 467z"/>
<path style="fill:#1b317a; stroke:none;" d="M218.333 467.667C218.278 467.722 218.222 468.778 218.667 468.333C218.722 468.278 218.778 467.222 218.333 467.667z"/>
<path style="fill:#afc1d5; stroke:none;" d="M362 467L363 468L362 467z"/>
<path style="fill:#1b317a; stroke:none;" d="M221.333 468.667C221.278 468.722 221.222 469.778 221.667 469.333C221.722 469.278 221.778 468.222 221.333 468.667z"/>
<path style="fill:#091652; stroke:none;" d="M360 468C360.307 470.123 360.382 470.686 362 472C361.436 470.248 361.081 469.458 360 468z"/>
<path style="fill:#afc1d5; stroke:none;" d="M209 469L210 470L209 469z"/>
<path style="fill:#6493af; stroke:none;" d="M221 470L222 471L221 470z"/>
<path style="fill:#8396b5; stroke:none;" d="M210 471L211 472L210 471z"/>
<path style="fill:#091652; stroke:none;" d="M222 472L222 477C222.83 474.969 222.83 474.03 222 472z"/>
<path style="fill:#020318; stroke:none;" d="M360 472L360 477C360.83 474.97 360.83 474.03 360 472z"/>
<path style="fill:#afc1d5; stroke:none;" d="M361.333 472.667C361.278 472.722 361.222 473.778 361.667 473.333C361.722 473.278 361.778 472.222 361.333 472.667z"/>
<path style="fill:#8396b5; stroke:none;" d="M211 473L212 474L211 473z"/>
<path style="fill:#091652; stroke:none;" d="M219 473L220 474L219 473z"/>
<path style="fill:#8396b5; stroke:none;" d="M212 475L213 476L212 475z"/>
<path style="fill:#020318; stroke:none;" d="M218 475L219 476L218 475z"/>
<path style="fill:#1b317a; stroke:none;" d="M214.333 476.667C214.278 476.722 214.222 477.778 214.667 477.333C214.722 477.278 214.778 476.222 214.333 476.667z"/>
<path style="fill:#8396b5; stroke:none;" d="M213 477L214 478L213 477z"/>
<path style="fill:#020318; stroke:none;" d="M217 477L218 478L217 477z"/>
<path style="fill:#1b317a; stroke:none;" d="M222 477C222 485.436 220.075 493.974 223 502C224.864 494.239 222.486 485.155 224 477L222 477z"/>
<path style="fill:#020318; stroke:none;" d="M359 477L359 482C359.83 479.97 359.83 479.03 359 477z"/>
<path style="fill:#1b317a; stroke:none;" d="M215 478L215 482C216.434 480.607 217.045 479.767 218 478L215 478z"/>
<path style="fill:#8396b5; stroke:none;" d="M360 478L361 479L360 478z"/>
<path style="fill:#bbd7dd; stroke:none;" d="M360 479L361 480L360 479z"/>
<path style="fill:#afc1d5; stroke:none;" d="M216 481L217 482L216 481M221 481L221 485C221.71 483.24 221.71 482.76 221 481z"/>
<path style="fill:#77a9c9; stroke:none;" d="M215 482L216 483L215 482z"/>
<path style="fill:#1b317a; stroke:none;" d="M358.333 483.667C358.278 483.722 358.222 484.778 358.667 484.333C358.722 484.278 358.778 483.222 358.333 483.667z"/>
<path style="fill:#58708c; stroke:none;" d="M359 483L360 484L359 483z"/>
<path style="fill:#8ac2d5; stroke:none;" d="M359 484L360 485L359 484z"/>
<path style="fill:#8396b5; stroke:none;" d="M221 485L221 488C221.696 486.446 221.696 486.554 221 485z"/>
<path style="fill:#091652; stroke:none;" d="M358 485L358 488C358.696 486.446 358.696 486.554 358 485z"/>
<path style="fill:#5971b1; stroke:none;" d="M221 488L221 491C221.696 489.446 221.696 489.554 221 488z"/>
<path style="fill:#1b317a; stroke:none;" d="M357 488L357 491C358.015 489.861 358.309 489.388 359 488L357 488z"/>
<path style="fill:#6493af; stroke:none;" d="M358 489L359 490L358 489z"/>
<path style="fill:#bbd7dd; stroke:none;" d="M358 490L359 491L358 490z"/>
<path style="fill:#020318; stroke:none;" d="M357.333 491.667C357.278 491.722 357.222 492.778 357.667 492.333C357.722 492.278 357.778 491.222 357.333 491.667z"/>
<path style="fill:#1b317a; stroke:none;" d="M356 493L356 496C357.015 494.861 357.309 494.388 358 493L356 493z"/>
<path style="fill:#58708c; stroke:none;" d="M357 494L358 495L357 494z"/>
<path style="fill:#8396b5; stroke:none;" d="M357 495L358 496L357 495z"/>
<path style="fill:#091652; stroke:none;" d="M356 496L356 500C356.71 498.241 356.71 497.759 356 496z"/>
<path style="fill:#5971b1; stroke:none;" d="M221 498L222 499L221 498z"/>
<path style="fill:#8396b5; stroke:none;" d="M222 500L223 501L222 500M356 501L357 502L356 501z"/>
<path style="fill:#98c1be; stroke:none;" d="M223 502L224 503L223 502z"/>
<path style="fill:#091652; stroke:none;" d="M224.333 502.667C224.278 502.722 224.222 503.778 224.667 503.333C224.722 503.278 224.778 502.222 224.333 502.667M355 502L355 505C355.696 503.446 355.696 503.554 355 502z"/>
<path style="fill:#020318; stroke:none;" d="M225 504L226 505L225 504z"/>
<path style="fill:#58708c; stroke:none;" d="M225 505L226 506L225 505z"/>
<path style="fill:#091652; stroke:none;" d="M226 505L227 509C227.393 507.076 227.146 506.64 226 505M353 505L354 506L353 505z"/>
<path style="fill:#8396b5; stroke:none;" d="M355 505L356 506L355 505z"/>
<path style="fill:#58708c; stroke:none;" d="M226 507L227 508L226 507z"/>
<path style="fill:#afc1d5; stroke:none;" d="M352 507L353 508L352 507z"/>
<path style="fill:#8396b5; stroke:none;" d="M227 509L228 510L227 509z"/>
<path style="fill:#1b317a; stroke:none;" d="M228.333 509.667C228.278 509.722 228.222 510.778 228.667 510.333C228.722 510.278 228.778 509.222 228.333 509.667z"/>
<path style="fill:#091652; stroke:none;" d="M348 509L349 510L348 509z"/>
<path style="fill:#8396b5; stroke:none;" d="M349 509L350 510L349 509z"/>
<path style="fill:#77a9c9; stroke:none;" d="M228 511L229 512L228 511z"/>
<path style="fill:#091652; stroke:none;" d="M229.333 511.667C229.278 511.722 229.222 512.778 229.667 512.333C229.722 512.278 229.778 511.222 229.333 511.667z"/>
<path style="fill:#1b317a; stroke:none;" d="M345 511L346 512L345 511z"/>
<path style="fill:#8396b5; stroke:none;" d="M346 511L347 512L346 511z"/>
<path style="fill:#98c1be; stroke:none;" d="M229 513L230 514L229 513z"/>
<path style="fill:#26375d; stroke:none;" d="M230 513C230.547 514.875 231.11 516.255 232 518C232.375 515.581 231.693 514.782 230 513z"/>
<path style="fill:#5971b1; stroke:none;" d="M335 513L331 514C332.553 514.89 336.08 515.616 335 513z"/>
<path style="fill:#1b317a; stroke:none;" d="M342 513L343 514L342 513z"/>
<path style="fill:#26375d; stroke:none;" d="M340.667 514.333C340.222 514.778 341.278 514.722 341.333 514.667C341.778 514.222 340.722 514.278 340.667 514.333z"/>
<path style="fill:#bbd7dd; stroke:none;" d="M230 515L231 516L230 515z"/>
<path style="fill:#091652; stroke:none;" d="M339 515L340 516L339 515z"/>
<path style="fill:#6493af; stroke:none;" d="M340 515L341 516L340 515z"/>
<path style="fill:#304a8c; stroke:none;" d="M335 517C336.809 517.574 337.069 517.465 339 517C337.191 516.426 336.931 516.535 335 517z"/>
<path style="fill:#bbd7dd; stroke:none;" d="M339 516L340 517L339 516z"/>
<path style="fill:#3d59a4; stroke:none;" d="M232 518L233 519L232 518z"/>
<path style="fill:#091652; stroke:none;" d="M233 518L235 524C235.444 521.417 234.631 520.043 233 518z"/>
<path style="fill:#1b317a; stroke:none;" d="M331 521L336 519C333.491 518.434 332.78 519.152 331 521z"/>
<path style="fill:#bbd7dd; stroke:none;" d="M336 518L337 519L336 518z"/>
<path style="fill:#6493af; stroke:none;" d="M334 519L335 520L334 519z"/>
<path style="fill:#5971b1; stroke:none;" d="M233 520L234 521L233 520z"/>
<path style="fill:#afc1d5; stroke:none;" d="M333 520L334 521L333 520z"/>
<path style="fill:#091652; stroke:none;" d="M330 521L331 522L330 521z"/>
<path style="fill:#5971b1; stroke:none;" d="M331 521L332 522L331 521z"/>
<path style="fill:#8396b5; stroke:none;" d="M234 522L235 523L234 522z"/>
<path style="fill:#1b317a; stroke:none;" d="M327 524C328.58 523.316 328.777 523.195 330 522C328.42 522.684 328.223 522.805 327 524z"/>
<path style="fill:#afc1d5; stroke:none;" d="M330 522L331 523L330 522z"/>
<path style="fill:#304a8c; stroke:none;" d="M325 523L325 526L327 525C326.455 523.365 326.635 523.545 325 523z"/>
<path style="fill:#afc1d5; stroke:none;" d="M235 524L236 525L235 524z"/>
<path style="fill:#1b317a; stroke:none;" d="M236 524C236.776 526.132 237.13 526.771 239 528C238.045 526.233 237.434 525.393 236 524z"/>
<path style="fill:#77a9c9; stroke:none;" d="M327 524L328 525L327 524z"/>
<path style="fill:#091652; stroke:none;" d="M324 525L325 526L324 525z"/>
<path style="fill:#afc1d5; stroke:none;" d="M236 526L237 527L236 526z"/>
<path style="fill:#1b317a; stroke:none;" d="M322.667 526.333C322.222 526.778 323.278 526.722 323.333 526.667C323.778 526.222 322.722 526.278 322.667 526.333z"/>
<path style="fill:#8396b5; stroke:none;" d="M324 526L325 527L324 526z"/>
<path style="fill:#1b317a; stroke:none;" d="M321 527L322 528L321 527z"/>
<path style="fill:#020318; stroke:none;" d="M238 528L239 529L238 528z"/>
<path style="fill:#8396b5; stroke:none;" d="M280 528L281 529L280 528z"/>
<path style="fill:#1b317a; stroke:none;" d="M281 528C281.176 529.878 281.438 531.199 282 533C282.651 530.766 282.318 529.926 281 528z"/>
<path style="fill:#091652; stroke:none;" d="M320 528L321 529L320 528z"/>
<path style="fill:#8396b5; stroke:none;" d="M321 528L322 529L321 528z"/>
<path style="fill:#5971b1; stroke:none;" d="M238 529L239 530L238 529z"/>
<path style="fill:#091652; stroke:none;" d="M239 529L240 533C240.393 531.076 240.146 530.641 239 529z"/>
<path style="fill:#1b317a; stroke:none;" d="M319 529L320 530L319 529M278 530L277 536C278.305 533.819 278.736 532.433 278 530z"/>
<path style="fill:#8396b5; stroke:none;" d="M279 530L280 531L279 530z"/>
<path style="fill:#091652; stroke:none;" d="M317 530L318 531L317 530z"/>
<path style="fill:#58708c; stroke:none;" d="M239 531L240 532L239 531z"/>
<path style="fill:#1b317a; stroke:none;" d="M315.667 531.333C315.222 531.778 316.278 531.722 316.333 531.667C316.778 531.222 315.722 531.278 315.667 531.333z"/>
<path style="fill:#afc1d5; stroke:none;" d="M281 532L282 533L281 532z"/>
<path style="fill:#3d59a4; stroke:none;" d="M285 532L285 536C285.71 534.24 285.71 533.76 285 532z"/>
<path style="fill:#091652; stroke:none;" d="M314 532L315 533L314 532z"/>
<path style="fill:#6493af; stroke:none;" d="M315 532L316 533L315 532z"/>
<path style="fill:#5971b1; stroke:none;" d="M240 533L241 534L240 533z"/>
<path style="fill:#1b317a; stroke:none;" d="M246.333 533.667C246.278 533.722 246.222 534.778 246.667 534.333C246.722 534.278 246.778 533.222 246.333 533.667z"/>
<path style="fill:#5971b1; stroke:none;" d="M278 533L279 534L278 533z"/>
<path style="fill:#091652; stroke:none;" d="M282.333 533.667C282.278 533.722 282.222 534.778 282.667 534.333C282.722 534.278 282.778 533.222 282.333 533.667z"/>
<path style="fill:#304a8c; stroke:none;" d="M309 536C310.875 535.453 312.255 534.89 314 534C311.469 533.29 310.484 533.869 309 536z"/>
<path style="fill:#bbd7dd; stroke:none;" d="M278 534L279 535L278 534z"/>
<path style="fill:#1b317a; stroke:none;" d="M243 535L242 536L244 540C244.634 538.303 244.815 536.83 245 535L243 535z"/>
<path style="fill:#77a9c9; stroke:none;" d="M311 535L312 536L311 535z"/>
<path style="fill:#afc1d5; stroke:none;" d="M282 536L283 537L282 536z"/>
<path style="fill:#1b317a; stroke:none;" d="M307.667 536.333C307.222 536.778 308.278 536.722 308.333 536.667C308.778 536.222 307.722 536.278 307.667 536.333z"/>
<path style="fill:#5971b1; stroke:none;" d="M309 536L310 537L309 536z"/>
<path style="fill:#afc1d5; stroke:none;" d="M242 537L243 538L242 537z"/>
<path style="fill:#3d59a4; stroke:none;" d="M246 537C245.014 538.479 245 538.203 245 540C246.289 538.557 246.401 538.766 246 537z"/>
<path style="fill:#091652; stroke:none;" d="M276.333 537.667C276.278 537.722 276.222 538.778 276.667 538.333C276.722 538.278 276.778 537.222 276.333 537.667z"/>
<path style="fill:#afc1d5; stroke:none;" d="M277 537L278 538L277 537z"/>
<path style="fill:#091652; stroke:none;" d="M283.333 537.667C283.278 537.722 283.222 538.778 283.667 538.333C283.722 538.278 283.778 537.222 283.333 537.667z"/>
<path style="fill:#77a9c9; stroke:none;" d="M308 537L309 538L308 537z"/>
<path style="fill:#1b317a; stroke:none;" d="M285 538L284 543C286.28 541.36 286.5 540.362 285 538z"/>
<path style="fill:#091652; stroke:none;" d="M305 538L306 539L305 538z"/>
<path style="fill:#afc1d5; stroke:none;" d="M243 539L244 540L243 539z"/>
<path style="fill:#5971b1; stroke:none;" d="M273 539L273 542C274.195 540.777 274.316 540.58 275 539L273 539z"/>
<path style="fill:#1b317a; stroke:none;" d="M275 539L274 543C275.656 541.596 275.751 541.046 275 539z"/>
<path style="fill:#6493af; stroke:none;" d="M283 539L284 540L283 539z"/>
<path style="fill:#1b317a; stroke:none;" d="M303.667 539.333C303.222 539.778 304.278 539.722 304.333 539.667C304.778 539.222 303.722 539.278 303.667 539.333z"/>
<path style="fill:#afc1d5; stroke:none;" d="M305 539L306 540L305 539z"/>
<path style="fill:#bbd7dd; stroke:none;" d="M276 540L277 541L276 540z"/>
<path style="fill:#020318; stroke:none;" d="M284.333 540.667C284.278 540.722 284.222 541.778 284.667 541.333C284.722 541.278 284.778 540.222 284.333 540.667M245 541L246 542L245 541z"/>
<path style="fill:#1b317a; stroke:none;" d="M297 543C299.022 543.269 300.043 542.808 302 542C299.978 541.731 298.957 542.192 297 543z"/>
<path style="fill:#8396b5; stroke:none;" d="M302 541L303 542L302 541z"/>
<path style="fill:#58708c; stroke:none;" d="M245 542L246 543L245 542z"/>
<path style="fill:#091652; stroke:none;" d="M246.333 542.667C246.278 542.722 246.222 543.778 246.667 543.333C246.722 543.278 246.778 542.222 246.333 542.667z"/>
<path style="fill:#58708c; stroke:none;" d="M300 542L301 543L300 542z"/>
<path style="fill:#8396b5; stroke:none;" d="M275 543L276 544L275 543z"/>
<path style="fill:#77a9c9; stroke:none;" d="M284 543L285 544L284 543z"/>
<path style="fill:#091652; stroke:none;" d="M285 543L285 546C285.696 544.446 285.696 544.554 285 543z"/>
<path style="fill:#8396b5; stroke:none;" d="M299 543L300 544L299 543z"/>
<path style="fill:#091652; stroke:none;" d="M274 544L275 545L274 544M296 544L297 545L296 544z"/>
<path style="fill:#5971b1; stroke:none;" d="M297 544L298 545L297 544z"/>
<path style="fill:#020318; stroke:none;" d="M247 545L248 546L247 545z"/>
<path style="fill:#8396b5; stroke:none;" d="M296 545L297 546L296 545z"/>
<path style="fill:#5971b1; stroke:none;" d="M247 546L248 547L247 546z"/>
<path style="fill:#091652; stroke:none;" d="M248 546C248.547 547.875 249.11 549.255 250 551C250.375 548.581 249.693 547.782 248 546z"/>
<path style="fill:#1b317a; stroke:none;" d="M273 546L272 552C273.305 549.819 273.736 548.433 273 546z"/>
<path style="fill:#77a9c9; stroke:none;" d="M274 546L275 547L274 546z"/>
<path style="fill:#1b317a; stroke:none;" d="M285.667 546.333C285.222 546.778 286.278 546.722 286.333 546.667C286.778 546.222 285.722 546.278 285.667 546.333z"/>
<path style="fill:#afc1d5; stroke:none;" d="M295 546L296 547L295 546M285 547L286 548L285 547z"/>
<path style="fill:#020318; stroke:none;" d="M286 547L286 550C286.696 548.446 286.696 548.554 286 547z"/>
<path style="fill:#26375d; stroke:none;" d="M290 549C291.58 548.316 291.777 548.195 293 547C291.42 547.684 291.223 547.805 290 549z"/>
<path style="fill:#5971b1; stroke:none;" d="M293 547L294 548L293 547z"/>
<path style="fill:#6493af; stroke:none;" d="M248 548L249 549L248 548z"/>
<path style="fill:#afc1d5; stroke:none;" d="M292 548L293 549L292 548z"/>
<path style="fill:#8396b5; stroke:none;" d="M273 549L274 550L273 549z"/>
<path style="fill:#304a8c; stroke:none;" d="M287 552C288.457 550.897 288.897 550.457 290 549C287.636 549.482 287.482 549.636 287 552z"/>
<path style="fill:#5971b1; stroke:none;" d="M290 549L291 550L290 549z"/>
<path style="fill:#8396b5; stroke:none;" d="M249 550L250 551L249 550z"/>
<path style="fill:#5971b1; stroke:none;" d="M286 550L287 551L286 550z"/>
<path style="fill:#afc1d5; stroke:none;" d="M289 550L290 551L289 550M286 551L287 552L286 551z"/>
<path style="fill:#bbd7dd; stroke:none;" d="M250 552L251 553L250 552z"/>
<path style="fill:#091652; stroke:none;" d="M251 552L252 553L251 552M271 552L271 555C271.696 553.446 271.696 553.554 271 552z"/>
<path style="fill:#afc1d5; stroke:none;" d="M272 552L273 553L272 552z"/>
<path style="fill:#1b317a; stroke:none;" d="M251 553L253 557C253.369 554.777 252.86 554.265 251 553z"/>
<path style="fill:#bbd7dd; stroke:none;" d="M251 554L252 555L251 554z"/>
<path style="fill:#8396b5; stroke:none;" d="M271 555L272 556L271 555z"/>
<path style="fill:#091652; stroke:none;" d="M270.333 556.667C270.278 556.722 270.222 557.778 270.667 557.333C270.722 557.278 270.778 556.222 270.333 556.667z"/>
<path style="fill:#5971b1; stroke:none;" d="M253 557L254 558L253 557z"/>
<path style="fill:#091652; stroke:none;" d="M254.333 557.667C254.278 557.722 254.222 558.778 254.667 558.333C254.722 558.278 254.778 557.222 254.333 557.667z"/>
<path style="fill:#1b317a; stroke:none;" d="M269 558L269 561C269.696 559.446 269.696 559.554 269 558z"/>
<path style="fill:#5971b1; stroke:none;" d="M270 558L271 559L270 558M254 559L255 560L254 559z"/>
<path style="fill:#091652; stroke:none;" d="M255 560L256 561L255 560z"/>
<path style="fill:#8396b5; stroke:none;" d="M255 561L256 562L255 561z"/>
<path style="fill:#1b317a; stroke:none;" d="M256.333 561.667C256.278 561.722 256.222 562.778 256.667 562.333C256.722 562.278 256.778 561.222 256.333 561.667z"/>
<path style="fill:#091652; stroke:none;" d="M268 561L268 564C268.696 562.446 268.696 562.554 268 561z"/>
<path style="fill:#5971b1; stroke:none;" d="M269 561L270 562L269 561z"/>
<path style="fill:#8ac2d5; stroke:none;" d="M256 563L257 564L256 563z"/>
<path style="fill:#020318; stroke:none;" d="M257 563L258 564L257 563z"/>
<path style="fill:#1b317a; stroke:none;" d="M257.667 564.333C257.222 564.778 258.278 564.722 258.333 564.667C258.778 564.222 257.722 564.278 257.667 564.333z"/>
<path style="fill:#304a8c; stroke:none;" d="M267 564L265 571C267.498 569.1 268.051 566.954 267 564z"/>
<path style="fill:#58708c; stroke:none;" d="M268 564L269 565L268 564z"/>
<path style="fill:#bbd7dd; stroke:none;" d="M257 565L258 566L257 565z"/>
<path style="fill:#020318; stroke:none;" d="M258 565L259 566L258 565z"/>
<path style="fill:#afc1d5; stroke:none;" d="M268 565L269 566L268 565z"/>
<path style="fill:#1b317a; stroke:none;" d="M258 566C259.163 568.217 260.086 569.394 262 571L263 570C261.376 567.956 260.357 567.104 258 566z"/>
<path style="fill:#58708c; stroke:none;" d="M260 570L261 571L260 570z"/>
<path style="fill:#020318; stroke:none;" d="M261 571L262 574C262.401 572.234 262.289 572.443 261 571z"/>
<path style="fill:#26375d; stroke:none;" d="M265 571L265 574C265.696 572.446 265.696 572.554 265 571z"/>
<path style="fill:#afc1d5; stroke:none;" d="M266 571L267 572L266 571z"/>
<path style="fill:#8396b5; stroke:none;" d="M261 572L262 573L261 572M262 574L263 575L262 574z"/>
<path style="fill:#091652; stroke:none;" d="M263 574C263.684 575.58 263.805 575.777 265 577C264.316 575.42 264.195 575.223 263 574z"/>
<path style="fill:#98c1be; stroke:none;" d="M265 574L266 575L265 574z"/>
<path style="fill:#afc1d5; stroke:none;" d="M263 576L264 577L263 576z"/>
<path style="fill:#8396b5; stroke:none;" d="M264 577L265 578L264 577z"/>
</svg>
